<svg width="1440" height="10352" viewBox="0 0 1440 10352" fill="none" xmlns="http://www.w3.org/2000/svg">
<g clip-path="url(#clip0_7835_33597)">
<rect width="1440" height="10352" fill="white"/>
<rect width="3896" height="5300.21" transform="translate(-1193 1667)" fill="#EFF3F6"/>
<path d="M-1192.99 2916.48C-946.634 2821.51 -628.676 2588.63 -303.276 2350.28C-186.342 2264.63 -68.4573 2178.27 47.4324 2097.36C508.046 1775.73 936.798 1540.16 1146.96 1776.67C1954.39 2685.37 2427.75 2911.99 2702.98 2886.26L2702.98 2886.79C2427.51 2912.47 1953.93 2685.73 1146.47 1777.01C936.642 1540.87 508.163 1776.34 47.8142 2097.78C-68.0444 2178.69 -185.944 2265.05 -302.878 2350.7C-628.395 2589.14 -946.463 2822.1 -1192.99 2917.05L-1192.99 2916.48L-1192.99 2916.48Z" fill="#007DC3" fill-opacity="0.1"/>
<path d="M-1192.99 2881.43C-950.195 2790.08 -639.124 2568.57 -320.254 2341.5C258.594 1929.27 863.125 1498.77 1132.18 1795.19C1953.27 2714.49 2428.96 2908.57 2702.98 2857.67L2702.98 2858.34C2428.74 2909.17 1952.85 2714.89 1131.7 1795.54C863.032 1499.54 258.742 1929.87 -319.873 2341.92C-638.852 2569.08 -950.031 2790.66 -1192.99 2882L-1192.99 2881.43Z" fill="#007DC3" fill-opacity="0.1"/>
<path d="M-1192.99 2846.47C-953.771 2758.77 -649.535 2548.43 -337.132 2332.42C238.779 1934.2 842.298 1516.89 1117.41 1813.71C1951.75 2742.83 2429.93 2901.98 2702.98 2826.3L2702.98 2826.96C2429.71 2902.57 1951.31 2743.23 1116.92 1814.05C842.196 1517.65 238.92 1934.79 -336.758 2332.85C-649.262 2548.93 -953.616 2759.35 -1192.99 2847.04L-1192.99 2846.47Z" fill="#007DC3" fill-opacity="0.1"/>
<path d="M-1192.99 2811.67C-957.387 2727.66 -659.867 2528.19 -353.923 2323.06C219.003 1938.93 821.438 1535.02 1102.63 1832.23C1950.06 2770.66 2430.67 2891.67 2702.98 2791.71L2702.98 2792.38C2430.45 2892.27 1949.61 2771.03 1102.16 1832.58C821.345 1535.76 219.144 1939.52 -353.549 2323.49C-659.61 2528.7 -957.231 2728.23 -1192.99 2812.25L-1192.99 2811.67Z" fill="#007DC3" fill-opacity="0.1"/>
<path d="M-1192.99 2776.97C-961.026 2696.67 -670.168 2507.88 -370.614 2313.42C199.282 1943.47 800.548 1553.15 1087.86 1850.75C1947.85 2797.57 2431.08 2877.73 2702.98 2754.52L2702.98 2755.14C2430.81 2878.27 1947.33 2797.87 1087.39 1851.11C800.447 1553.89 199.414 1944.06 -370.255 2313.87C-669.911 2508.4 -960.878 2697.25 -1192.99 2777.55L-1192.99 2776.98L-1192.99 2776.97Z" fill="#007DC3" fill-opacity="0.1"/>
<path d="M-1192.99 2742.42C-964.688 2665.86 -680.414 2487.5 -387.226 2303.51C179.599 1947.82 779.626 1571.29 1073.09 1869.27C1945.11 2823.52 2431.1 2859.81 2702.98 2714.73L2702.98 2715.37C2430.82 2860.38 1944.56 2823.79 1072.61 1869.63C779.517 1572.02 179.724 1948.41 -386.883 2303.96C-680.165 2488.01 -964.54 2666.44 -1192.99 2742.99L-1192.99 2742.42Z" fill="#007DC3" fill-opacity="0.1"/>
<path d="M-1192.99 2708.04C-968.381 2635.24 -690.606 2467.04 -403.753 2293.33C159.956 1951.98 758.682 1589.42 1058.31 1887.79L1058.31 1887.81C1941.78 2848.46 2430.7 2837.83 2702.98 2672.65L2702.98 2673.31C2430.42 2838.43 1941.24 2848.73 1057.85 1888.16C758.581 1590.15 160.088 1952.56 -403.41 2293.79C-690.364 2467.55 -968.241 2635.82 -1192.99 2708.61L-1192.99 2708.04L-1192.99 2708.04Z" fill="#007DC3" fill-opacity="0.1"/>
<path d="M-1192.99 2673.75C-972.098 2604.73 -700.774 2446.52 -420.21 2282.88C140.344 1955.95 737.691 1607.56 1043.54 1906.32L1043.54 1906.33C1937.6 2872.1 2429.8 2811.82 2702.98 2628.82L2702.98 2629.51C2429.51 2812.45 1937.05 2872.35 1043.09 1906.68C737.597 1608.27 140.476 1956.53 -419.867 2283.34C-700.541 2447.03 -971.966 2605.31 -1192.99 2674.32L-1192.99 2673.75Z" fill="#007DC3" fill-opacity="0.1"/>
<path d="M-1192.99 2639.65C-975.854 2574.43 -710.896 2425.92 -436.588 2272.16C120.778 1959.73 716.676 1625.7 1028.77 1924.84L1028.78 1924.85C1932.56 2894.4 2428.36 2781.7 2702.98 2583.57L2702.98 2584.28C2428.07 2782.39 1931.99 2894.65 1028.31 1925.2C716.559 1626.41 120.887 1960.31 -436.261 2272.62C-710.662 2426.44 -975.721 2575.01 -1192.99 2640.22L-1192.99 2639.65Z" fill="#007DC3" fill-opacity="0.1"/>
<path d="M-1192.99 2605.68C-979.633 2544.28 -720.987 2405.28 -452.905 2261.18C101.236 1963.33 695.621 1643.84 1014 1943.36L1014.02 1943.37C1913.75 2901.63 2412.38 2752.02 2691.35 2546.19C2695.28 2543.29 2699.15 2540.38 2702.99 2537.47L2702.99 2538.19C2699.28 2541.01 2695.54 2543.81 2691.74 2546.61C2412.57 2752.59 1913.63 2902.35 1013.55 1943.74C695.513 1644.54 101.345 1963.91 -452.585 2261.65C-720.769 2405.79 -979.5 2544.85 -1192.99 2606.25L-1192.99 2605.68Z" fill="#007DC3" fill-opacity="0.1"/>
<path d="M-1192.99 2571.88C-983.435 2514.3 -731.054 2384.57 -469.166 2249.94C81.717 1966.73 674.529 1661.97 999.22 1961.88L999.235 1961.9C1919.13 2934.23 2423.66 2709.51 2702.98 2490.86L2702.98 2491.6C2423.41 2710.3 1918.62 2934.55 998.768 1962.25C674.404 1662.67 81.8183 1967.31 -468.863 2250.41C-730.836 2385.09 -983.319 2514.86 -1192.99 2572.44L-1192.99 2571.87L-1192.99 2571.88Z" fill="#007DC3" fill-opacity="0.1"/>
<path d="M-1192.99 2538.25C-987.285 2484.5 -741.09 2363.8 -485.374 2238.43C62.2137 1969.95 653.397 1680.1 984.446 1980.4L984.462 1980.41C1910.6 2951.59 2420.37 2667.68 2702.98 2444.34L2702.98 2445.07C2420.13 2668.5 1910.11 2951.92 983.994 1980.77C653.272 1680.78 62.3072 1970.52 -485.085 2238.9C-740.88 2364.32 -987.16 2485.06 -1192.99 2538.82L-1192.99 2538.26L-1192.99 2538.25Z" fill="#007DC3" fill-opacity="0.1"/>
<path d="M-1192.99 2504.77C-991.157 2454.85 -751.11 2342.99 -501.542 2226.67C42.7339 1972.99 632.226 1698.23 969.673 1998.93L969.688 1998.94C1900.74 2967.18 2416.44 2622.28 2702.98 2398.33L2702.98 2399.06C2416.19 2623.15 1900.25 2967.5 969.228 1999.31C632.094 1698.9 42.8196 1973.57 -501.254 2227.15C-750.916 2343.51 -991.04 2455.41 -1192.99 2505.33L-1192.99 2504.77Z" fill="#007DC3" fill-opacity="0.1"/>
<path d="M-1192.99 2471.5C-995.069 2425.4 -761.115 2322.12 -517.671 2214.64C23.254 1975.83 611.009 1716.35 954.899 2017.44L954.915 2017.46C1882.84 2974.03 2404.49 2579.19 2696.83 2357.92L2702.98 2353.26L2702.98 2353.98L2697.23 2358.34C2404.72 2579.73 1882.78 2974.79 954.455 2017.82C610.876 1717.01 23.3319 1976.4 -517.399 2215.13C-760.921 2322.65 -994.96 2425.97 -1192.99 2472.06L-1192.99 2471.5Z" fill="#007DC3" fill-opacity="0.1"/>
<path d="M-1192.99 2438.37C-999.012 2396.1 -771.12 2301.21 -533.769 2202.36C3.78969 1978.49 589.745 1734.46 940.125 2035.97L940.141 2035.99C1831.2 2946.11 2354.24 2564.06 2658.2 2342.04C2673.69 2330.72 2688.61 2319.83 2702.98 2309.54L2702.98 2310.24C2688.73 2320.45 2673.94 2331.25 2658.59 2342.46C2354.47 2564.61 1831.13 2946.87 939.689 2036.36C589.612 1735.12 3.85979 1979.07 -533.512 2202.86C-770.941 2301.74 -998.902 2396.66 -1192.99 2438.93L-1192.99 2438.38L-1192.99 2438.37Z" fill="#007DC3" fill-opacity="0.1"/>
<path d="M-1192.99 2405.47C-1002.99 2367 -781.109 2280.25 -549.86 2189.82C-15.6902 1980.96 568.426 1752.56 925.352 2054.49L925.367 2054.51C1780.96 2919.96 2304.23 2548.92 2618.8 2325.88C2648.71 2304.67 2676.73 2284.8 2702.98 2267.46L2702.98 2268.13C2676.85 2285.42 2648.96 2305.2 2619.19 2326.3C2304.45 2549.47 1780.89 2920.7 924.923 2054.88C568.301 1753.21 -15.6201 1981.53 -549.611 2190.32C-780.938 2280.77 -1002.9 2367.56 -1192.99 2406.02L-1192.99 2405.47Z" fill="#007DC3" fill-opacity="0.1"/>
<path d="M-1192.99 2372.73C-1007.02 2338.05 -791.122 2259.25 -565.935 2177.02C-35.1779 1983.23 547.068 1770.65 910.586 2073.01L910.602 2073.02C1732.01 2895.41 2254.46 2533.9 2578.69 2309.55C2623.87 2278.28 2665.21 2249.68 2702.98 2227.31L2702.98 2227.96C2665.33 2250.29 2624.11 2278.81 2579.07 2309.98C2254.67 2534.45 1731.94 2896.15 910.157 2073.4C546.936 1771.28 -35.1156 1983.79 -565.701 2177.52C-790.959 2259.77 -1006.93 2338.61 -1192.99 2373.28L-1192.99 2372.73Z" fill="#007DC3" fill-opacity="0.1"/>
<path d="M-1192.99 2340.21C-1011.1 2309.31 -801.135 2238.19 -582.025 2163.96C-54.6891 1985.32 525.64 1788.72 895.804 2091.53L895.82 2091.55C1684.22 2872.37 2204.88 2519.1 2537.87 2293.16C2599.08 2251.64 2653.94 2214.42 2702.98 2189.31L2702.98 2189.93C2654.06 2215.02 2599.3 2252.17 2538.25 2293.6C2205.09 2519.65 1684.15 2873.11 895.376 2091.93C525.492 1789.35 -54.6502 1985.89 -581.815 2164.48C-800.987 2238.73 -1011.01 2309.86 -1192.99 2340.76L-1192.99 2340.21Z" fill="#007DC3" fill-opacity="0.1"/>
<path d="M-1192.99 2307.89C-1015.21 2280.73 -811.186 2217.1 -598.131 2150.64C-74.2314 1987.2 504.158 1806.77 881.031 2110.05L881.047 2110.07C1637.5 2850.71 2155.52 2504.57 2496.4 2276.79C2574.24 2224.78 2642.85 2178.94 2702.98 2153.6L2702.98 2154.2C2642.98 2179.54 2574.47 2225.31 2496.76 2277.23C2155.71 2505.12 1637.43 2851.44 880.602 2110.46C504.002 1807.39 -74.208 1987.77 -597.944 2151.15C-811.046 2217.63 -1015.13 2281.29 -1192.99 2308.44L-1192.99 2307.89L-1192.99 2307.89Z" fill="#007DC3" fill-opacity="0.1"/>
<path d="M-1192.99 2275.79C-1019.39 2252.35 -821.261 2195.96 -614.284 2137.04C-93.8279 1988.88 482.597 1824.8 866.258 2128.57L866.266 2128.57L866.281 2128.59C1591.8 2830.34 2106.35 2490.4 2454.28 2260.53C2549.29 2197.76 2631.88 2143.21 2702.98 2120.27L2702.98 2120.85C2632.02 2143.8 2549.53 2198.29 2454.65 2260.97C2106.54 2490.95 1591.73 2831.06 865.845 2128.97C482.449 1825.41 -93.789 1989.45 -614.089 2137.56C-821.137 2196.5 -1019.31 2252.9 -1192.99 2276.35L-1192.99 2275.8L-1192.99 2275.79Z" fill="#007DC3" fill-opacity="0.1"/>
<path d="M-1192.99 2243.91C-1023.62 2224.14 -831.399 2174.78 -630.483 2123.17C-113.472 1990.36 460.975 1842.79 851.492 2147.09L851.5 2147.09L851.515 2147.11C1547.01 2811.17 2057.35 2476.63 2411.53 2244.45C2524.14 2170.64 2620.97 2107.17 2702.99 2089.38L2702.99 2089.94C2621.12 2107.74 2524.39 2171.15 2411.89 2244.89C2057.54 2477.18 1546.94 2811.89 851.079 2147.5C460.811 1843.41 -113.448 1990.92 -630.312 2123.69C-831.274 2175.32 -1023.55 2224.69 -1192.99 2244.46L-1192.99 2243.91Z" fill="#007DC3" fill-opacity="0.1"/>
<path d="M-1192.99 2212.28C-1027.91 2196.14 -841.583 2153.55 -646.776 2109.02C-133.201 1991.62 439.251 1860.77 836.711 2165.62L836.726 2165.63L836.734 2165.63C1503.07 2793.15 2008.5 2463.32 2368.14 2228.64C2498.7 2143.44 2610.05 2070.78 2702.98 2060.95L2702.98 2061.5C2610.23 2071.35 2498.96 2143.95 2368.51 2229.08C2008.69 2463.88 1503.01 2793.87 836.298 2166.02C439.079 1861.37 -133.201 1992.19 -646.62 2109.55C-841.482 2154.09 -1027.86 2196.69 -1192.99 2212.83L-1192.99 2212.28Z" fill="#007DC3" fill-opacity="0.1"/>
<path d="M-1192.99 2180.86C-1032.28 2168.3 -851.86 2132.27 -663.17 2094.58C-153.031 1992.66 417.441 1878.7 821.945 2184.14L821.96 2184.16L821.96 2184.17C1459.96 2776.21 1959.82 2450.53 2324.15 2213.15C2467.22 2119.94 2589.41 2040.32 2690.93 2035.18C2694.99 2034.98 2699 2034.94 2702.98 2034.97L2702.98 2035.51C2699 2035.47 2695.01 2035.52 2690.96 2035.72C2589.63 2040.85 2467.5 2120.42 2324.51 2213.59C1959.99 2451.08 1459.89 2776.92 821.524 2184.55C417.254 1879.29 -153.047 1993.22 -663.046 2095.11C-851.767 2132.81 -1032.23 2168.85 -1192.99 2181.41L-1192.99 2180.86L-1192.99 2180.86Z" fill="#007DC3" fill-opacity="0.1"/>
<path d="M-1192.99 2149.71C-1036.73 2140.67 -862.232 2110.93 -679.713 2079.83C-172.987 1993.47 395.514 1896.58 807.171 2202.67L807.179 2202.67L807.195 2202.69C1417.59 2760.28 1911.25 2438.28 2279.54 2198.06C2429.79 2100.05 2559.18 2015.65 2667.2 2010.06C2679.41 2009.43 2691.34 2009.83 2702.99 2011.3L2702.99 2011.86C2691.35 2010.38 2679.44 2009.98 2667.24 2010.61C2559.41 2016.18 2430.08 2100.54 2279.91 2198.5C1911.45 2438.84 1417.54 2761.01 806.782 2203.08C395.343 1897.17 -172.994 1994.03 -679.58 2080.36C-862.13 2111.48 -1036.67 2141.22 -1192.97 2150.26L-1192.97 2149.72L-1192.99 2149.71Z" fill="#007DC3" fill-opacity="0.1"/>
<path d="M-1192.99 2118.8C-1041.28 2113.2 -872.743 2089.53 -696.442 2064.75C-193.097 1994.01 373.456 1914.39 792.398 2221.18L792.413 2221.2C1375.94 2745.34 1862.8 2426.61 2234.31 2183.41C2391.83 2080.29 2528.62 1990.74 2643.31 1984.7C2663.92 1983.61 2683.81 1985.27 2702.98 1989.99L2702.98 1990.55C2683.82 1985.83 2663.95 1984.16 2643.35 1985.25C2528.83 1991.28 2392.1 2080.78 2234.67 2183.85C1862.98 2427.17 1375.87 2746.05 791.985 2221.6C373.261 1914.97 -193.144 1994.57 -696.356 2065.29C-872.688 2090.06 -1041.24 2113.74 -1193 2119.35L-1193 2118.8L-1192.99 2118.8Z" fill="#007DC3" fill-opacity="0.1"/>
<path d="M-1192.99 2088.17C-1045.93 2085.92 -883.41 2068.05 -713.405 2049.33C-213.411 1994.3 351.249 1932.15 777.616 2239.71L777.632 2239.72L777.632 2239.73C1334.97 2731.34 1814.48 2415.59 2188.47 2169.31C2353.35 2060.73 2497.74 1965.66 2619.32 1959.14C2648.54 1957.57 2676.44 1961.13 2702.98 1970.83L2702.98 1971.42C2676.45 1961.69 2648.57 1958.12 2619.36 1959.68C2497.96 1966.19 2353.64 2061.22 2188.84 2169.75C1814.66 2416.15 1334.92 2732.06 777.219 2240.12C351.062 1932.72 -213.466 1994.86 -713.327 2049.88C-883.355 2068.59 -1045.9 2086.47 -1192.99 2088.72L-1192.99 2088.18L-1192.99 2088.17Z" fill="#007DC3" fill-opacity="0.1"/>
<path d="M-1192.99 2057.82C-1050.72 2058.83 -894.28 2046.47 -730.664 2033.54C-233.974 1994.3 328.878 1949.82 762.843 2258.23L762.851 2258.23L762.859 2258.24C1294.64 2718.24 1766.23 2405.21 2142 2155.8C2314.35 2041.4 2466.54 1940.38 2595.22 1933.37C2633.23 1931.29 2669.18 1937.43 2702.98 1953.84L2702.98 1954.46C2669.19 1938.01 2633.25 1931.84 2595.26 1933.91C2466.76 1940.92 2314.64 2041.89 2142.38 2156.23C1766.42 2405.78 1294.6 2718.95 762.446 2258.65C328.675 1950.38 -234.044 1994.85 -730.618 2034.08C-894.249 2047.01 -1050.7 2059.37 -1193 2058.36L-1193 2057.82L-1192.99 2057.82Z" fill="#007DC3" fill-opacity="0.1"/>
<path d="M-1192.99 2027.75C-1055.65 2031.9 -905.407 2024.79 -748.298 2017.35C-254.841 1993.97 306.297 1967.38 748.069 2276.75L748.085 2276.76C1254.92 2706.02 1718.08 2395.55 2094.91 2142.94C2274.81 2022.35 2435.04 1914.94 2571.04 1907.42C2617.98 1904.82 2662.01 1914.14 2702.97 1938.88L2702.97 1939.54C2662.03 1914.71 2618.01 1905.36 2571.07 1907.96C2435.26 1915.48 2275.1 2022.84 2095.27 2143.38C1718.26 2396.11 1254.87 2706.73 747.664 2277.16C306.078 1967.93 -254.927 1994.51 -748.274 2017.89C-905.391 2025.33 -1055.64 2032.44 -1193 2028.29L-1193 2027.74L-1192.99 2027.75Z" fill="#007DC3" fill-opacity="0.1"/>
<path d="M-1192.99 1997.98C-1060.77 2005.14 -916.853 2002.97 -766.414 2000.7C-276.097 1993.29 283.466 1984.82 733.295 2295.27L733.311 2295.28C1215.8 2694.66 1670 2386.63 2047.17 2130.84C2234.73 2003.64 2403.24 1889.36 2546.81 1881.3C2602.79 1878.16 2654.96 1891.18 2702.98 1925.86L2702.98 1926.54C2654.98 1891.76 2602.82 1878.71 2546.85 1881.85C2403.47 1889.89 2235.02 2004.13 2047.55 2131.27C1670.19 2387.19 1215.77 2695.37 732.898 2295.69C283.256 1985.37 -276.191 1993.83 -766.398 2001.24C-916.838 2003.52 -1060.75 2005.69 -1192.99 1998.53L-1192.99 1997.98L-1192.99 1997.98Z" fill="#007DC3" fill-opacity="0.1"/>
<path d="M-1192.99 1968.52C-1066.11 1978.54 -928.705 1980.98 -785.138 1983.53C-297.845 1992.19 260.34 2002.09 718.53 2313.8L718.553 2313.81C1177.26 2684.13 1622 2378.49 1998.8 2119.55C2194.11 1985.33 2371.16 1863.65 2522.55 1855.04C2587.67 1851.34 2648 1868.61 2703 1914.74L2703 1915.46C2648.03 1869.21 2587.7 1851.89 2522.59 1855.59C2371.4 1864.18 2194.4 1985.82 1999.18 2119.98C1622.19 2379.06 1177.24 2684.84 718.156 2314.23C260.114 2002.63 -297.954 1992.72 -785.154 1984.07C-928.705 1981.52 -1066.11 1979.08 -1192.99 1969.07L-1192.99 1968.52L-1192.99 1968.52Z" fill="#007DC3" fill-opacity="0.1"/>
<path d="M-1192.99 1939.38C-1071.73 1952.05 -941.078 1958.76 -804.665 1965.75C-320.239 1990.59 236.823 2019.16 703.748 2332.31L703.764 2332.33C1139.23 2674.4 1574.01 2371.17 1949.71 2109.13C2152.86 1967.45 2338.73 1837.8 2498.22 1828.62C2572.53 1824.35 2641.09 1846.29 2702.98 1905.29L2702.98 1906.06C2641.11 1846.9 2572.57 1824.89 2498.26 1829.17C2338.97 1838.34 2153.16 1967.93 1950.09 2109.56C1574.2 2371.73 1139.22 2675.11 703.374 2332.75C236.597 2019.7 -320.356 1991.13 -804.696 1966.3C-941.094 1959.31 -1071.74 1952.6 -1192.99 1939.93L-1192.99 1939.38L-1192.99 1939.38Z" fill="#007DC3" fill-opacity="0.1"/>
<path d="M-1192.99 1910.57C-1077.72 1925.68 -954.138 1936.24 -825.228 1947.26C-343.459 1988.43 212.817 2035.96 688.983 2350.84L688.999 2350.85C1101.75 2665.49 1526.08 2364.71 1899.96 2099.69C2111.03 1950.08 2306.03 1811.86 2473.89 1802.08C2557.46 1797.22 2634.28 1824.21 2702.98 1897.43L2702.98 1898.24C2634.3 1824.82 2557.49 1797.76 2473.93 1802.63C2306.26 1812.4 2111.33 1950.57 1900.34 2100.12C1526.28 2365.27 1101.75 2666.19 688.609 2351.28C212.591 2036.49 -343.599 1988.96 -825.282 1947.8C-954.177 1936.79 -1077.73 1926.22 -1192.99 1911.12L-1192.99 1910.57Z" fill="#007DC3" fill-opacity="0.1"/>
<path d="M-1192.99 1882.11C-1084.17 1899.35 -968.116 1913.32 -847.185 1927.86C-367.801 1985.53 188.178 2052.41 674.209 2369.36L674.225 2369.37C1064.77 2657.37 1478.16 2359.16 1849.48 2091.31C2068.55 1933.28 2272.99 1785.81 2449.55 1775.42C2542.41 1769.95 2627.53 1802.48 2702.98 1891.22L2702.98 1892.08C2627.54 1803.11 2542.44 1770.5 2449.59 1775.96C2273.22 1786.35 2068.86 1933.76 1849.87 2091.74C1478.37 2359.72 1064.78 2658.07 673.843 2369.8C187.937 2052.93 -367.957 1986.06 -847.271 1928.41C-968.171 1913.86 -1084.19 1899.9 -1192.99 1882.67L-1192.99 1882.11L-1192.99 1882.11Z" fill="#007DC3" fill-opacity="0.1"/>
<path d="M-1192.99 1854.01C-1091.25 1873.01 -983.342 1889.83 -871.052 1907.32C-393.67 1981.7 162.683 2068.38 659.436 2387.88L659.451 2387.89C1028.28 2650.03 1430.25 2354.58 1798.25 2084.09C2025.4 1917.13 2239.61 1759.68 2425.2 1748.64C2527.37 1742.57 2620.83 1780.94 2702.98 1886.41L2702.98 1887.31C2620.86 1781.57 2527.4 1743.11 2425.24 1749.19C2239.84 1760.21 2025.7 1917.61 1798.64 2084.52C1430.46 2355.13 1028.3 2650.74 659.077 2388.33C162.434 2068.9 -393.842 1982.23 -871.161 1907.86C-983.404 1890.37 -1091.28 1873.56 -1192.99 1854.57L-1192.99 1854.01L-1192.99 1854.01Z" fill="#007DC3" fill-opacity="0.1"/>
<path d="M-1192.99 1826.29C-1099.22 1846.55 -1000.33 1865.54 -897.615 1885.25C-421.706 1976.61 135.98 2083.67 644.662 2406.4L644.67 2406.4C992.269 2643.48 1382.33 2351 1746.22 2078.13C1981.5 1901.7 2205.85 1733.47 2400.84 1721.76C2512.33 1715.07 2614.2 1759.54 2702.98 1882.88L2702.98 1883.82C2614.22 1760.18 2512.37 1715.61 2400.88 1722.31C2206.09 1734.01 1981.82 1902.18 1746.62 2078.55C1382.54 2351.55 992.292 2644.18 644.296 2406.85C135.723 2084.19 -421.893 1977.14 -897.747 1885.79C-1000.41 1866.08 -1099.25 1847.11 -1192.99 1826.85L-1192.99 1826.29Z" fill="#007DC3" fill-opacity="0.1"/>
<path d="M-1192.99 1798.96C-1108.48 1819.79 -1019.9 1840.05 -928.136 1861.04C-452.92 1969.75 107.532 2097.97 629.889 2424.92C956.73 2637.72 1334.37 2348.49 1693.38 2073.54C1936.84 1887.09 2171.74 1707.19 2376.51 1694.78C2497.33 1687.46 2607.63 1738.5 2702.98 1880.81L2702.98 1881.82C2607.66 1739.17 2497.37 1688 2376.55 1695.32C2171.98 1707.72 1937.17 1887.56 1693.79 2073.96C1334.6 2349.04 956.761 2638.42 629.53 2425.37C107.259 2098.47 -453.131 1970.27 -928.292 1861.57C-1020 1840.59 -1108.53 1820.34 -1192.99 1799.52L-1192.99 1798.96Z" fill="#007DC3" fill-opacity="0.1"/>
<path d="M-1192.99 1772.03C-1119.73 1792.38 -1043.49 1812.68 -964.781 1833.62C-489.09 1960.22 76.3717 2110.72 615.115 2443.44C921.651 2632.75 1286.4 2347.12 1639.68 2070.47C1891.35 1873.38 2137.2 1680.86 2352.18 1667.71C2482.32 1659.76 2601.11 1717.64 2702.98 1879.94L2702.98 1880.99C2601.14 1718.32 2482.37 1660.3 2352.22 1668.26C2137.45 1681.38 1891.68 1873.85 1640.08 2070.87C1286.63 2347.67 921.69 2633.45 614.757 2443.89C76.099 2111.22 -489.316 1960.74 -964.961 1834.15C-1043.6 1813.22 -1119.79 1792.95 -1192.99 1772.6L-1192.99 1772.03L-1192.99 1772.03Z" fill="#007DC3" fill-opacity="0.1"/>
<path d="M-1192.99 3017.63C-946.634 3112.6 -628.676 3345.47 -303.276 3583.83C-186.342 3669.48 -68.4573 3755.84 47.4324 3836.75C508.046 4158.37 936.798 4393.95 1146.96 4157.43C1954.39 3248.74 2427.75 3022.12 2702.98 3047.85L2702.98 3047.31C2427.51 3021.64 1953.93 3248.37 1146.47 4157.1C936.642 4393.24 508.163 4157.76 47.8142 3836.32C-68.0444 3755.42 -185.944 3669.06 -302.878 3583.41C-628.395 3344.97 -946.463 3112.01 -1192.99 3017.05L-1192.99 3017.63L-1192.99 3017.63Z" fill="#007DC3" fill-opacity="0.1"/>
<path d="M-1192.99 3052.68C-950.195 3144.03 -639.124 3365.53 -320.254 3592.61C258.594 4004.83 863.125 4435.34 1132.18 4138.92C1953.27 3219.62 2428.96 3025.53 2702.98 3076.44L2702.98 3075.76C2428.74 3024.93 1952.85 3219.21 1131.7 4138.57C863.032 4434.56 258.742 4004.24 -319.873 3592.19C-638.852 3365.03 -950.031 3143.45 -1192.99 3052.1L-1192.99 3052.68Z" fill="#007DC3" fill-opacity="0.1"/>
<path d="M-1192.99 3087.64C-953.771 3175.34 -649.535 3385.68 -337.132 3601.68C238.779 3999.91 842.298 4417.21 1117.41 4120.4C1951.75 3191.27 2429.93 3032.13 2702.98 3107.81L2702.98 3107.15C2429.71 3031.54 1951.31 3190.88 1116.92 4120.06C842.196 4416.45 238.92 3999.32 -336.758 3601.26C-649.262 3385.17 -953.616 3174.76 -1192.99 3087.07L-1192.99 3087.64Z" fill="#007DC3" fill-opacity="0.1"/>
<path d="M-1192.99 3122.43C-957.387 3206.45 -659.867 3405.91 -353.923 3611.04C219.003 3995.18 821.438 4399.09 1102.63 4101.88C1950.06 3163.45 2430.67 3042.43 2702.98 3142.4L2702.98 3141.73C2430.45 3041.83 1949.61 3163.08 1102.16 4101.53C821.345 4398.35 219.144 3994.59 -353.549 3610.61C-659.61 3405.4 -957.231 3205.87 -1192.99 3121.86L-1192.99 3122.43Z" fill="#007DC3" fill-opacity="0.1"/>
<path d="M-1192.99 3157.13C-961.026 3237.43 -670.168 3426.22 -370.614 3620.68C199.282 3990.63 800.548 4380.96 1087.86 4083.35C1947.85 3136.53 2431.08 3056.38 2702.98 3179.59L2702.98 3178.97C2430.81 3055.84 1947.33 3136.24 1087.39 4083C800.447 4380.22 199.414 3990.05 -370.255 3620.24C-669.911 3425.71 -960.878 3236.85 -1192.99 3156.56L-1192.99 3157.13L-1192.99 3157.13Z" fill="#007DC3" fill-opacity="0.1"/>
<path d="M-1192.99 3191.68C-964.688 3268.24 -680.414 3446.61 -387.226 3630.59C179.599 3986.28 779.626 4362.82 1073.09 4064.83C1945.11 3110.59 2431.1 3074.29 2702.98 3219.38L2702.98 3218.73C2430.82 3073.73 1944.56 3110.31 1072.61 4064.48C779.517 4362.09 179.724 3985.7 -386.883 3630.14C-680.165 3446.1 -964.54 3267.67 -1192.99 3191.11L-1192.99 3191.68Z" fill="#007DC3" fill-opacity="0.1"/>
<path d="M-1192.99 3226.06C-968.381 3298.86 -690.606 3467.07 -403.753 3640.77C159.956 3982.13 758.682 4344.68 1058.31 4046.31L1058.31 4046.3C1941.78 3085.65 2430.7 3096.27 2702.98 3261.46L2702.98 3260.8C2430.42 3095.68 1941.24 3085.37 1057.85 4045.94C758.581 4343.96 160.088 3981.54 -403.41 3640.32C-690.364 3466.55 -968.241 3298.29 -1192.99 3225.5L-1192.99 3226.07L-1192.99 3226.06Z" fill="#007DC3" fill-opacity="0.1"/>
<path d="M-1192.99 3260.36C-972.098 3329.37 -700.774 3487.59 -420.21 3651.23C140.344 3978.16 737.691 4326.55 1043.54 4027.79L1043.54 4027.78C1937.6 3062.01 2429.8 3122.29 2702.98 3305.29L2702.98 3304.6C2429.51 3121.65 1937.05 3061.76 1043.09 4027.42C737.597 4325.83 140.476 3977.58 -419.867 3650.77C-700.541 3487.08 -971.966 3328.8 -1192.99 3259.79L-1192.99 3260.36Z" fill="#007DC3" fill-opacity="0.1"/>
<path d="M-1192.99 3294.46C-975.854 3359.67 -710.896 3508.18 -436.588 3661.94C120.778 3974.38 716.676 4308.41 1028.77 4009.26L1028.78 4009.25C1932.56 3039.71 2428.36 3152.4 2702.98 3350.53L2702.98 3349.83C2428.07 3151.72 1931.99 3039.46 1028.31 4008.91C716.559 4307.7 120.887 3973.79 -436.261 3661.48C-710.662 3507.67 -975.721 3359.1 -1192.99 3293.89L-1192.99 3294.46Z" fill="#007DC3" fill-opacity="0.1"/>
<path d="M-1192.99 3328.43C-979.633 3389.83 -720.987 3528.83 -452.905 3672.93C101.236 3970.78 695.621 4290.27 1014 3990.74L1014.02 3990.73C1913.75 3032.47 2412.38 3182.09 2691.35 3387.92C2695.28 3390.82 2699.15 3393.72 2702.99 3396.64L2702.99 3395.92C2699.28 3393.1 2695.54 3390.3 2691.74 3387.5C2412.57 3181.52 1913.63 3031.75 1013.55 3990.36C695.513 4289.57 101.345 3970.2 -452.585 3672.45C-720.769 3528.31 -979.5 3389.26 -1192.99 3327.86L-1192.99 3328.43Z" fill="#007DC3" fill-opacity="0.1"/>
<path d="M-1192.99 3362.23C-983.435 3419.81 -731.054 3549.54 -469.166 3684.17C81.717 3967.38 674.529 4272.13 999.22 3972.22L999.235 3972.21C1919.13 2999.88 2423.66 3224.6 2702.98 3443.24L2702.98 3442.51C2423.41 3223.81 1918.62 2999.56 998.768 3971.85C674.404 4271.44 81.8183 3966.79 -468.863 3683.7C-730.836 3549.02 -983.319 3419.24 -1192.99 3361.67L-1192.99 3362.23L-1192.99 3362.23Z" fill="#007DC3" fill-opacity="0.1"/>
<path d="M-1192.99 3395.86C-987.285 3449.61 -741.09 3570.31 -485.374 3695.68C62.2137 3964.16 653.397 4254.01 984.446 3953.71L984.462 3953.7C1910.6 2982.51 2420.37 3266.43 2702.98 3489.77L2702.98 3489.04C2420.13 3265.61 1910.11 2982.18 983.994 3953.33C653.272 4253.33 62.3072 3963.58 -485.085 3695.2C-740.88 3569.78 -987.16 3449.04 -1192.99 3395.29L-1192.99 3395.85L-1192.99 3395.86Z" fill="#007DC3" fill-opacity="0.1"/>
<path d="M-1192.99 3429.33C-991.157 3479.26 -751.11 3591.11 -501.542 3707.44C42.7339 3961.12 632.226 4235.88 969.673 3935.18L969.688 3935.16C1900.74 2966.93 2416.44 3311.82 2702.98 3535.78L2702.98 3535.05C2416.19 3310.96 1900.25 2966.61 969.228 3934.8C632.094 4235.2 42.8196 3960.54 -501.254 3706.95C-750.916 3590.59 -991.04 3478.7 -1192.99 3428.77L-1192.99 3429.33Z" fill="#007DC3" fill-opacity="0.1"/>
<path d="M-1192.99 3462.6C-995.069 3508.7 -761.115 3611.99 -517.671 3719.46C23.254 3958.28 611.009 4217.76 954.899 3916.66L954.915 3916.65C1882.84 2960.08 2404.49 3354.91 2696.83 3576.18L2702.98 3580.84L2702.98 3580.13L2697.23 3575.77C2404.72 3354.38 1882.78 2959.32 954.455 3916.28C610.876 4217.1 23.3319 3957.71 -517.399 3718.98C-760.921 3611.46 -994.96 3508.14 -1192.99 3462.04L-1192.99 3462.6Z" fill="#007DC3" fill-opacity="0.1"/>
<path d="M-1192.99 3495.74C-999.012 3538.01 -771.12 3632.9 -533.769 3731.74C3.78969 3955.62 589.745 4199.65 940.125 3898.14L940.141 3898.12C1831.2 2987.99 2354.24 3370.05 2658.2 3592.07C2673.69 3603.38 2688.61 3614.28 2702.98 3624.57L2702.98 3623.87C2688.73 3613.65 2673.94 3602.85 2658.59 3591.64C2354.47 3369.5 1831.13 2987.24 939.689 3897.75C589.612 4198.98 3.85979 3955.04 -533.512 3731.24C-770.941 3632.37 -998.902 3537.45 -1192.99 3495.18L-1192.99 3495.73L-1192.99 3495.74Z" fill="#007DC3" fill-opacity="0.1"/>
<path d="M-1192.99 3528.64C-1002.99 3567.11 -781.109 3653.86 -549.86 3744.28C-15.6902 3953.15 568.426 4181.55 925.352 3879.62L925.367 3879.6C1780.96 3014.15 2304.23 3385.18 2618.8 3608.23C2648.71 3629.44 2676.73 3649.31 2702.98 3666.65L2702.98 3665.97C2676.85 3648.69 2648.96 3628.91 2619.19 3607.8C2304.45 3384.64 1780.89 3013.41 924.923 3879.23C568.301 4180.9 -15.6201 3952.58 -549.611 3743.78C-780.938 3653.33 -1002.9 3566.55 -1192.99 3528.08L-1192.99 3528.64Z" fill="#007DC3" fill-opacity="0.1"/>
<path d="M-1192.99 3561.38C-1007.02 3596.05 -791.122 3674.86 -565.935 3757.08C-35.1779 3950.87 547.068 4163.46 910.586 3861.1L910.602 3861.08C1732.01 3038.69 2254.46 3400.21 2578.69 3624.56C2623.87 3655.83 2665.21 3684.43 2702.98 3706.8L2702.98 3706.15C2665.33 3683.81 2624.11 3655.3 2579.07 3624.13C2254.67 3399.66 1731.94 3037.95 910.157 3860.71C546.936 4162.83 -35.1156 3950.31 -565.701 3756.58C-790.959 3674.33 -1006.93 3595.5 -1192.99 3560.83L-1192.99 3561.38Z" fill="#007DC3" fill-opacity="0.1"/>
<path d="M-1192.99 3593.9C-1011.1 3624.8 -801.135 3695.92 -582.025 3770.15C-54.6891 3948.79 525.64 4145.39 895.804 3842.57L895.82 3842.56C1684.22 3061.73 2204.88 3415.01 2537.87 3640.94C2599.08 3682.47 2653.94 3719.69 2702.98 3744.8L2702.98 3744.17C2654.06 3719.09 2599.3 3681.94 2538.25 3640.51C2205.09 3414.45 1684.15 3061 895.376 3842.17C525.492 4144.75 -54.6502 3948.22 -581.815 3769.63C-800.987 3695.38 -1011.01 3624.24 -1192.99 3593.34L-1192.99 3593.9Z" fill="#007DC3" fill-opacity="0.1"/>
<path d="M-1192.99 3626.22C-1015.21 3653.38 -811.186 3717.01 -598.131 3783.47C-74.2314 3946.9 504.158 4127.34 881.031 3824.05L881.047 3824.04C1637.5 3083.39 2155.52 3429.54 2496.4 3657.31C2574.24 3709.33 2642.85 3755.17 2702.98 3780.51L2702.98 3779.91C2642.98 3754.57 2574.47 3708.8 2496.76 3656.87C2155.71 3428.98 1637.43 3082.66 880.602 3823.65C504.002 4126.71 -74.208 3946.34 -597.944 3782.95C-811.046 3716.47 -1015.13 3652.82 -1192.99 3625.67L-1192.99 3626.22L-1192.99 3626.22Z" fill="#007DC3" fill-opacity="0.1"/>
<path d="M-1192.99 3658.31C-1019.39 3681.75 -821.261 3738.15 -614.284 3797.07C-93.8279 3945.23 482.597 4109.31 866.258 3805.54L866.266 3805.54L866.281 3805.52C1591.8 3103.77 2106.35 3443.71 2454.28 3673.57C2549.29 3736.34 2631.88 3790.9 2702.98 3813.84L2702.98 3813.26C2632.02 3790.31 2549.53 3735.82 2454.65 3673.13C2106.54 3443.15 1591.73 3103.04 865.845 3805.14C482.449 4108.69 -93.789 3944.66 -614.089 3796.55C-821.137 3737.61 -1019.31 3681.2 -1192.99 3657.76L-1192.99 3658.31L-1192.99 3658.31Z" fill="#007DC3" fill-opacity="0.1"/>
<path d="M-1192.99 3690.2C-1023.62 3709.96 -831.399 3759.33 -630.483 3810.94C-113.472 3943.75 460.975 4091.31 851.492 3787.02L851.5 3787.02L851.515 3787C1547.01 3122.94 2057.35 3457.48 2411.53 3689.65C2524.14 3763.47 2620.97 3826.94 2702.99 3844.73L2702.99 3844.17C2621.12 3826.37 2524.39 3762.96 2411.89 3689.21C2057.54 3456.92 1546.94 3122.21 851.079 3786.61C460.811 4090.7 -113.448 3943.19 -630.312 3810.42C-831.274 3758.79 -1023.55 3709.41 -1192.99 3689.65L-1192.99 3690.2Z" fill="#007DC3" fill-opacity="0.1"/>
<path d="M-1192.99 3721.83C-1027.91 3737.96 -841.583 3780.55 -646.776 3825.09C-133.201 3942.48 439.251 4073.34 836.711 3768.49L836.726 3768.48L836.734 3768.48C1503.07 3140.96 2008.5 3470.78 2368.14 3705.47C2498.7 3790.67 2610.05 3863.32 2702.98 3873.16L2702.98 3872.61C2610.23 3862.76 2498.96 3790.16 2368.51 3705.03C2008.69 3470.23 1503.01 3140.24 836.298 3768.09C439.079 4072.74 -133.201 3941.92 -646.62 3824.56C-841.482 3780.02 -1027.86 3737.41 -1192.99 3721.28L-1192.99 3721.83Z" fill="#007DC3" fill-opacity="0.1"/>
<path d="M-1192.99 3753.25C-1032.28 3765.81 -851.86 3801.84 -663.17 3839.53C-153.031 3941.44 417.441 4055.41 821.945 3749.96L821.96 3749.95L821.96 3749.94C1459.96 3157.9 1959.82 3483.57 2324.15 3720.95C2467.22 3814.17 2589.41 3893.78 2690.93 3898.92C2694.99 3899.13 2699 3899.17 2702.98 3899.14L2702.98 3898.59C2699 3898.63 2695.01 3898.59 2690.96 3898.38C2589.63 3893.25 2467.5 3813.69 2324.51 3720.52C1959.99 3483.02 1459.89 3157.19 821.524 3749.56C417.254 4054.82 -153.047 3940.89 -663.046 3839C-851.767 3801.3 -1032.23 3765.26 -1192.99 3752.7L-1192.99 3753.25L-1192.99 3753.25Z" fill="#007DC3" fill-opacity="0.1"/>
<path d="M-1192.99 3784.39C-1036.73 3793.44 -862.232 3823.18 -679.713 3854.28C-172.987 3940.64 395.514 4037.53 807.171 3731.44L807.179 3731.44L807.195 3731.42C1417.59 3173.82 1911.25 3495.82 2279.54 3736.05C2429.79 3834.06 2559.18 3918.46 2667.2 3924.04C2679.41 3924.68 2691.34 3924.28 2702.99 3922.81L2702.99 3922.25C2691.35 3923.73 2679.44 3924.13 2667.24 3923.5C2559.41 3917.92 2430.08 3833.57 2279.91 3735.61C1911.45 3495.26 1417.54 3173.1 806.782 3731.02C395.343 4036.94 -172.994 3940.08 -679.58 3853.74C-862.13 3822.63 -1036.67 3792.89 -1192.97 3783.84L-1192.97 3784.39L-1192.99 3784.39Z" fill="#007DC3" fill-opacity="0.1"/>
<path d="M-1192.99 3815.3C-1041.28 3820.91 -872.743 3844.58 -696.442 3869.36C-193.097 3940.1 373.456 4019.71 792.398 3712.93L792.413 3712.9C1375.94 3188.77 1862.8 3507.49 2234.31 3750.69C2391.83 3853.81 2528.62 3943.36 2643.31 3949.41C2663.92 3950.49 2683.81 3948.83 2702.98 3944.12L2702.98 3943.55C2683.82 3948.28 2663.95 3949.94 2643.35 3948.86C2528.83 3942.83 2392.1 3853.32 2234.67 3750.26C1862.98 3506.94 1375.87 3188.06 791.985 3712.51C373.261 4019.14 -193.144 3939.54 -696.356 3868.82C-872.688 3844.04 -1041.24 3820.36 -1193 3814.76L-1193 3815.3L-1192.99 3815.3Z" fill="#007DC3" fill-opacity="0.1"/>
<path d="M-1192.99 3845.93C-1045.93 3848.18 -883.41 3866.06 -713.405 3884.77C-213.411 3939.8 351.249 4001.96 777.616 3694.4L777.632 3694.39L777.632 3694.38C1334.97 3202.76 1814.48 3518.52 2188.47 3764.8C2353.35 3873.37 2497.74 3968.45 2619.32 3974.97C2648.54 3976.54 2676.44 3972.98 2702.98 3963.27L2702.98 3962.69C2676.45 3972.41 2648.57 3975.99 2619.36 3974.43C2497.96 3967.92 2353.64 3872.89 2188.84 3764.36C1814.66 3517.96 1334.92 3202.05 777.219 3693.98C351.062 4001.38 -213.466 3939.25 -713.327 3884.23C-883.355 3865.52 -1045.9 3847.63 -1192.99 3845.38L-1192.99 3845.93L-1192.99 3845.93Z" fill="#007DC3" fill-opacity="0.1"/>
<path d="M-1192.99 3876.28C-1050.72 3875.27 -894.28 3887.63 -730.664 3900.56C-233.974 3939.81 328.878 3984.29 762.843 3675.88L762.851 3675.88L762.859 3675.86C1294.64 3215.86 1766.23 3528.89 2142 3778.31C2314.35 3892.7 2466.54 3993.72 2595.22 4000.74C2633.23 4002.81 2669.18 3996.67 2702.98 3980.27L2702.98 3979.65C2669.19 3996.1 2633.25 4002.26 2595.26 4000.2C2466.76 3993.19 2314.64 3892.22 2142.38 3777.88C1766.42 3528.33 1294.6 3215.15 762.446 3675.46C328.675 3983.73 -234.044 3939.26 -730.618 3900.02C-894.249 3887.1 -1050.7 3874.73 -1193 3875.75L-1193 3876.29L-1192.99 3876.28Z" fill="#007DC3" fill-opacity="0.1"/>
<path d="M-1192.99 3906.36C-1055.65 3902.2 -905.407 3909.31 -748.298 3916.76C-254.841 3940.13 306.297 3966.72 748.069 3657.36L748.085 3657.35C1254.92 3228.09 1718.08 3538.56 2094.91 3791.16C2274.81 3911.75 2435.04 4019.17 2571.04 4026.69C2617.98 4029.29 2662.01 4019.97 2702.97 3995.23L2702.97 3994.57C2662.03 4019.39 2618.01 4028.74 2571.07 4026.15C2435.26 4018.63 2275.1 3911.26 2095.27 3790.73C1718.26 3538 1254.87 3227.37 747.664 3656.95C306.078 3966.17 -254.927 3939.6 -748.274 3916.22C-905.391 3908.77 -1055.64 3901.66 -1193 3905.82L-1193 3906.36L-1192.99 3906.36Z" fill="#007DC3" fill-opacity="0.1"/>
<path d="M-1192.99 3936.13C-1060.77 3928.97 -916.853 3931.14 -766.414 3933.41C-276.097 3940.82 283.466 3949.28 733.295 3638.84L733.311 3638.82C1215.8 3239.45 1670 3547.48 2047.17 3803.27C2234.73 3930.47 2403.24 4044.75 2546.81 4052.81C2602.79 4055.95 2654.96 4042.93 2702.98 4008.25L2702.98 4007.57C2654.98 4042.35 2602.82 4055.4 2546.85 4052.26C2403.47 4044.22 2235.02 3929.98 2047.55 3802.84C1670.19 3546.92 1215.77 3238.74 732.898 3638.41C283.256 3948.74 -276.191 3940.28 -766.398 3932.86C-916.838 3930.59 -1060.75 3928.42 -1192.99 3935.58L-1192.99 3936.13L-1192.99 3936.13Z" fill="#007DC3" fill-opacity="0.1"/>
<path d="M-1192.99 3965.58C-1066.11 3955.57 -928.705 3953.12 -785.138 3950.58C-297.845 3941.92 260.34 3932.01 718.53 3620.31L718.553 3620.29C1177.26 3249.98 1622 3555.61 1998.8 3814.56C2194.11 3948.78 2371.16 4070.46 2522.55 4079.06C2587.67 4082.77 2648 4065.49 2703 4019.37L2703 4018.65C2648.03 4064.89 2587.7 4082.22 2522.59 4078.52C2371.4 4069.93 2194.4 3948.29 1999.18 3814.13C1622.19 3555.05 1177.24 3249.27 718.156 3619.87C260.114 3931.47 -297.954 3941.38 -785.154 3950.03C-928.705 3952.58 -1066.11 3955.03 -1192.99 3965.04L-1192.99 3965.59L-1192.99 3965.58Z" fill="#007DC3" fill-opacity="0.1"/>
<path d="M-1192.99 3994.73C-1071.73 3982.05 -941.078 3975.35 -804.665 3968.36C-320.239 3943.52 236.823 3914.95 703.748 3601.79L703.764 3601.78C1139.23 3259.7 1574.01 3562.94 1949.71 3824.98C2152.86 3966.66 2338.73 4096.3 2498.22 4105.48C2572.53 4109.76 2641.09 4087.81 2702.98 4028.82L2702.98 4028.05C2641.11 4087.2 2572.57 4109.22 2498.26 4104.94C2338.97 4095.77 2153.16 3966.17 1950.09 3824.55C1574.2 3562.38 1139.22 3259 703.374 3601.35C236.597 3914.41 -320.356 3942.97 -804.696 3967.81C-941.094 3974.8 -1071.74 3981.5 -1192.99 3994.17L-1192.99 3994.72L-1192.99 3994.73Z" fill="#007DC3" fill-opacity="0.1"/>
<path d="M-1192.99 4023.53C-1077.72 4008.43 -954.138 3997.86 -825.228 3986.85C-343.459 3945.68 212.817 3898.14 688.983 3583.27L688.999 3583.26C1101.75 3268.62 1526.08 3569.39 1899.96 3834.41C2111.03 3984.02 2306.03 4122.25 2473.89 4132.02C2557.46 4136.89 2634.28 4109.89 2702.98 4036.67L2702.98 4035.87C2634.3 4109.28 2557.49 4136.34 2473.93 4131.48C2306.26 4121.71 2111.33 3983.54 1900.34 3833.98C1526.28 3568.83 1101.75 3267.91 688.609 3582.83C212.591 3897.62 -343.599 3945.14 -825.282 3986.31C-954.177 3997.32 -1077.73 4007.88 -1192.99 4022.98L-1192.99 4023.53Z" fill="#007DC3" fill-opacity="0.1"/>
<path d="M-1192.99 4052C-1084.17 4034.76 -968.116 4020.79 -847.185 4006.25C-367.801 3948.58 188.178 3881.7 674.209 3564.75L674.225 3564.74C1064.77 3276.74 1478.16 3574.94 1849.48 3842.79C2068.55 4000.82 2272.99 4148.29 2449.55 4158.69C2542.41 4164.15 2627.53 4131.63 2702.98 4042.89L2702.98 4042.03C2627.54 4131 2542.44 4163.61 2449.59 4158.14C2273.22 4147.76 2068.86 4000.34 1849.87 3842.37C1478.37 3574.39 1064.78 3276.04 673.843 3564.31C187.937 3881.17 -367.957 3948.04 -847.271 4005.7C-968.171 4020.25 -1084.19 4034.2 -1192.99 4051.44L-1192.99 4051.99L-1192.99 4052Z" fill="#007DC3" fill-opacity="0.1"/>
<path d="M-1192.99 4080.09C-1091.25 4061.09 -983.342 4044.28 -871.052 4026.78C-393.67 3952.41 162.683 3865.73 659.436 3546.23L659.451 3546.21C1028.28 3284.08 1430.25 3579.53 1798.25 3850.01C2025.4 4016.97 2239.61 4174.43 2425.2 4185.46C2527.37 4191.54 2620.83 4153.17 2702.98 4047.69L2702.98 4046.8C2620.86 4152.53 2527.4 4190.99 2425.24 4184.92C2239.84 4173.89 2025.7 4016.5 1798.64 3849.59C1430.46 3578.97 1028.3 3283.37 659.077 3545.78C162.434 3865.21 -393.842 3951.88 -871.161 4026.25C-983.404 4043.73 -1091.28 4060.54 -1192.99 4079.54L-1192.99 4080.1L-1192.99 4080.09Z" fill="#007DC3" fill-opacity="0.1"/>
<path d="M-1192.99 4107.82C-1099.22 4087.56 -1000.33 4068.57 -897.615 4048.85C-421.706 3957.5 135.98 3850.43 644.662 3527.7L644.67 3527.7C992.269 3290.62 1382.33 3583.11 1746.22 3855.98C1981.5 4032.4 2205.85 4200.63 2400.84 4212.35C2512.33 4219.04 2614.2 4174.57 2702.98 4051.22L2702.98 4050.28C2614.22 4173.92 2512.37 4218.5 2400.88 4211.8C2206.09 4200.1 1981.82 4031.93 1746.62 3855.56C1382.54 3582.55 992.292 3289.93 644.296 3527.26C135.723 3849.92 -421.893 3956.97 -897.747 4048.32C-1000.41 4068.02 -1099.25 4087 -1192.99 4107.26L-1192.99 4107.82Z" fill="#007DC3" fill-opacity="0.1"/>
<path d="M-1192.99 4135.15C-1108.48 4114.32 -1019.9 4094.06 -928.136 4073.07C-452.92 3964.35 107.532 3836.13 629.889 3509.18C956.73 3296.38 1334.37 3585.62 1693.38 3860.56C1936.84 4047.02 2171.74 4226.92 2376.51 4239.33C2497.33 4246.65 2607.63 4195.61 2702.98 4053.3L2702.98 4052.29C2607.66 4194.94 2497.37 4246.1 2376.55 4238.78C2171.98 4226.39 1937.17 4046.55 1693.79 3860.15C1334.6 3585.07 956.761 3295.69 629.53 3508.74C107.259 3835.63 -453.131 3963.84 -928.292 4072.54C-1020 4093.52 -1108.53 4113.77 -1192.99 4134.58L-1192.99 4135.15Z" fill="#007DC3" fill-opacity="0.1"/>
<path d="M-1192.99 4162.08C-1119.73 4141.72 -1043.49 4121.43 -964.781 4100.48C-489.09 3973.88 76.3717 3823.38 615.115 3490.66C921.651 3301.35 1286.4 3586.98 1639.68 3863.64C1891.35 4060.73 2137.2 4253.25 2352.18 4266.39C2482.32 4274.35 2601.11 4216.47 2702.98 4054.17L2702.98 4053.12C2601.14 4215.79 2482.37 4273.81 2352.22 4265.85C2137.45 4252.72 1891.68 4060.25 1640.08 3863.23C1286.63 3586.44 921.69 3300.66 614.757 3490.22C76.099 3822.88 -489.316 3973.37 -964.961 4099.96C-1043.6 4120.89 -1119.79 4141.16 -1192.99 4161.5L-1192.99 4162.07L-1192.99 4162.08Z" fill="#007DC3" fill-opacity="0.1"/>
<path d="M2702.99 4367.68C2456.63 4462.65 2138.68 4695.53 1813.28 4933.88C1696.34 5019.53 1578.46 5105.89 1462.57 5186.8C1001.95 5508.43 573.202 5744 363.045 5507.49C-444.389 4598.79 -917.75 4372.17 -1192.98 4397.9L-1192.98 4397.37C-917.508 4371.69 -443.929 4598.43 363.528 5507.15C573.358 5743.29 1001.84 5507.82 1462.19 5186.38C1578.04 5105.47 1695.94 5019.11 1812.88 4933.46C2138.4 4695.02 2456.46 4462.06 2702.99 4367.11L2702.99 4367.68L2702.99 4367.68Z" fill="#007DC3" fill-opacity="0.1"/>
<path d="M2702.99 4402.73C2460.19 4494.08 2149.12 4715.59 1830.25 4942.66C1251.41 5354.89 646.875 5785.39 377.818 5488.97C-443.274 4569.67 -918.957 4375.59 -1192.98 4426.49L-1192.98 4425.82C-918.739 4374.99 -442.846 4569.27 378.302 5488.62C646.968 5784.62 1251.26 5354.29 1829.87 4942.24C2148.85 4715.08 2460.03 4493.5 2702.99 4402.16L2702.99 4402.73Z" fill="#007DC3" fill-opacity="0.1"/>
<path d="M2702.99 4437.69C2463.77 4525.39 2159.53 4735.73 1847.13 4951.74C1271.22 5349.96 667.702 5767.27 392.592 5470.45C-441.747 4541.33 -919.931 4382.18 -1192.98 4457.86L-1192.98 4457.2C-919.713 4381.59 -441.311 4540.93 393.075 5470.11C667.804 5766.51 1271.08 5349.37 1846.76 4951.31C2159.26 4735.23 2463.62 4524.81 2702.99 4437.12L2702.99 4437.69Z" fill="#007DC3" fill-opacity="0.1"/>
<path d="M2702.99 4472.49C2467.39 4556.5 2169.87 4755.97 1863.92 4961.1C1291 5345.23 688.562 5749.14 407.366 5451.93C-440.056 4513.5 -920.672 4392.49 -1192.98 4492.45L-1192.98 4491.78C-920.446 4391.89 -439.612 4513.13 407.841 5451.58C688.655 5748.4 1290.86 5344.64 1863.55 4960.67C2169.61 4755.46 2467.23 4555.93 2702.99 4471.91L2702.99 4472.49Z" fill="#007DC3" fill-opacity="0.1"/>
<path d="M2702.99 4507.19C2471.03 4587.49 2180.17 4776.28 1880.61 4970.74C1310.72 5340.69 709.452 5731.01 422.14 5433.41C-437.85 4486.59 -921.084 4406.43 -1192.98 4529.64L-1192.98 4529.02C-920.812 4405.89 -437.329 4486.29 422.615 5433.05C709.553 5730.27 1310.59 5340.1 1880.26 4970.29C2179.91 4775.76 2470.88 4586.91 2702.99 4506.61L2702.99 4507.18L2702.99 4507.19Z" fill="#007DC3" fill-opacity="0.1"/>
<path d="M2702.99 4541.74C2474.69 4618.3 2190.41 4796.66 1897.23 4980.65C1330.4 5336.34 730.374 5712.87 436.913 5414.89C-435.108 4460.64 -921.1 4424.35 -1192.98 4569.43L-1192.98 4568.79C-920.819 4423.78 -434.562 4460.37 437.388 5414.53C730.483 5712.14 1330.28 5335.75 1896.88 4980.2C2190.16 4796.15 2474.54 4617.72 2702.99 4541.17L2702.99 4541.74Z" fill="#007DC3" fill-opacity="0.1"/>
<path d="M2702.99 4576.12C2478.38 4648.92 2200.61 4817.12 1913.75 4990.83C1350.04 5332.18 751.318 5694.74 451.686 5396.37L451.686 5396.35C-431.781 4435.7 -920.703 4446.33 -1192.98 4611.51L-1192.98 4610.85C-920.422 4445.73 -431.236 4435.43 452.146 5396C751.419 5694.01 1349.91 5331.6 1913.41 4990.37C2200.36 4816.61 2478.24 4648.34 2702.99 4575.55L2702.99 4576.12L2702.99 4576.12Z" fill="#007DC3" fill-opacity="0.1"/>
<path d="M2702.99 4610.41C2482.1 4679.43 2210.77 4837.64 1930.21 5001.28C1369.66 5328.21 772.309 5676.6 466.46 5377.84L466.46 5377.83C-427.605 4412.06 -919.799 4472.34 -1192.98 4655.34L-1192.98 4654.65C-919.511 4471.71 -427.051 4411.81 466.912 5377.48C772.403 5675.89 1369.52 5327.63 1929.87 5000.82C2210.54 4837.13 2481.97 4678.85 2702.99 4609.84L2702.99 4610.41Z" fill="#007DC3" fill-opacity="0.1"/>
<path d="M2702.99 4644.51C2485.85 4709.73 2220.9 4858.24 1946.59 5012C1389.22 5324.43 793.324 5658.46 481.233 5359.32L481.218 5359.31C-422.556 4389.76 -918.357 4502.46 -1192.98 4700.59L-1192.98 4699.88C-918.069 4501.77 -421.994 4389.51 481.693 5358.96C793.441 5657.75 1389.11 5323.85 1946.26 5011.54C2220.66 4857.72 2485.72 4709.15 2702.99 4643.94L2702.99 4644.51Z" fill="#007DC3" fill-opacity="0.1"/>
<path d="M2702.99 4678.48C2489.63 4739.88 2230.99 4878.88 1962.9 5022.98C1408.76 5320.83 814.379 5640.32 495.999 5340.8L495.984 5340.79C-403.753 4382.53 -902.384 4532.14 -1181.35 4737.97C-1185.28 4740.87 -1189.15 4743.78 -1192.99 4746.69L-1192.99 4745.97C-1189.28 4743.15 -1185.54 4740.35 -1181.74 4737.55C-902.571 4531.57 -403.629 4381.81 496.451 5340.42C814.487 5639.62 1408.66 5320.25 1962.59 5022.51C2230.77 4878.37 2489.5 4739.31 2702.99 4677.91L2702.99 4678.48Z" fill="#007DC3" fill-opacity="0.1"/>
<path d="M2702.99 4712.28C2493.44 4769.86 2241.05 4899.59 1979.17 5034.22C1428.28 5317.43 835.471 5622.19 510.78 5322.28L510.765 5322.26C-409.13 4349.93 -913.659 4574.65 -1192.98 4793.3L-1192.98 4792.56C-913.41 4573.86 -408.624 4349.61 511.232 5321.91C835.596 5621.49 1428.18 5316.85 1978.86 5033.75C2240.84 4899.07 2493.32 4769.3 2702.99 4711.72L2702.99 4712.29L2702.99 4712.28Z" fill="#007DC3" fill-opacity="0.1"/>
<path d="M2702.99 4745.91C2497.28 4799.66 2251.09 4920.36 1995.37 5045.73C1447.79 5314.21 856.603 5604.06 525.554 5303.76L525.538 5303.75C-400.598 4332.57 -910.371 4616.48 -1192.98 4839.82L-1192.98 4839.09C-910.129 4615.66 -400.107 4332.24 526.006 5303.39C856.728 5603.38 1447.69 5313.64 1995.09 5045.26C2250.88 4919.84 2497.16 4799.1 2702.99 4745.34L2702.99 4745.9L2702.99 4745.91Z" fill="#007DC3" fill-opacity="0.1"/>
<path d="M2702.99 4779.39C2501.16 4829.31 2261.11 4941.17 2011.54 5057.49C1467.27 5311.17 877.774 5585.93 540.327 5285.23L540.312 5285.22C-390.741 4316.98 -906.436 4661.88 -1192.98 4885.83L-1192.98 4885.1C-906.194 4661.01 -390.25 4316.66 540.772 5284.85C877.906 5585.26 1467.18 5310.59 2011.25 5057.01C2260.92 4940.65 2501.04 4828.75 2702.99 4778.83L2702.99 4779.39Z" fill="#007DC3" fill-opacity="0.1"/>
<path d="M2702.99 4812.66C2505.07 4858.76 2271.12 4962.04 2027.67 5069.52C1486.75 5308.33 898.991 5567.81 555.101 5266.72L555.085 5266.7C-372.843 4310.14 -894.491 4704.97 -1186.83 4926.24L-1192.98 4930.9L-1192.98 4930.18L-1187.23 4925.83C-894.724 4704.43 -372.78 4309.37 555.545 5266.34C899.124 5567.15 1486.67 5307.76 2027.4 5069.03C2270.92 4961.51 2504.96 4858.19 2702.99 4812.1L2702.99 4812.66Z" fill="#007DC3" fill-opacity="0.1"/>
<path d="M2702.99 4845.79C2509.01 4888.06 2281.12 4982.95 2043.77 5081.8C1506.21 5305.67 920.255 5549.7 569.875 5248.19L569.859 5248.17C-321.198 4338.05 -844.24 4720.1 -1148.2 4942.12C-1163.69 4953.44 -1178.61 4964.33 -1192.98 4974.62L-1192.98 4973.92C-1178.73 4963.71 -1163.94 4952.91 -1148.59 4941.7C-844.466 4719.55 -321.128 4337.29 570.311 5247.8C920.388 5549.04 1506.14 5305.09 2043.51 5081.3C2280.94 4982.42 2508.9 4887.5 2702.99 4845.23L2702.99 4845.78L2702.99 4845.79Z" fill="#007DC3" fill-opacity="0.1"/>
<path d="M2702.99 4878.69C2512.99 4917.16 2291.11 5003.91 2059.86 5094.34C1525.69 5303.2 941.574 5531.6 584.648 5229.67L584.633 5229.65C-270.963 4364.2 -794.232 4735.24 -1108.8 4958.28C-1138.71 4979.49 -1166.73 4999.36 -1192.98 5016.7L-1192.98 5016.03C-1166.85 4998.74 -1138.96 4978.96 -1109.19 4957.86C-794.45 4734.69 -270.893 4363.46 585.077 5229.28C941.699 5530.95 1525.62 5302.63 2059.61 5093.84C2290.94 5003.39 2512.9 4916.6 2702.99 4878.14L2702.99 4878.69Z" fill="#007DC3" fill-opacity="0.1"/>
<path d="M2702.99 4911.43C2517.02 4946.11 2301.12 5024.91 2075.93 5107.14C1545.18 5300.93 962.932 5513.51 599.414 5211.15L599.398 5211.14C-222.014 4388.75 -744.457 4750.26 -1068.69 4974.61C-1113.87 5005.88 -1155.21 5034.48 -1192.98 5056.85L-1192.98 5056.2C-1155.33 5033.87 -1114.11 5005.35 -1069.07 4974.18C-744.667 4749.71 -221.944 4388.01 599.843 5210.76C963.064 5512.88 1545.12 5300.37 2075.7 5106.64C2300.96 5024.39 2516.93 4945.55 2702.99 4910.88L2702.99 4911.43Z" fill="#007DC3" fill-opacity="0.1"/>
<path d="M2702.99 4943.95C2521.1 4974.85 2311.13 5045.97 2092.03 5120.2C1564.69 5298.84 984.36 5495.44 614.196 5192.63L614.18 5192.61C-174.218 4411.79 -694.884 4765.06 -1027.87 4991C-1089.08 5032.52 -1143.94 5069.74 -1192.98 5094.85L-1192.98 5094.23C-1144.06 5069.14 -1089.3 5031.99 -1028.25 4990.56C-695.086 4764.51 -174.147 4411.05 614.624 5192.23C984.508 5494.81 1564.65 5298.27 2091.81 5119.68C2310.99 5045.43 2521.01 4974.3 2702.99 4943.4L2702.99 4943.95Z" fill="#007DC3" fill-opacity="0.1"/>
<path d="M2702.99 4976.27C2525.21 5003.43 2321.19 5067.06 2108.13 5133.52C1584.23 5296.96 1005.84 5477.39 628.969 5174.11L628.953 5174.09C-127.505 4433.45 -645.522 4779.59 -986.396 5007.37C-1064.24 5059.38 -1132.85 5105.22 -1192.98 5130.56L-1192.98 5129.96C-1132.98 5104.62 -1064.47 5058.85 -986.762 5006.93C-645.709 4779.04 -127.435 4432.72 629.398 5173.7C1006 5476.77 1584.21 5296.39 2107.94 5133.01C2321.05 5066.53 2525.13 5002.87 2702.99 4975.72L2702.99 4976.27L2702.99 4976.27Z" fill="#007DC3" fill-opacity="0.1"/>
<path d="M2702.99 5008.37C2529.39 5031.81 2331.26 5088.2 2124.28 5147.12C1603.83 5295.28 1027.4 5459.36 643.742 5155.59L643.734 5155.59L643.719 5155.57C-81.7977 4453.82 -596.347 4793.76 -944.281 5023.63C-1039.29 5086.4 -1121.88 5140.95 -1192.98 5163.89L-1192.98 5163.31C-1122.02 5140.36 -1039.53 5085.87 -944.648 5023.19C-596.542 4793.21 -81.7276 4453.1 644.155 5155.19C1027.55 5458.75 1603.79 5294.71 2124.09 5146.6C2331.14 5087.66 2529.31 5031.26 2702.99 5007.81L2702.99 5008.36L2702.99 5008.37Z" fill="#007DC3" fill-opacity="0.1"/>
<path d="M2702.99 5040.25C2533.62 5060.02 2341.4 5109.38 2140.48 5160.99C1623.47 5293.8 1049.03 5441.37 658.508 5137.07L658.5 5137.07L658.485 5137.05C-37.0094 4472.99 -547.351 4807.53 -901.527 5039.71C-1014.14 5113.52 -1110.97 5176.99 -1192.99 5194.78L-1192.99 5194.22C-1111.12 5176.42 -1014.39 5113.01 -901.893 5039.27C-547.538 4806.98 -36.9392 4472.27 658.921 5136.66C1049.19 5440.75 1623.45 5293.24 2140.31 5160.47C2341.27 5108.84 2533.55 5059.47 2702.99 5039.7L2702.99 5040.25Z" fill="#007DC3" fill-opacity="0.1"/>
<path d="M2702.99 5071.88C2537.91 5088.02 2351.58 5130.61 2156.78 5175.14C1643.2 5292.54 1070.75 5423.39 673.289 5118.54L673.274 5118.53L673.266 5118.53C6.92938 4491.01 -498.504 4820.84 -858.141 5055.52C-988.703 5140.72 -1100.05 5213.38 -1192.98 5223.21L-1192.98 5222.66C-1100.23 5212.81 -988.961 5140.21 -858.508 5055.08C-498.691 4820.28 6.99154 4490.29 673.702 5118.14C1070.92 5422.79 1643.2 5291.97 2156.62 5174.61C2351.48 5130.07 2537.86 5087.47 2702.99 5071.33L2702.99 5071.88Z" fill="#007DC3" fill-opacity="0.1"/>
<path d="M2702.99 5103.3C2542.28 5115.86 2361.86 5151.89 2173.17 5189.58C1663.03 5291.5 1092.56 5405.46 688.055 5100.02L688.04 5100L688.04 5099.99C50.0422 4507.95 -449.82 4833.63 -814.148 5071.01C-957.224 5164.22 -1079.41 5243.84 -1180.93 5248.98C-1184.99 5249.18 -1189 5249.22 -1192.98 5249.19L-1192.98 5248.65C-1189 5248.69 -1185.01 5248.64 -1180.96 5248.44C-1079.63 5243.31 -957.504 5163.74 -814.506 5070.57C-449.991 4833.08 50.1124 4507.24 688.476 5099.61C1092.75 5404.87 1663.05 5290.94 2173.05 5189.05C2361.77 5151.35 2542.23 5115.31 2702.99 5102.75L2702.99 5103.3L2702.99 5103.3Z" fill="#007DC3" fill-opacity="0.1"/>
<path d="M2702.99 5134.45C2546.73 5143.49 2372.23 5173.23 2189.71 5204.33C1682.99 5290.69 1114.49 5387.58 702.829 5081.49L702.821 5081.49L702.805 5081.47C92.4072 4523.88 -401.252 4845.88 -769.539 5086.1C-919.791 5184.11 -1049.18 5268.51 -1157.2 5274.1C-1169.41 5274.73 -1181.34 5274.33 -1192.99 5272.86L-1192.99 5272.3C-1181.35 5273.78 -1169.44 5274.18 -1157.24 5273.55C-1049.41 5267.98 -920.079 5183.62 -769.913 5085.66C-401.447 4845.32 92.4618 4523.15 703.218 5081.08C1114.66 5386.99 1682.99 5290.13 2189.58 5203.8C2372.13 5172.68 2546.67 5142.94 2702.97 5133.9L2702.97 5134.44L2702.99 5134.45Z" fill="#007DC3" fill-opacity="0.1"/>
<path d="M2702.99 5165.36C2551.28 5170.96 2382.74 5194.63 2206.44 5219.41C1703.1 5290.15 1136.54 5369.77 717.602 5062.98L717.587 5062.96C134.063 4538.82 -352.801 4857.55 -724.306 5100.75C-881.828 5203.87 -1018.62 5293.42 -1133.31 5299.46C-1153.92 5300.55 -1173.81 5298.89 -1192.98 5294.17L-1192.98 5293.61C-1173.82 5298.33 -1153.95 5300 -1133.35 5298.91C-1018.83 5292.88 -882.102 5203.38 -724.665 5100.31C-352.981 4856.99 134.125 4538.11 718.015 5062.56C1136.74 5369.19 1703.14 5289.59 2206.36 5218.87C2382.69 5194.1 2551.24 5170.42 2703 5164.81L2703 5165.36L2702.99 5165.36Z" fill="#007DC3" fill-opacity="0.1"/>
<path d="M2702.99 5195.99C2555.93 5198.24 2393.41 5216.11 2223.41 5234.83C1723.41 5289.86 1158.75 5352.01 732.384 5044.45L732.368 5044.44L732.368 5044.43C175.033 4552.82 -304.476 4868.57 -678.474 5114.85C-843.352 5223.43 -987.737 5318.5 -1109.32 5325.02C-1138.54 5326.59 -1166.44 5323.03 -1192.98 5313.33L-1192.98 5312.74C-1166.45 5322.47 -1138.57 5326.04 -1109.36 5324.48C-987.963 5317.97 -843.641 5222.94 -678.841 5114.41C-304.663 4868.01 175.08 4552.1 732.781 5044.04C1158.94 5351.44 1723.47 5289.3 2223.33 5234.28C2393.36 5215.57 2555.9 5197.69 2702.99 5195.44L2702.99 5195.98L2702.99 5195.99Z" fill="#007DC3" fill-opacity="0.1"/>
<path d="M2702.99 5226.34C2560.72 5225.33 2404.28 5237.69 2240.66 5250.62C1743.97 5289.86 1181.12 5334.34 747.157 5025.93L747.149 5025.93L747.141 5025.92C215.364 4565.92 -256.228 4878.95 -632.003 5128.36C-804.345 5242.76 -956.538 5343.78 -1085.22 5350.79C-1123.23 5352.87 -1159.18 5346.73 -1192.98 5330.32L-1192.98 5329.7C-1159.19 5346.15 -1123.25 5352.32 -1085.26 5350.25C-956.764 5343.24 -804.641 5242.27 -632.377 5127.93C-256.423 4878.38 215.403 4565.21 747.554 5025.51C1181.32 5333.78 1744.04 5289.31 2240.62 5250.08C2404.25 5237.15 2560.7 5224.79 2703 5225.8L2703 5226.34L2702.99 5226.34Z" fill="#007DC3" fill-opacity="0.1"/>
<path d="M2702.99 5256.41C2565.65 5252.26 2415.41 5259.37 2258.3 5266.81C1764.84 5290.19 1203.7 5316.78 761.931 5007.41L761.915 5007.4C255.08 4578.14 -208.081 4888.61 -584.908 5141.22C-764.809 5261.81 -925.042 5369.22 -1061.04 5376.74C-1107.98 5379.34 -1152.01 5370.02 -1192.97 5345.28L-1192.97 5344.62C-1152.03 5369.45 -1108.01 5378.8 -1061.07 5376.2C-925.261 5368.68 -765.097 5261.32 -585.274 5140.78C-208.261 4888.05 255.127 4577.43 762.336 5007C1203.92 5316.23 1764.93 5289.65 2258.27 5266.27C2415.39 5258.83 2565.64 5251.72 2703 5255.87L2703 5256.42L2702.99 5256.41Z" fill="#007DC3" fill-opacity="0.1"/>
<path d="M2702.99 5286.18C2570.77 5279.02 2426.85 5281.19 2276.41 5283.46C1786.1 5290.87 1226.53 5299.34 776.705 4988.89L776.689 4988.88C294.196 4589.5 -159.997 4897.53 -537.175 5153.32C-724.727 5280.52 -893.243 5394.8 -1036.81 5402.86C-1092.79 5406 -1144.96 5392.98 -1192.98 5358.3L-1192.98 5357.62C-1144.98 5392.4 -1092.82 5405.46 -1036.85 5402.32C-893.47 5394.27 -725.023 5280.03 -537.549 5152.89C-160.192 4896.97 294.235 4588.79 777.102 4988.47C1226.74 5298.79 1786.19 5290.33 2276.4 5282.92C2426.84 5280.64 2570.75 5278.47 2702.99 5285.63L2702.99 5286.18L2702.99 5286.18Z" fill="#007DC3" fill-opacity="0.1"/>
<path d="M2702.99 5315.64C2576.11 5305.62 2438.7 5303.18 2295.14 5300.63C1807.84 5291.97 1249.66 5282.07 791.47 4970.36L791.447 4970.35C332.742 4600.03 -111.999 4905.67 -488.802 5164.61C-684.108 5298.83 -861.164 5420.51 -1012.55 5429.12C-1077.67 5432.82 -1138 5415.55 -1193 5369.42L-1193 5368.7C-1138.03 5414.95 -1077.7 5432.27 -1012.59 5428.57C-861.398 5419.98 -684.404 5298.34 -489.184 5164.18C-112.194 4905.1 332.758 4599.32 791.844 4969.93C1249.89 5281.53 1807.95 5291.44 2295.15 5300.09C2438.7 5302.64 2576.11 5305.08 2702.99 5315.09L2702.99 5315.64L2702.99 5315.64Z" fill="#007DC3" fill-opacity="0.1"/>
<path d="M2702.99 5344.78C2581.73 5332.11 2451.08 5325.4 2314.66 5318.41C1830.24 5293.57 1273.18 5265 806.252 4951.85L806.236 4951.83C370.767 4609.76 -64.0083 4912.99 -439.713 5175.03C-642.857 5316.71 -828.734 5446.36 -988.22 5455.54C-1062.53 5459.81 -1131.09 5437.87 -1192.98 5378.87L-1192.98 5378.1C-1131.11 5437.26 -1062.57 5459.27 -988.258 5454.99C-828.968 5445.82 -643.161 5316.23 -440.095 5174.6C-64.2031 4912.43 370.783 4609.05 806.626 4951.41C1273.4 5264.46 1830.36 5293.03 2314.7 5317.86C2451.09 5324.85 2581.74 5331.56 2702.99 5344.23L2702.99 5344.78L2702.99 5344.78Z" fill="#007DC3" fill-opacity="0.1"/>
<path d="M2702.99 5373.59C2587.72 5358.48 2464.14 5347.92 2335.23 5336.9C1853.46 5295.73 1297.18 5248.2 821.017 4933.32L821.001 4933.31C408.246 4618.67 -16.0803 4919.45 -389.962 5184.47C-601.03 5334.08 -796.032 5472.3 -963.894 5482.08C-1047.46 5486.94 -1124.28 5459.95 -1192.98 5386.73L-1192.98 5385.92C-1124.3 5459.34 -1047.49 5486.4 -963.933 5481.53C-796.258 5471.76 -601.334 5333.59 -390.343 5184.04C-16.2751 4918.89 408.254 4617.97 821.391 4932.88C1297.41 5247.67 1853.6 5295.2 2335.28 5336.36C2464.18 5347.37 2587.73 5357.94 2702.99 5373.04L2702.99 5373.59Z" fill="#007DC3" fill-opacity="0.1"/>
<path d="M2702.99 5402.05C2594.17 5384.81 2478.12 5370.84 2357.19 5356.3C1877.8 5298.63 1321.82 5231.75 835.791 4914.8L835.775 4914.79C445.227 4626.79 31.8403 4924.99 -339.478 5192.85C-558.548 5350.88 -762.986 5498.35 -939.552 5508.74C-1032.41 5514.21 -1117.53 5481.68 -1192.98 5392.94L-1192.98 5392.08C-1117.54 5481.05 -1032.44 5513.66 -939.59 5508.2C-763.22 5497.81 -558.86 5350.4 -339.867 5192.42C31.6299 4924.44 445.219 4626.09 836.157 4914.36C1322.06 5231.23 1877.96 5298.1 2357.27 5355.75C2478.17 5370.3 2594.19 5384.26 2702.99 5401.49L2702.99 5402.05L2702.99 5402.05Z" fill="#007DC3" fill-opacity="0.1"/>
<path d="M2702.99 5430.15C2601.25 5411.15 2493.34 5394.33 2381.05 5376.84C1903.67 5302.46 1347.32 5215.78 850.564 4896.28L850.549 4896.27C481.717 4634.13 79.753 4929.58 -288.245 5200.07C-515.397 5367.03 -729.605 5524.48 -915.202 5535.52C-1017.37 5541.59 -1110.83 5503.23 -1192.98 5397.75L-1192.98 5396.85C-1110.86 5502.59 -1017.4 5541.05 -915.241 5534.97C-729.839 5523.95 -515.7 5366.55 -288.635 5199.64C79.5426 4929.03 481.701 4633.42 850.923 4895.83C1347.57 5215.26 1903.84 5301.93 2381.16 5376.3C2493.4 5393.79 2601.28 5410.6 2702.99 5429.59L2702.99 5430.15L2702.99 5430.15Z" fill="#007DC3" fill-opacity="0.1"/>
<path d="M2702.99 5457.87C2609.22 5437.61 2510.33 5418.62 2407.61 5398.91C1931.71 5307.55 1374.02 5200.49 865.338 4877.76L865.33 4877.76C517.731 4640.68 127.674 4933.16 -236.218 5206.03C-471.496 5382.46 -695.85 5550.69 -890.844 5562.4C-1002.33 5569.09 -1104.2 5524.62 -1192.98 5401.28L-1192.98 5400.34C-1104.22 5523.98 -1002.37 5568.55 -890.883 5561.85C-696.092 5550.15 -471.816 5381.98 -236.616 5205.61C127.463 4932.61 517.708 4639.98 865.704 4877.31C1374.28 5199.97 1931.89 5307.02 2407.75 5398.37C2510.41 5418.08 2609.25 5437.05 2702.99 5457.31L2702.99 5457.87Z" fill="#007DC3" fill-opacity="0.1"/>
<path d="M2702.99 5485.2C2618.48 5464.37 2529.9 5444.11 2438.14 5423.12C1962.92 5314.41 1402.47 5186.19 880.111 4859.24C553.27 4646.44 175.625 4935.67 -183.381 5210.62C-426.841 5397.07 -661.737 5576.97 -866.51 5589.38C-987.332 5596.7 -1097.63 5545.66 -1192.98 5403.35L-1192.98 5402.34C-1097.66 5544.99 -987.371 5596.15 -866.549 5588.84C-661.979 5576.44 -427.168 5396.6 -183.787 5210.2C175.399 4935.12 553.239 4645.74 880.47 4858.79C1402.74 5185.69 1963.13 5313.89 2438.29 5422.59C2530 5443.57 2618.53 5463.82 2702.99 5484.64L2702.99 5485.2Z" fill="#007DC3" fill-opacity="0.1"/>
<path d="M2702.99 5512.13C2629.73 5491.78 2553.49 5471.48 2474.78 5450.54C1999.09 5323.94 1433.63 5173.44 894.885 4840.72C588.349 4651.41 223.6 4937.04 -129.679 5213.69C-381.352 5410.78 -627.203 5603.3 -842.183 5616.45C-972.325 5624.4 -1091.11 5566.52 -1192.98 5404.22L-1192.98 5403.17C-1091.14 5565.84 -972.371 5623.86 -842.222 5615.9C-627.453 5602.78 -381.679 5410.31 -130.084 5213.29C223.374 4936.49 588.31 4650.71 895.243 4840.27C1433.9 5172.94 1999.32 5323.42 2474.96 5450.01C2553.6 5470.94 2629.79 5491.22 2702.99 5511.56L2702.99 5512.13L2702.99 5512.13Z" fill="#007DC3" fill-opacity="0.1"/>
<path d="M-1192.99 5717.73C-946.634 5812.7 -628.676 6045.58 -303.276 6283.94C-186.342 6369.58 -68.4573 6455.94 47.4324 6536.86C508.046 6858.48 936.798 7094.05 1146.96 6857.54C1954.39 5948.84 2427.75 5722.22 2702.98 5747.95L2702.98 5747.42C2427.51 5721.75 1953.93 5948.48 1146.47 6857.2C936.642 7093.34 508.163 6857.87 47.8142 6536.43C-68.0444 6455.52 -185.944 6369.17 -302.878 6283.51C-628.395 6045.07 -946.463 5812.11 -1192.99 5717.16L-1192.99 5717.74L-1192.99 5717.73Z" fill="#007DC3" fill-opacity="0.1"/>
<path d="M-1192.99 5752.78C-950.195 5844.14 -639.124 6065.64 -320.254 6292.72C258.594 6704.94 863.125 7135.45 1132.18 6839.02C1953.27 5919.73 2428.96 5725.64 2702.98 5776.54L2702.98 5775.87C2428.74 5725.04 1952.85 5919.32 1131.7 6838.68C863.032 7134.67 258.742 6704.34 -319.873 6292.29C-638.852 6065.13 -950.031 5843.55 -1192.99 5752.21L-1192.99 5752.78Z" fill="#007DC3" fill-opacity="0.1"/>
<path d="M-1192.99 5787.75C-953.771 5875.45 -649.535 6085.78 -337.132 6301.79C238.779 6700.01 842.298 7117.32 1117.41 6820.5C1951.75 5891.38 2429.93 5732.23 2702.98 5807.92L2702.98 5807.26C2429.71 5731.64 1951.31 5890.99 1116.92 6820.16C842.196 7116.56 238.92 6699.42 -336.758 6301.37C-649.262 6085.28 -953.616 5874.86 -1192.99 5787.18L-1192.99 5787.75Z" fill="#007DC3" fill-opacity="0.1"/>
<path d="M-1192.99 5822.54C-957.387 5906.56 -659.867 6106.02 -353.923 6311.15C219.003 6695.28 821.438 7099.19 1102.63 6801.98C1950.06 5863.55 2430.67 5742.54 2702.98 5842.5L2702.98 5841.84C2430.45 5741.94 1949.61 5863.18 1102.16 6801.64C821.345 7098.45 219.144 6694.69 -353.549 6310.72C-659.61 6105.51 -957.231 5905.98 -1192.99 5821.97L-1192.99 5822.54Z" fill="#007DC3" fill-opacity="0.1"/>
<path d="M-1192.99 5857.24C-961.026 5937.54 -670.168 6126.33 -370.614 6320.79C199.282 6690.74 800.548 7081.06 1087.86 6783.46C1947.85 5836.64 2431.08 5756.48 2702.98 5879.69L2702.98 5879.08C2430.81 5755.95 1947.33 5836.34 1087.39 6783.1C800.447 7080.32 199.414 6690.15 -370.255 6320.35C-669.911 6125.82 -960.878 5936.96 -1192.99 5856.66L-1192.99 5857.23L-1192.99 5857.24Z" fill="#007DC3" fill-opacity="0.1"/>
<path d="M-1192.99 5891.79C-964.688 5968.35 -680.414 6146.71 -387.226 6330.7C179.599 6686.39 779.626 7062.93 1073.09 6764.94C1945.11 5810.69 2431.1 5774.4 2702.98 5919.48L2702.98 5918.84C2430.82 5773.83 1944.56 5810.42 1072.61 6764.58C779.517 7062.2 179.724 6685.81 -386.883 6330.25C-680.165 6146.2 -964.54 5967.77 -1192.99 5891.22L-1192.99 5891.79Z" fill="#007DC3" fill-opacity="0.1"/>
<path d="M-1192.99 5926.17C-968.381 5998.97 -690.606 6167.18 -403.753 6340.88C159.956 6682.23 758.682 7044.79 1058.31 6746.42L1058.31 6746.41C1941.78 5785.76 2430.7 5796.38 2702.98 5961.56L2702.98 5960.9C2430.42 5795.79 1941.24 5785.48 1057.85 6746.05C758.581 7044.07 160.088 6681.65 -403.41 6340.42C-690.364 6166.66 -968.241 5998.4 -1192.99 5925.6L-1192.99 5926.18L-1192.99 5926.17Z" fill="#007DC3" fill-opacity="0.1"/>
<path d="M-1192.99 5960.46C-972.098 6029.48 -700.774 6187.69 -420.21 6351.33C140.344 6678.27 737.691 7026.66 1043.54 6727.9L1043.54 6727.89C1937.6 5762.12 2429.8 5822.4 2702.98 6005.39L2702.98 6004.7C2429.51 5821.76 1937.05 5761.86 1043.09 6727.53C737.597 7025.94 140.476 6677.69 -419.867 6350.88C-700.541 6187.18 -971.966 6028.91 -1192.99 5959.9L-1192.99 5960.46Z" fill="#007DC3" fill-opacity="0.1"/>
<path d="M-1192.99 5994.56C-975.854 6059.78 -710.896 6208.29 -436.588 6362.05C120.778 6674.48 716.676 7008.51 1028.77 6709.37L1028.78 6709.36C1932.56 5739.82 2428.36 5852.51 2702.98 6050.64L2702.98 6049.94C2428.07 5851.83 1931.99 5739.56 1028.31 6709.01C716.559 7007.8 120.887 6673.9 -436.261 6361.59C-710.662 6207.77 -975.721 6059.21 -1192.99 5994L-1192.99 5994.56Z" fill="#007DC3" fill-opacity="0.1"/>
<path d="M-1192.99 6028.53C-979.633 6089.94 -720.987 6228.94 -452.905 6373.03C101.236 6670.89 695.621 6990.38 1014 6690.85L1014.02 6690.84C1913.75 5732.58 2412.38 5882.19 2691.35 6088.03C2695.28 6090.93 2699.15 6093.83 2702.99 6096.74L2702.99 6096.02C2699.28 6093.21 2695.54 6090.4 2691.74 6087.6C2412.57 5881.62 1913.63 5731.86 1013.55 6690.47C695.513 6989.67 101.345 6670.31 -452.585 6372.56C-720.769 6228.42 -979.5 6089.36 -1192.99 6027.97L-1192.99 6028.53Z" fill="#007DC3" fill-opacity="0.1"/>
<path d="M-1192.99 6062.34C-983.435 6119.92 -731.054 6249.64 -469.166 6384.28C81.717 6667.48 674.529 6972.24 999.22 6672.33L999.235 6672.32C1919.13 5699.99 2423.66 5924.7 2702.98 6143.35L2702.98 6142.61C2423.41 5923.92 1918.62 5699.67 998.768 6671.96C674.404 6971.55 81.8183 6666.9 -468.863 6383.8C-730.836 6249.13 -983.319 6119.35 -1192.99 6061.77L-1192.99 6062.34L-1192.99 6062.34Z" fill="#007DC3" fill-opacity="0.1"/>
<path d="M-1192.99 6095.96C-987.285 6149.72 -741.09 6270.41 -485.374 6395.79C62.2137 6664.27 653.397 6954.12 984.446 6653.81L984.462 6653.8C1910.6 5682.62 2420.37 5966.54 2702.98 6189.88L2702.98 6189.15C2420.13 5965.72 1910.11 5682.29 983.994 6653.44C653.272 6953.43 62.3072 6663.69 -485.085 6395.31C-740.88 6269.89 -987.16 6149.15 -1192.99 6095.4L-1192.99 6095.96L-1192.99 6095.96Z" fill="#007DC3" fill-opacity="0.1"/>
<path d="M-1192.99 6129.44C-991.157 6179.36 -751.11 6291.22 -501.542 6407.54C42.7339 6661.23 632.226 6935.98 969.673 6635.29L969.688 6635.27C1900.74 5667.03 2416.44 6011.93 2702.98 6235.88L2702.98 6235.16C2416.19 6011.07 1900.25 5666.72 969.228 6634.91C632.094 6935.31 42.8196 6660.65 -501.254 6407.06C-750.916 6290.7 -991.04 6178.8 -1192.99 6128.88L-1192.99 6129.44Z" fill="#007DC3" fill-opacity="0.1"/>
<path d="M-1192.99 6162.71C-995.069 6208.81 -761.115 6312.1 -517.671 6419.57C23.254 6658.38 611.009 6917.87 954.899 6616.77L954.915 6616.75C1882.84 5660.19 2404.49 6055.02 2696.83 6276.29L2702.98 6280.95L2702.98 6280.23L2697.23 6275.88C2404.72 6054.48 1882.78 5659.42 954.455 6616.39C610.876 6917.21 23.3319 6657.82 -517.399 6419.09C-760.921 6311.57 -994.96 6208.24 -1192.99 6162.15L-1192.99 6162.71Z" fill="#007DC3" fill-opacity="0.1"/>
<path d="M-1192.99 6195.84C-999.012 6238.12 -771.12 6333 -533.769 6431.85C3.78969 6655.73 589.745 6899.76 940.125 6598.24L940.141 6598.23C1831.2 5688.1 2354.24 6070.15 2658.2 6292.17C2673.69 6303.49 2688.61 6314.38 2702.98 6324.68L2702.98 6323.97C2688.73 6313.76 2673.94 6302.96 2658.59 6291.75C2354.47 6069.61 1831.13 5687.34 939.689 6597.85C589.612 6899.09 3.85979 6655.14 -533.512 6431.35C-770.941 6332.48 -998.902 6237.55 -1192.99 6195.28L-1192.99 6195.84L-1192.99 6195.84Z" fill="#007DC3" fill-opacity="0.1"/>
<path d="M-1192.99 6228.75C-1002.99 6267.21 -781.109 6353.97 -549.86 6444.39C-15.6902 6653.25 568.426 6881.65 925.352 6579.72L925.367 6579.71C1780.96 5714.26 2304.23 6085.29 2618.8 6308.33C2648.71 6329.54 2676.73 6349.41 2702.98 6366.76L2702.98 6366.08C2676.85 6348.8 2648.96 6329.02 2619.19 6307.91C2304.45 6084.74 1780.89 5713.51 924.923 6579.33C568.301 6881.01 -15.6201 6652.69 -549.611 6443.89C-780.938 6353.44 -1002.9 6266.66 -1192.99 6228.19L-1192.99 6228.75Z" fill="#007DC3" fill-opacity="0.1"/>
<path d="M-1192.99 6261.49C-1007.02 6296.16 -791.122 6374.97 -565.935 6457.19C-35.1779 6650.98 547.068 6863.57 910.586 6561.21L910.602 6561.19C1732.01 5738.8 2254.46 6100.31 2578.69 6324.67C2623.87 6355.93 2665.21 6384.54 2702.98 6406.91L2702.98 6406.25C2665.33 6383.92 2624.11 6355.41 2579.07 6324.24C2254.67 6099.76 1731.94 5738.06 910.157 6560.82C546.936 6862.93 -35.1156 6650.42 -565.701 6456.69C-790.959 6374.44 -1006.93 6295.6 -1192.99 6260.93L-1192.99 6261.49Z" fill="#007DC3" fill-opacity="0.1"/>
<path d="M-1192.99 6294C-1011.1 6324.9 -801.135 6396.02 -582.025 6470.25C-54.6891 6648.9 525.64 6845.5 895.804 6542.68L895.82 6542.66C1684.22 5761.84 2204.88 6115.12 2537.87 6341.05C2599.08 6382.57 2653.94 6419.8 2702.98 6444.91L2702.98 6444.28C2654.06 6419.19 2599.3 6382.05 2538.25 6340.62C2205.09 6114.56 1684.15 5761.1 895.376 6542.28C525.492 6844.86 -54.6502 6648.33 -581.815 6469.74C-800.987 6395.49 -1011.01 6324.35 -1192.99 6293.45L-1192.99 6294Z" fill="#007DC3" fill-opacity="0.1"/>
<path d="M-1192.99 6326.33C-1015.21 6353.48 -811.186 6417.11 -598.131 6483.58C-74.2314 6647.01 504.158 6827.44 881.031 6524.16L881.047 6524.14C1637.5 5783.5 2155.52 6129.64 2496.4 6357.42C2574.24 6409.44 2642.85 6455.28 2702.98 6480.62L2702.98 6480.01C2642.98 6454.67 2574.47 6408.9 2496.76 6356.98C2155.71 6129.09 1637.43 5782.77 880.602 6523.76C504.002 6826.82 -74.208 6646.44 -597.944 6483.06C-811.046 6416.58 -1015.13 6352.93 -1192.99 6325.77L-1192.99 6326.32L-1192.99 6326.33Z" fill="#007DC3" fill-opacity="0.1"/>
<path d="M-1192.99 6358.42C-1019.39 6381.86 -821.261 6438.25 -614.284 6497.18C-93.8279 6645.33 482.597 6809.42 866.258 6505.64L866.266 6505.64L866.281 6505.62C1591.8 5803.88 2106.35 6143.82 2454.28 6373.68C2549.29 6436.45 2631.88 6491.01 2702.98 6513.95L2702.98 6513.37C2632.02 6490.42 2549.53 6435.93 2454.65 6373.24C2106.54 6143.26 1591.73 5803.15 865.845 6505.24C482.449 6808.8 -93.789 6644.77 -614.089 6496.65C-821.137 6437.71 -1019.31 6381.31 -1192.99 6357.87L-1192.99 6358.42L-1192.99 6358.42Z" fill="#007DC3" fill-opacity="0.1"/>
<path d="M-1192.99 6390.3C-1023.62 6410.07 -831.399 6459.43 -630.483 6511.04C-113.472 6643.85 460.975 6791.42 851.492 6487.12L851.5 6487.12L851.515 6487.11C1547.01 5823.05 2057.35 6157.59 2411.53 6389.76C2524.14 6463.58 2620.97 6527.05 2702.99 6544.84L2702.99 6544.28C2621.12 6526.47 2524.39 6463.06 2411.89 6389.32C2057.54 6157.03 1546.94 5822.32 851.079 6486.72C460.811 6790.81 -113.448 6643.29 -630.312 6510.52C-831.274 6458.9 -1023.55 6409.52 -1192.99 6389.76L-1192.99 6390.3Z" fill="#007DC3" fill-opacity="0.1"/>
<path d="M-1192.99 6421.94C-1027.91 6438.07 -841.583 6480.66 -646.776 6525.19C-133.201 6642.59 439.251 6773.45 836.711 6468.6L836.726 6468.59L836.734 6468.59C1503.07 5841.07 2008.5 6170.89 2368.14 6405.58C2498.7 6490.77 2610.05 6563.43 2702.98 6573.27L2702.98 6572.72C2610.23 6562.87 2498.96 6490.27 2368.51 6405.14C2008.69 6170.33 1503.01 5840.35 836.298 6468.19C439.079 6772.85 -133.201 6642.03 -646.62 6524.67C-841.482 6480.12 -1027.86 6437.52 -1192.99 6421.39L-1192.99 6421.94Z" fill="#007DC3" fill-opacity="0.1"/>
<path d="M-1192.99 6453.35C-1032.28 6465.91 -851.86 6501.94 -663.17 6539.63C-153.031 6641.55 417.441 6755.51 821.945 6450.07L821.96 6450.06L821.96 6450.05C1459.96 5858 1959.82 6183.68 2324.15 6421.06C2467.22 6514.28 2589.41 6593.89 2690.93 6599.03C2694.99 6599.23 2699 6599.28 2702.98 6599.24L2702.98 6598.7C2699 6598.74 2695.01 6598.69 2690.96 6598.49C2589.63 6593.36 2467.5 6513.79 2324.51 6420.63C1959.99 6183.13 1459.89 5857.29 821.524 6449.67C417.254 6754.93 -153.047 6640.99 -663.046 6539.11C-851.767 6501.4 -1032.23 6465.36 -1192.99 6452.81L-1192.99 6453.36L-1192.99 6453.35Z" fill="#007DC3" fill-opacity="0.1"/>
<path d="M-1192.99 6484.5C-1036.73 6493.55 -862.232 6523.28 -679.713 6554.39C-172.987 6640.75 395.514 6737.64 807.171 6431.55L807.179 6431.55L807.195 6431.53C1417.59 5873.93 1911.25 6195.93 2279.54 6436.16C2429.79 6534.16 2559.18 6618.56 2667.2 6624.15C2679.41 6624.78 2691.34 6624.39 2702.99 6622.91L2702.99 6622.36C2691.35 6623.84 2679.44 6624.24 2667.24 6623.61C2559.41 6618.03 2430.08 6533.67 2279.91 6435.72C1911.45 6195.37 1417.54 5873.21 806.782 6431.13C395.343 6737.05 -172.994 6640.19 -679.58 6553.85C-862.13 6522.73 -1036.67 6493 -1192.97 6483.95L-1192.97 6484.49L-1192.99 6484.5Z" fill="#007DC3" fill-opacity="0.1"/>
<path d="M-1192.99 6515.41C-1041.28 6521.01 -872.743 6544.69 -696.442 6569.47C-193.097 6640.2 373.456 6719.82 792.398 6413.03L792.413 6413.01C1375.94 5888.88 1862.8 6207.6 2234.31 6450.8C2391.83 6553.92 2528.62 6643.47 2643.31 6649.51C2663.92 6650.6 2683.81 6648.94 2702.98 6644.23L2702.98 6643.66C2683.82 6648.39 2663.95 6650.05 2643.35 6648.97C2528.83 6642.94 2392.1 6553.43 2234.67 6450.37C1862.98 6207.05 1375.87 5888.17 791.985 6412.61C373.261 6719.24 -193.144 6639.65 -696.356 6568.93C-872.688 6544.15 -1041.24 6520.47 -1193 6514.87L-1193 6515.41L-1192.99 6515.41Z" fill="#007DC3" fill-opacity="0.1"/>
<path d="M-1192.99 6546.04C-1045.93 6548.29 -883.41 6566.17 -713.405 6584.88C-213.411 6639.91 351.249 6702.06 777.616 6394.51L777.632 6394.5L777.632 6394.48C1334.97 5902.87 1814.48 6218.63 2188.47 6464.91C2353.35 6573.48 2497.74 6668.56 2619.32 6675.08C2648.54 6676.65 2676.44 6673.08 2702.98 6663.38L2702.98 6662.79C2676.45 6672.52 2648.57 6676.1 2619.36 6674.53C2497.96 6668.02 2353.64 6572.99 2188.84 6464.47C1814.66 6218.07 1334.92 5902.16 777.219 6394.09C351.062 6701.49 -213.466 6639.36 -713.327 6584.34C-883.355 6565.62 -1045.9 6547.74 -1192.99 6545.49L-1192.99 6546.04L-1192.99 6546.04Z" fill="#007DC3" fill-opacity="0.1"/>
<path d="M-1192.99 6576.39C-1050.72 6575.38 -894.28 6587.74 -730.664 6600.67C-233.974 6639.92 328.878 6684.39 762.843 6375.99L762.851 6375.99L762.859 6375.97C1294.64 5915.97 1766.23 6229 2142 6478.42C2314.35 6592.81 2466.54 6693.83 2595.22 6700.85C2633.23 6702.92 2669.18 6696.78 2702.98 6680.37L2702.98 6679.75C2669.19 6696.21 2633.25 6702.37 2595.26 6700.3C2466.76 6693.3 2314.64 6592.32 2142.38 6477.98C1766.42 6228.44 1294.6 5915.26 762.446 6375.57C328.675 6683.83 -234.044 6639.37 -730.618 6600.13C-894.249 6587.2 -1050.7 6574.84 -1193 6575.85L-1193 6576.4L-1192.99 6576.39Z" fill="#007DC3" fill-opacity="0.1"/>
<path d="M-1192.99 6606.47C-1055.65 6602.31 -905.407 6609.42 -748.298 6616.86C-254.841 6640.24 306.297 6666.83 748.069 6357.46L748.085 6357.45C1254.92 5928.2 1718.08 6238.67 2094.91 6491.27C2274.81 6611.86 2435.04 6719.28 2571.04 6726.8C2617.98 6729.39 2662.01 6720.08 2702.97 6695.33L2702.97 6694.68C2662.03 6719.5 2618.01 6728.85 2571.07 6726.25C2435.26 6718.74 2275.1 6611.37 2095.27 6490.84C1718.26 6238.11 1254.87 5927.48 747.664 6357.05C306.078 6666.28 -254.927 6639.7 -748.274 6616.33C-905.391 6608.88 -1055.64 6601.77 -1193 6605.93L-1193 6606.47L-1192.99 6606.47Z" fill="#007DC3" fill-opacity="0.1"/>
<path d="M-1192.99 6636.24C-1060.77 6629.07 -916.853 6631.24 -766.414 6633.52C-276.097 6640.93 283.466 6649.39 733.295 6338.94L733.311 6338.93C1215.8 5939.56 1670 6247.59 2047.17 6503.38C2234.73 6630.57 2403.24 6744.86 2546.81 6752.91C2602.79 6756.05 2654.96 6743.04 2702.98 6708.35L2702.98 6707.68C2654.98 6742.45 2602.82 6755.51 2546.85 6752.37C2403.47 6744.32 2235.02 6630.08 2047.55 6502.94C1670.19 6247.02 1215.77 5938.85 732.898 6338.52C283.256 6648.85 -276.191 6640.38 -766.398 6632.97C-916.838 6630.69 -1060.75 6628.53 -1192.99 6635.69L-1192.99 6636.23L-1192.99 6636.24Z" fill="#007DC3" fill-opacity="0.1"/>
<path d="M-1192.99 6665.69C-1066.11 6655.67 -928.705 6653.23 -785.138 6650.68C-297.845 6642.03 260.34 6632.12 718.53 6320.42L718.553 6320.4C1177.26 5950.09 1622 6255.72 1998.8 6514.67C2194.11 6648.89 2371.16 6770.57 2522.55 6779.17C2587.67 6782.87 2648 6765.6 2703 6719.47L2703 6718.75C2648.03 6765 2587.7 6782.33 2522.59 6778.63C2371.4 6770.03 2194.4 6648.4 1999.18 6514.23C1622.19 6255.16 1177.24 5949.37 718.156 6319.98C260.114 6631.58 -297.954 6641.49 -785.154 6650.14C-928.705 6652.69 -1066.11 6655.13 -1192.99 6665.15L-1192.99 6665.7L-1192.99 6665.69Z" fill="#007DC3" fill-opacity="0.1"/>
<path d="M-1192.99 6694.84C-1071.73 6682.16 -941.078 6675.46 -804.665 6668.46C-320.239 6643.62 236.823 6615.06 703.748 6301.9L703.764 6301.88C1139.23 5959.81 1574.01 6263.04 1949.71 6525.08C2152.86 6666.76 2338.73 6796.41 2498.22 6805.59C2572.53 6809.87 2641.09 6787.92 2702.98 6728.93L2702.98 6728.16C2641.11 6787.31 2572.57 6809.32 2498.26 6805.05C2338.97 6795.88 2153.16 6666.28 1950.09 6524.65C1574.2 6262.49 1139.22 5959.11 703.374 6301.46C236.597 6614.52 -320.356 6643.08 -804.696 6667.91C-941.094 6674.91 -1071.74 6681.61 -1192.99 6694.28L-1192.99 6694.83L-1192.99 6694.84Z" fill="#007DC3" fill-opacity="0.1"/>
<path d="M-1192.99 6723.64C-1077.72 6708.54 -954.138 6697.97 -825.228 6686.96C-343.459 6645.78 212.817 6598.25 688.983 6283.37L688.999 6283.36C1101.75 5968.72 1526.08 6269.5 1899.96 6534.52C2111.03 6684.13 2306.03 6822.36 2473.89 6832.13C2557.46 6837 2634.28 6810 2702.98 6736.78L2702.98 6735.98C2634.3 6809.39 2557.49 6836.45 2473.93 6831.58C2306.26 6821.82 2111.33 6683.65 1900.34 6534.09C1526.28 6268.94 1101.75 5968.02 688.609 6282.93C212.591 6597.72 -343.599 6645.25 -825.282 6686.41C-954.177 6697.43 -1077.73 6707.99 -1192.99 6723.09L-1192.99 6723.64Z" fill="#007DC3" fill-opacity="0.1"/>
<path d="M-1192.99 6752.11C-1084.17 6734.87 -968.116 6720.9 -847.185 6706.35C-367.801 6648.68 188.178 6581.8 674.209 6264.85L674.225 6264.84C1064.77 5976.85 1478.16 6275.05 1849.48 6542.9C2068.55 6700.93 2272.99 6848.4 2449.55 6858.79C2542.41 6864.26 2627.53 6831.74 2702.98 6742.99L2702.98 6742.14C2627.54 6831.11 2542.44 6863.72 2449.59 6858.25C2273.22 6847.87 2068.86 6700.45 1849.87 6542.48C1478.37 6274.49 1064.78 5976.15 673.843 6264.41C187.937 6581.28 -367.957 6648.15 -847.271 6705.81C-968.171 6720.35 -1084.19 6734.31 -1192.99 6751.54L-1192.99 6752.1L-1192.99 6752.11Z" fill="#007DC3" fill-opacity="0.1"/>
<path d="M-1192.99 6780.2C-1091.25 6761.2 -983.342 6744.38 -871.052 6726.89C-393.67 6652.52 162.683 6565.83 659.436 6246.33L659.451 6246.32C1028.28 5984.18 1430.25 6279.63 1798.25 6550.12C2025.4 6717.08 2239.61 6874.53 2425.2 6885.57C2527.37 6891.65 2620.83 6853.28 2702.98 6747.8L2702.98 6746.9C2620.86 6852.64 2527.4 6891.1 2425.24 6885.02C2239.84 6874 2025.7 6716.6 1798.64 6549.7C1430.46 6279.08 1028.3 5983.48 659.077 6245.89C162.434 6565.32 -393.842 6651.98 -871.161 6726.35C-983.404 6743.84 -1091.28 6760.65 -1192.99 6779.64L-1192.99 6780.21L-1192.99 6780.2Z" fill="#007DC3" fill-opacity="0.1"/>
<path d="M-1192.99 6807.93C-1099.22 6787.66 -1000.33 6768.67 -897.615 6748.96C-421.706 6657.6 135.98 6550.54 644.662 6227.81L644.67 6227.81C992.269 5990.73 1382.33 6283.21 1746.22 6556.08C1981.5 6732.51 2205.85 6900.74 2400.84 6912.45C2512.33 6919.15 2614.2 6874.67 2702.98 6751.33L2702.98 6750.39C2614.22 6874.03 2512.37 6918.6 2400.88 6911.9C2206.09 6900.21 1981.82 6732.03 1746.62 6555.66C1382.54 6282.66 992.292 5990.03 644.296 6227.36C135.723 6550.03 -421.893 6657.07 -897.747 6748.43C-1000.41 6768.13 -1099.25 6787.11 -1192.99 6807.37L-1192.99 6807.93Z" fill="#007DC3" fill-opacity="0.1"/>
<path d="M-1192.99 6835.26C-1108.48 6814.43 -1019.9 6794.16 -928.136 6773.17C-452.92 6664.46 107.532 6536.24 629.889 6209.29C956.73 5996.49 1334.37 6285.72 1693.38 6560.67C1936.84 6747.13 2171.74 6927.02 2376.51 6939.43C2497.33 6946.75 2607.63 6895.72 2702.98 6753.4L2702.98 6752.4C2607.66 6895.04 2497.37 6946.21 2376.55 6938.89C2171.98 6926.49 1937.17 6746.66 1693.79 6560.26C1334.6 6285.17 956.761 5995.8 629.53 6208.84C107.259 6535.74 -453.131 6663.94 -928.292 6772.64C-1020 6793.62 -1108.53 6813.88 -1192.99 6834.69L-1192.99 6835.26Z" fill="#007DC3" fill-opacity="0.1"/>
<path d="M-1192.99 6862.19C-1119.73 6841.83 -1043.49 6821.54 -964.781 6800.59C-489.09 6673.99 76.3717 6523.49 615.115 6190.77C921.651 6001.46 1286.4 6287.09 1639.68 6563.75C1891.35 6760.83 2137.2 6953.36 2352.18 6966.5C2482.32 6974.46 2601.11 6916.57 2702.98 6754.28L2702.98 6753.23C2601.14 6915.9 2482.37 6973.91 2352.22 6965.96C2137.45 6952.83 1891.68 6760.36 1640.08 6563.34C1286.63 6286.55 921.69 6000.77 614.757 6190.32C76.099 6522.99 -489.316 6673.47 -964.961 6800.06C-1043.6 6820.99 -1119.79 6841.27 -1192.99 6861.61L-1192.99 6862.18L-1192.99 6862.19Z" fill="#007DC3" fill-opacity="0.1"/>
<g clip-path="url(#clip1_7835_33597)">
<g opacity="0.8" filter="url(#filter0_f_7835_33597)">
<ellipse cx="655.62" cy="723.96" rx="655.62" ry="723.96" transform="matrix(0.574599 0.818435 0.904546 -0.426377 911.719 -696.016)" fill="#F78E1E"/>
</g>
<g opacity="0.6" filter="url(#filter1_f_7835_33597)">
<ellipse cx="535.46" cy="591.275" rx="535.46" ry="591.275" transform="matrix(0.574599 0.818435 0.904546 -0.426377 1208 635.212)" fill="#007DC3"/>
</g>
<g opacity="0.6" filter="url(#filter2_f_7835_33597)">
<ellipse cx="535.46" cy="591.275" rx="535.46" ry="591.275" transform="matrix(0.574599 0.818435 0.904546 -0.426377 -1462 635.212)" fill="#007DC3"/>
</g>
</g>
<rect y="6256" width="1440" height="1049" fill="url(#paint0_linear_7835_33597)"/>
<g clip-path="url(#clip2_7835_33597)">
<rect width="3047" height="1440" transform="matrix(0 -1 1 0 0 10352)" fill="white"/>
<g opacity="0.8" filter="url(#filter3_f_7835_33597)">
<ellipse cx="833.338" cy="592.657" rx="833.338" ry="592.657" transform="matrix(0.966964 -0.254912 -0.782168 -0.623067 -1316.89 8753.39)" fill="#F78E1E"/>
</g>
<g opacity="0.5" filter="url(#filter4_f_7835_33597)">
<ellipse cx="680.607" cy="484.037" rx="680.607" ry="484.037" transform="matrix(0.966964 -0.254912 -0.782168 -0.623067 1837.2 8616.16)" fill="#007DC3"/>
</g>
</g>
</g>
<defs>
<filter id="filter0_f_7835_33597" x="703.684" y="-1571.25" width="2479.22" height="2206.28" filterUnits="userSpaceOnUse" color-interpolation-filters="sRGB">
<feFlood flood-opacity="0" result="BackgroundImageFix"/>
<feBlend mode="normal" in="SourceGraphic" in2="BackgroundImageFix" result="shape"/>
<feGaussianBlur stdDeviation="242" result="effect1_foregroundBlur_7835_33597"/>
</filter>
<filter id="filter1_f_7835_33597" x="949.387" y="-168.32" width="2202.25" height="1979.33" filterUnits="userSpaceOnUse" color-interpolation-filters="sRGB">
<feFlood flood-opacity="0" result="BackgroundImageFix"/>
<feBlend mode="normal" in="SourceGraphic" in2="BackgroundImageFix" result="shape"/>
<feGaussianBlur stdDeviation="242" result="effect1_foregroundBlur_7835_33597"/>
</filter>
<filter id="filter2_f_7835_33597" x="-1720.61" y="-168.32" width="2202.25" height="1979.33" filterUnits="userSpaceOnUse" color-interpolation-filters="sRGB">
<feFlood flood-opacity="0" result="BackgroundImageFix"/>
<feBlend mode="normal" in="SourceGraphic" in2="BackgroundImageFix" result="shape"/>
<feGaussianBlur stdDeviation="242" result="effect1_foregroundBlur_7835_33597"/>
</filter>
<filter id="filter3_f_7835_33597" x="-2388.42" y="7261.62" width="2827.57" height="1820.16" filterUnits="userSpaceOnUse" color-interpolation-filters="sRGB">
<feFlood flood-opacity="0" result="BackgroundImageFix"/>
<feBlend mode="normal" in="SourceGraphic" in2="BackgroundImageFix" result="shape"/>
<feGaussianBlur stdDeviation="242" result="effect1_foregroundBlur_7835_33597"/>
</filter>
<filter id="filter4_f_7835_33597" x="873.341" y="7309.09" width="2486.76" height="1663.98" filterUnits="userSpaceOnUse" color-interpolation-filters="sRGB">
<feFlood flood-opacity="0" result="BackgroundImageFix"/>
<feBlend mode="normal" in="SourceGraphic" in2="BackgroundImageFix" result="shape"/>
<feGaussianBlur stdDeviation="242" result="effect1_foregroundBlur_7835_33597"/>
</filter>
<linearGradient id="paint0_linear_7835_33597" x1="720" y1="6568.72" x2="720" y2="7305" gradientUnits="userSpaceOnUse">
<stop stop-color="white" stop-opacity="0"/>
<stop offset="0.448029" stop-color="white"/>
<stop offset="1" stop-color="white"/>
</linearGradient>
<clipPath id="clip0_7835_33597">
<rect width="1440" height="10352" fill="white"/>
</clipPath>
<clipPath id="clip1_7835_33597">
<rect width="1440" height="1667" fill="white"/>
</clipPath>
<clipPath id="clip2_7835_33597">
<rect width="3047" height="1440" fill="white" transform="matrix(0 -1 1 0 0 10352)"/>
</clipPath>
</defs>
</svg>
