<svg width="1200" height="242" viewBox="0 0 1200 242" fill="none" xmlns="http://www.w3.org/2000/svg">
<path fill-rule="evenodd" clip-rule="evenodd" d="M-109.523 42.0706C-108.411 41.4905 -107.291 40.9216 -106.16 40.3639C-107.454 40.6883 -108.738 41.0271 -110.011 41.3786C-111.173 41.834 -112.322 42.3023 -113.464 42.7817C-112.16 42.5308 -110.846 42.2943 -109.523 42.0706ZM-117.229 46.3612C-115.683 45.4456 -114.117 44.5523 -112.53 43.683C-114.414 44.0361 -116.28 44.4164 -118.125 44.8239L-118.898 45.1771C-120.277 45.8163 -121.642 46.4699 -122.994 47.1411C-121.093 46.855 -119.171 46.5929 -117.229 46.3612ZM-92.6561 36.4551C-91.5442 35.875 -90.4241 35.3062 -89.2928 34.7484C-90.5873 35.0728 -91.8705 35.4116 -93.1442 35.7632C-94.3058 36.2202 -95.4546 36.6868 -96.5969 37.1662C-95.293 36.9154 -93.9794 36.6788 -92.6561 36.4551ZM-100.362 40.7458C-98.8162 39.8301 -97.2498 38.9368 -95.6641 38.0675C-97.549 38.4207 -99.4144 38.801 -101.259 39.2085L-102.032 39.5617C-103.411 40.2009 -104.776 40.8545 -106.126 41.5256C-104.224 41.2396 -102.304 40.9775 -100.362 40.7458ZM-107.863 45.4664C-106.136 44.3142 -104.381 43.1908 -102.6 42.0961C-104.819 42.3902 -107.013 42.7194 -109.179 43.0853C-111.019 44.0489 -112.834 45.0444 -114.621 46.0672C-112.395 45.8307 -110.142 45.6293 -107.864 45.4664H-107.863ZM-115.154 50.6152C-113.346 49.2648 -111.504 47.9481 -109.63 46.6633C-112.077 46.8614 -114.494 47.1011 -116.878 47.3855C-118.813 48.5345 -120.717 49.7219 -122.587 50.9396C-120.139 50.7893 -117.663 50.6807 -115.154 50.6152ZM-75.7891 30.8413C-74.677 30.2612 -73.557 29.6923 -72.4258 29.1346C-73.7202 29.459 -75.0034 29.7978 -76.277 30.1493C-77.4386 30.6064 -78.5874 31.073 -79.7299 31.5524C-78.4258 31.3015 -77.1122 31.065 -75.7891 30.8413ZM-83.4946 35.132C-81.9491 34.2163 -80.3826 33.323 -78.7954 32.4537C-80.6802 32.8069 -82.5458 33.1872 -84.3906 33.5947L-85.1633 33.9478C-86.5426 34.587 -87.9073 35.2406 -89.2577 35.9118C-87.3569 35.6258 -85.4337 35.3637 -83.4929 35.132H-83.4946ZM-90.9954 39.8525C-89.269 38.7003 -87.5137 37.5769 -85.7329 36.4823C-87.9521 36.7763 -90.1458 37.1055 -92.3105 37.4715C-94.1505 38.4351 -95.9664 39.4306 -97.7521 40.4534C-95.5265 40.2168 -93.2738 40.0155 -90.9954 39.8525ZM-98.2865 44.9997C-96.4785 43.6494 -94.637 42.3326 -92.7633 41.0494C-95.2097 41.2476 -97.6273 41.4873 -100.011 41.7717C-101.946 42.9207 -103.85 44.108 -105.72 45.3257C-103.274 45.1755 -100.795 45.0668 -98.2865 45.0013V44.9997ZM-105.366 50.5752C-103.528 49.0491 -101.658 47.5565 -99.7474 46.1008C-102.368 46.187 -104.954 46.3213 -107.506 46.5019C-109.478 47.8234 -111.416 49.1801 -113.317 50.5736C-110.699 50.5273 -108.05 50.5273 -105.366 50.5752ZM-112.232 56.5837C-110.395 54.8914 -108.52 53.2343 -106.605 51.6139C-109.368 51.5788 -112.096 51.5979 -114.787 51.6634C-116.766 53.1464 -118.707 54.6677 -120.61 56.2258C-117.851 56.2945 -115.059 56.4128 -112.23 56.5837H-112.232ZM-58.9219 25.2259C-57.8099 24.6458 -56.6898 24.0769 -55.5586 23.5192C-56.853 23.8436 -58.1362 24.1823 -59.4099 24.5339C-60.5714 24.991 -61.7219 25.4576 -62.8627 25.937C-61.5587 25.6861 -60.2435 25.4496 -58.9219 25.2259ZM-66.6274 29.5165C-65.0819 28.6009 -63.5155 27.7076 -61.9283 26.8383C-63.8131 27.1914 -65.6786 27.5717 -67.5234 27.9792L-68.2963 28.3324C-69.6754 28.9716 -71.0402 29.6252 -72.3922 30.2964C-70.4913 30.0103 -68.5699 29.7482 -66.6274 29.5165ZM-74.1283 34.2371C-72.4019 33.0865 -70.6466 31.9615 -68.8657 30.8669C-71.085 31.1609 -73.277 31.4917 -75.4434 31.856C-77.2834 32.8196 -79.0994 33.8152 -80.885 34.8379C-78.6593 34.6014 -76.4066 34.4001 -74.1283 34.2355V34.2371ZM-81.4177 39.3859C-79.6097 38.0356 -77.7683 36.7188 -75.8947 35.4356C-78.3411 35.6337 -80.7587 35.875 -83.1426 36.1563C-85.077 37.3053 -86.981 38.4926 -88.8513 39.7103C-86.4033 39.5601 -83.9265 39.4514 -81.4177 39.3859ZM-88.4977 44.9614C-86.6593 43.4353 -84.7889 41.9427 -82.8785 40.4869C-85.4994 40.5732 -88.085 40.7075 -90.637 40.888C-92.6097 42.2096 -94.5474 43.5663 -96.4482 44.9598C-93.8306 44.9134 -91.1809 44.9134 -88.4977 44.9614ZM-95.3634 50.9683C-93.5265 49.2776 -91.6514 47.6189 -89.7362 45.9985C-92.4994 45.9633 -95.2257 45.9809 -97.9185 46.048C-99.8977 47.531 -101.839 49.0523 -103.741 50.6104C-100.983 50.6791 -98.1906 50.7973 -95.3634 50.9683ZM-102.018 57.4099C-100.2 55.5594 -98.3392 53.7457 -96.4385 51.9671C-99.3248 51.8057 -102.175 51.697 -104.987 51.6411C-106.954 53.2822 -108.882 54.9617 -110.768 56.678C-107.888 56.8682 -104.971 57.1127 -102.019 57.4099H-102.018ZM-108.453 64.2894C-106.667 62.2839 -104.837 60.3119 -102.962 58.3799C-105.96 58.0875 -108.922 57.8494 -111.845 57.6672C-113.786 59.4618 -115.68 61.2947 -117.535 63.166C-115.309 63.4025 -113.066 63.6677 -110.798 63.9666C-110.019 64.0688 -109.237 64.1791 -108.453 64.2894ZM-114.667 71.6067C-112.922 69.451 -111.131 67.3272 -109.295 65.2402L-110.936 65.0149C-113.479 64.6793 -115.995 64.3853 -118.485 64.128C-120.389 66.076 -122.248 68.0623 -124.062 70.0822C-120.97 70.5328 -117.84 71.0378 -114.669 71.6051L-114.667 71.6067ZM-115.088 90.6231C-113.501 88.0199 -111.864 85.4439 -110.176 82.8967C-113.563 82.0497 -116.907 81.2683 -120.213 80.5476L-121.234 81.9539C-122.634 83.8987 -123.998 85.8658 -125.333 87.8537C-121.958 88.7135 -118.542 89.6355 -115.088 90.6231ZM-42.0515 19.6104C-40.9395 19.0303 -39.8196 18.4615 -38.6884 17.9037C-39.9828 18.2281 -41.2659 18.5669 -42.5394 18.9185C-43.701 19.3755 -44.8514 19.8421 -45.9923 20.3215C-44.6882 20.0706 -43.373 19.8342 -42.0515 19.6104ZM-49.7571 23.9011C-48.2115 22.9854 -46.645 22.0921 -45.0579 21.2228C-46.9426 21.576 -48.8082 21.9563 -50.6531 22.3638L-51.4258 22.717C-52.8051 23.3562 -54.1699 24.0098 -55.5219 24.6809C-53.6211 24.3949 -51.6995 24.1328 -49.7571 23.9011ZM-57.2578 28.6217C-55.5315 27.4711 -53.7764 26.3461 -51.9955 25.2514C-54.2147 25.5455 -56.4066 25.8763 -58.573 26.2406C-60.413 27.2042 -62.2291 28.1998 -64.0146 29.2225C-61.7891 28.986 -59.5363 28.7847 -57.2578 28.6201V28.6217ZM-64.5475 33.7705C-62.7395 32.4201 -60.8978 31.1034 -59.0243 29.8202C-61.4706 30.0183 -63.8882 30.2596 -66.2722 30.5409C-68.2065 31.6898 -70.1107 32.8772 -71.9811 34.0949C-69.5331 33.9446 -67.0563 33.836 -64.5475 33.7705ZM-71.6274 39.3459C-69.7891 37.8198 -67.9187 36.3273 -66.0083 34.8715C-68.629 34.9578 -71.2146 35.092 -73.7665 35.2726C-75.7394 36.5942 -77.677 37.9509 -79.5778 39.3443C-76.9602 39.298 -74.3105 39.298 -71.6257 39.3459H-71.6274ZM-78.4946 45.3545C-76.6578 43.6638 -74.7827 42.005 -72.8674 40.3846C-75.6306 40.3511 -78.3571 40.3671 -81.0498 40.4342C-83.0289 41.9171 -84.9697 43.4385 -86.8721 44.9965C-84.1154 45.0652 -81.3218 45.1835 -78.4929 45.3545H-78.4946ZM-85.149 51.7961C-83.3314 49.9456 -81.4706 48.1318 -79.5698 46.3532C-82.4562 46.1918 -85.3058 46.0832 -88.1185 46.0272C-90.085 47.6684 -92.0129 49.3479 -93.8993 51.0642C-91.0193 51.2543 -88.1025 51.4989 -85.1505 51.7961H-85.149ZM-91.5857 58.6755C-89.8 56.67 -87.9698 54.6981 -86.0946 52.7661C-89.093 52.4736 -92.0546 52.2355 -94.9777 52.0534C-96.9185 53.8479 -98.813 55.6808 -100.667 57.5521C-98.4418 57.7886 -96.1985 58.0539 -93.9313 58.3527C-93.1521 58.455 -92.3698 58.5637 -91.5857 58.6755ZM-97.8 65.9929C-96.0544 63.8371 -94.2642 61.7134 -92.4274 59.6264L-94.0674 59.401C-96.6097 59.0655 -99.1266 58.7714 -101.616 58.5141C-103.52 60.4621 -105.379 62.4485 -107.194 64.4684C-104.101 64.919 -100.971 65.424 -97.8 65.9913V65.9929ZM-103.792 73.7544C-102.093 71.4485 -100.349 69.1713 -98.5554 66.9293C-101.755 66.3636 -104.915 65.8586 -108.037 65.4144C-109.899 67.5142 -111.714 69.6523 -113.482 71.824C-110.291 72.4073 -107.063 73.0497 -103.794 73.7544H-103.792ZM-105.224 75.7216L-104.477 74.6893C-107.771 73.9845 -111.024 73.3421 -114.237 72.7605C-116.048 75.0121 -117.81 77.2956 -119.525 79.6144C-116.242 80.3351 -112.918 81.1165 -109.555 81.9619C-108.149 79.8589 -106.704 77.7782 -105.224 75.7216ZM971.107 242C1006.35 238.986 1039.11 239.239 1069.46 242H1055.74C1033.61 240.576 1010.26 240.49 985.654 242H971.105H971.107ZM941.95 242L945.712 241.42C1015.2 230.833 1075.89 232.666 1128.33 242H1122.07C1071.96 233.74 1014.45 232.364 949.076 242H941.952H941.95ZM926.32 242C938.208 239.753 950.288 237.676 962.579 235.804C1044.34 223.348 1113.93 228.078 1172.2 242H1167.55C1110.3 228.915 1042.3 224.73 962.736 236.853C952.384 238.43 942.179 240.153 932.113 242H926.318H926.32ZM915.405 242C936.15 237.54 957.46 233.539 979.446 230.189C1071.38 216.182 1147.91 223.91 1210.29 242H1206.46C1144.86 224.681 1069.64 217.522 979.604 231.237C959.363 234.322 939.694 237.959 920.51 242H915.406H915.405ZM907.405 242C935.915 235.264 965.448 229.277 996.313 224.574C1097.28 209.193 1179.67 220.021 1245.14 242H1241.77C1176.93 220.75 1095.7 210.505 996.471 225.622C967.228 230.077 939.18 235.689 912.059 242H907.405ZM901.366 242C936.913 232.981 973.971 224.932 1013.18 218.958C1122.41 202.318 1209.91 216.355 1277.75 242H1274.74C1207.42 217.044 1120.95 203.611 1013.34 220.006C975.67 225.747 939.982 233.406 905.709 242H901.368H901.366ZM867.573 242C902.897 233.248 938.353 222.709 974.804 211.869C1043.92 191.317 1116.61 169.703 1198.72 157.192C1240.26 150.864 1278.63 149.002 1314 150.498V151.56C1278.68 150.065 1240.37 151.918 1198.88 158.24C1148.61 165.899 1101.86 176.978 1057.3 189.136C1096.72 178.792 1137.94 169.498 1181.85 162.807C1230.09 155.459 1274.06 154.12 1314 157.093V158.155C1274.11 155.181 1230.19 156.514 1182.01 163.855C1131.74 171.515 1085 182.594 1040.43 194.751C1079.85 184.407 1121.07 175.112 1164.99 168.423C1220.1 160.025 1269.68 159.446 1314 164.221V165.289C1269.73 160.511 1220.21 161.081 1165.14 169.471C1114.87 177.13 1068.13 188.209 1023.57 200.367C1062.98 190.023 1104.2 180.729 1148.12 174.038C1210.35 164.559 1265.49 165.063 1314 171.969V173.039C1265.55 166.128 1210.46 165.613 1148.28 175.088C1098.01 182.747 1051.26 193.825 1006.7 205.984C1046.12 195.64 1087.34 186.346 1131.25 179.655C1200.8 169.06 1261.53 170.901 1314 180.254V181.327C1261.6 171.965 1200.91 170.115 1131.41 180.703C1081.14 188.363 1034.4 199.44 989.836 211.599C1029.25 201.255 1070.47 191.961 1114.39 185.27C1191.53 173.515 1257.8 177.089 1314 189.219V190.301C1257.87 178.158 1191.65 174.568 1114.54 186.316C1064.27 193.975 1017.53 205.052 972.968 217.212C1012.39 206.868 1053.6 197.574 1097.52 190.883C1182.51 177.936 1254.34 183.565 1314 198.778V199.873C1254.41 184.642 1182.64 178.989 1097.67 191.933C1047.41 199.592 1000.66 210.669 956.099 222.829C995.516 212.485 1036.73 203.191 1080.65 196.5C1173.82 182.304 1251.16 190.443 1314 209.054V210.155C1251.24 191.525 1173.95 183.356 1080.81 197.548C1030.54 205.207 983.793 216.286 939.232 228.444C978.649 218.1 1019.87 208.806 1063.78 202.115C1165.47 186.621 1248.3 197.733 1314 220.029V221.144C1248.39 198.823 1165.61 187.672 1063.94 203.162C1013.67 210.821 966.926 221.9 922.365 234.058C961.782 223.714 1003 214.42 1046.91 207.729C1157.5 190.881 1245.8 205.487 1314 231.739V232.872C1245.9 206.59 1157.66 191.929 1047.07 208.777C996.804 216.437 950.059 227.516 905.497 239.673C944.915 229.329 986.132 220.035 1030.05 213.344C1147.01 195.525 1239.05 212.883 1308.73 242H1305.96C1236.72 213.544 1145.64 196.806 1030.2 214.393C984.505 221.355 941.721 231.143 900.841 242H872.513C876.011 241.07 879.51 240.129 883.014 239.172C879.326 240.134 875.641 241.073 871.958 242H867.573ZM101.966 242C87.676 232.703 73.0969 222.734 58.2025 212.045C-12.3092 161.441 -72.8995 129.059 -124.907 110.629C-125.275 111.367 -125.638 112.105 -125.998 112.845V110.45L-125.912 110.277L-125.998 110.247V109.13L-125.438 109.326C-123.984 106.427 -122.474 103.546 -120.906 100.686C-122.613 100.141 -124.31 99.6135 -125.998 99.099V97.9948C-124.139 98.5589 -122.271 99.1405 -120.387 99.7414C-118.864 96.9896 -117.286 94.2618 -115.656 91.5563C-119.131 90.5672 -122.565 89.6403 -125.958 88.7822L-125.998 88.8413V86.9365C-124.728 85.0524 -123.427 83.1827 -122.096 81.3354L-121.349 80.3031C-122.909 79.9691 -124.458 79.6511 -125.998 79.3443V78.2672C-124.232 78.6172 -122.454 78.9832 -120.664 79.3683C-118.965 77.0623 -117.221 74.7851 -115.427 72.5431C-118.627 71.9758 -121.787 71.4725 -124.909 71.0282L-125.998 72.2683V69.8089L-125.323 69.9048C-123.538 67.8993 -121.707 65.9289 -119.834 63.9953C-121.907 63.7924 -123.962 63.6182 -125.998 63.468V62.4069C-123.653 62.5795 -121.282 62.784 -118.888 63.0253C-117.071 61.1748 -115.21 59.3611 -113.309 57.5825C-116.195 57.4211 -119.046 57.3124 -121.858 57.2565C-123.258 58.4263 -124.64 59.6136 -126 60.8217V59.409C-125.166 58.6756 -124.325 57.9501 -123.474 57.2293C-124.32 57.2182 -125.162 57.2134 -126 57.2118V56.1539C-124.752 56.1555 -123.498 56.1683 -122.235 56.1906C-120.397 54.6645 -118.526 53.172 -116.616 51.7162C-119.237 51.8025 -121.823 51.9367 -124.375 52.1173C-124.918 52.4816 -125.461 52.8492 -125.998 53.2199V51.1777L-124.731 51.0818C-123.005 49.9296 -121.25 48.8062 -119.469 47.7115C-121.672 48.0024 -123.85 48.33 -126 48.6927V47.4814C-125.018 46.9717 -124.027 46.4715 -123.03 45.9793C-124.027 46.2302 -125.016 46.4875 -126 46.7527V45.5159C-120.962 43.5839 -115.749 41.8628 -110.35 40.3735C-104.936 38.2481 -99.3185 36.3688 -93.4834 34.758C-88.069 32.6327 -82.4514 30.7534 -76.6162 29.1426C-71.2018 27.0172 -65.5842 25.138 -59.7491 23.5272C-54.3347 21.4018 -48.7172 19.5225 -42.882 17.9117C-37.4675 15.7864 -31.85 13.9071 -26.0148 12.2963C1.7915 1.37227 35.0491 -3.03665 74.7354 2.19846C140.327 10.8501 223.506 45.8547 328.696 121.345C414.673 183.048 490.214 220.881 559.422 242H555.711C487.34 220.652 412.761 182.977 328.08 122.203C223.048 46.8247 140.034 11.8776 74.6025 3.24673C39.5546 -1.37631 9.55481 1.55444 -16.0803 9.86414C5.66675 5.20113 30.2059 4.16559 57.8713 7.81387C123.463 16.4655 206.642 51.4701 311.831 126.96C390.656 183.532 460.712 220.04 525.158 242H521.831C458.124 219.898 388.925 183.591 311.215 127.819C206.181 52.4401 123.169 17.4931 57.7369 8.86217C25.9514 4.66898 -1.68213 6.69048 -25.6741 13.3015C-26.834 13.7585 -27.9858 14.2251 -29.1267 14.7045C-8.33472 10.7127 14.9484 9.99196 41.0059 13.4293C106.598 22.081 189.776 57.0855 294.965 132.576C367.406 184.566 432.443 219.618 492.526 242H489.502C430.083 219.541 365.818 184.725 294.347 133.434C189.314 58.0555 106.302 23.1085 40.8698 14.4792C12.8795 10.7862 -11.8901 11.9128 -33.7876 16.7484L-34.5603 17.1016C-35.9395 17.7408 -37.3043 18.3943 -38.6564 19.0655C-19.762 16.2194 1.10352 16.0069 24.1371 19.0447C89.7289 27.6964 172.909 62.701 278.098 138.191C344.763 186.036 405.15 219.516 461.184 242H458.281C402.888 219.492 343.23 186.237 277.479 139.049C172.447 63.6694 89.4329 28.7239 24.0011 20.093C-0.243652 16.8954 -22.0692 17.3141 -41.7091 20.6252C-43.5492 21.5888 -45.3651 22.5844 -47.1506 23.6071C-30.5123 21.8413 -12.4116 22.065 7.26831 24.6602C72.8601 33.3118 156.039 68.3164 261.229 143.807C322.546 187.813 378.555 219.674 430.747 242H428.059C376.451 219.69 321.114 188.085 260.611 144.665C155.58 69.2848 72.5657 34.3394 7.13391 25.7085C-13.4004 22.9998 -32.202 22.8848 -49.4083 24.9238C-51.3428 26.0728 -53.2467 27.2601 -55.1171 28.4778C-40.9731 27.6085 -25.8228 28.1342 -9.59717 30.2756C55.9946 38.9273 139.173 73.9318 244.364 149.422C300.714 189.863 352.579 220.045 401.121 242H398.533C350.554 220.096 299.327 190.168 243.744 150.279C138.713 74.9002 55.6986 39.9532 -9.73315 31.3223C-26.6003 29.0979 -42.298 28.6232 -56.9027 29.6556C-58.8755 30.9771 -60.8131 32.3338 -62.7139 33.7273C-51.2708 33.5244 -39.1987 34.2099 -26.4644 35.8894C39.1274 44.5411 122.306 79.5456 227.496 155.036C279.197 192.14 327.115 220.595 372.166 241.998H369.661C325.159 220.678 277.851 192.474 226.877 155.892C121.846 80.5141 38.8315 45.567 -26.6003 36.9361C-39.837 35.1911 -52.3523 34.5231 -64.1842 34.8156C-66.1635 36.2985 -68.1041 37.8198 -70.0066 39.3779C-61.4546 39.592 -52.5667 40.2856 -43.33 41.5033C22.2618 50.1549 105.441 85.1595 210.629 160.65C257.935 194.6 302.072 221.301 343.747 241.997H341.349C300.197 221.408 256.639 194.97 210.012 161.506C104.978 86.1279 21.9659 51.1809 -43.4658 42.55C-53.1042 41.278 -62.3618 40.5796 -71.2513 40.4054C-73.2178 42.0466 -75.1458 43.7261 -77.0321 45.4424C-71.5521 45.8051 -65.9426 46.3596 -60.197 47.1171C5.39478 55.7688 88.5736 90.7733 193.762 166.264C236.896 197.219 277.396 222.146 315.797 241.997H313.485C275.584 222.276 235.642 197.62 193.145 167.122C88.1113 91.7433 5.09875 56.7963 -60.333 48.1654C-66.4098 47.3648 -72.3346 46.7911 -78.1106 46.4331C-80.0514 48.2277 -81.9458 50.0606 -83.7986 51.9319C-81.5746 52.1684 -79.3298 52.4337 -77.0626 52.7325C-11.4708 61.3842 71.7081 96.3887 176.898 171.879C216.058 199.983 253.045 223.115 288.266 241.997H286.024C251.288 223.262 214.837 200.408 176.281 172.737C71.2489 97.3571 -11.7653 62.4117 -77.197 53.7808C-79.7394 53.4452 -82.2561 53.1512 -84.7457 52.8939C-86.6497 54.8419 -88.5089 56.8282 -90.3234 58.8481C-25.2964 68.2908 56.7594 103.378 160.031 177.493C195.394 202.873 228.981 224.19 261.101 241.995H258.917C227.269 224.355 194.199 203.315 159.412 178.349C55.9242 104.078 -26.1876 69.0594 -91.1682 59.7926C-93.0306 61.8923 -94.8448 64.0305 -96.6129 66.2022C-33.3282 77.7702 45.4138 112.955 143.162 183.108C174.884 205.875 205.175 225.365 234.263 241.995H232.128C203.501 225.547 173.713 206.334 142.543 183.965C44.6362 113.698 -34.1364 78.5724 -97.3713 67.1386C-99.1825 69.3903 -100.944 71.6738 -102.659 73.9925C-41.2819 87.4526 34.041 122.516 126.293 188.724C154.513 208.977 181.599 226.63 207.717 241.995H205.628C179.962 226.825 153.365 209.453 125.676 189.58C33.313 123.295 -42.0194 88.2788 -103.346 74.9258L-104.366 76.332C-105.766 78.2768 -107.131 80.2456 -108.466 82.2319C-49.1603 97.3348 22.6411 132.055 109.428 194.339C134.273 212.17 158.233 227.977 181.434 241.997H179.385C156.628 228.187 133.141 212.659 108.809 195.197C21.9563 132.865 -49.8387 98.1833 -109.088 83.1636C-110.789 85.7204 -112.437 88.3108 -114.034 90.9235C-56.9668 107.413 11.2139 141.576 92.5592 199.955C114.14 215.443 135.054 229.4 155.385 241.997H153.37C133.478 229.622 113.028 215.944 91.9401 200.813C10.561 142.408 -57.597 108.283 -114.603 91.8584C-116.243 94.5702 -117.827 97.3076 -119.357 100.066C-64.6995 117.682 -0.238892 151.076 75.6921 205.57C94.1112 218.789 112.046 230.895 129.548 241.997H127.569C110.497 231.129 93.0153 219.303 75.0729 206.428C-0.861206 151.933 -65.2834 118.574 -119.875 101.01C-121.45 103.877 -122.968 106.768 -124.43 109.676C-72.3538 128.149 -11.714 160.563 58.8234 211.187C74.1785 222.205 89.1976 232.46 103.91 241.998H101.969L101.966 242ZM76.5864 242C65.0249 234.323 53.2889 226.239 41.3354 217.661C-22.1652 172.088 -77.6145 141.301 -125.998 122.166V121.033C-77.4386 140.189 -21.7844 171.059 41.953 216.804C54.3497 225.7 66.5177 234.074 78.4921 242H76.585H76.5864Z" fill="white" fill-opacity="0.3"/>
</svg>
