<svg width="1440" height="1251" viewBox="0 0 1440 1251" fill="none" xmlns="http://www.w3.org/2000/svg">
<path d="M-1177.99 1249.48C-931.634 1154.51 -613.676 921.633 -288.276 683.278C-171.342 597.629 -53.4573 511.27 62.4324 430.356C523.046 108.733 951.798 -126.84 1161.96 109.673C1969.39 1018.37 2442.75 1244.99 2717.98 1219.26L2717.98 1219.79C2442.51 1245.47 1968.93 1018.73 1161.47 110.009C951.642 -126.13 523.163 109.343 62.8142 430.785C-53.0443 511.688 -170.944 598.047 -287.878 683.702C-613.395 922.139 -931.463 1155.1 -1177.99 1250.05L-1177.99 1249.48L-1177.99 1249.48Z" fill="#007DC3" fill-opacity="0.1"/>
<path d="M-1177.99 1214.43C-935.195 1123.08 -624.124 901.573 -305.254 674.496C273.594 262.275 878.125 -168.232 1147.18 128.189C1968.27 1047.49 2443.96 1241.57 2717.98 1190.67L2717.98 1191.34C2443.74 1242.17 1967.85 1047.89 1146.7 128.535C878.032 -167.456 273.742 262.868 -304.873 674.92C-623.852 902.078 -935.031 1123.66 -1177.99 1215L-1177.99 1214.43Z" fill="#007DC3" fill-opacity="0.1"/>
<path d="M-1177.99 1179.47C-938.771 1091.77 -634.535 881.429 -322.132 665.422C253.779 267.202 857.297 -150.107 1132.41 146.71C1966.75 1075.84 2444.93 1234.98 2717.98 1159.3L2717.98 1159.96C2444.71 1235.57 1966.31 1076.23 1131.92 147.051C857.196 -149.348 253.92 267.79 -321.758 665.846C-634.262 881.935 -938.616 1092.35 -1177.99 1180.04L-1177.99 1179.47Z" fill="#007DC3" fill-opacity="0.1"/>
<path d="M-1177.99 1144.67C-942.387 1060.66 -644.867 861.192 -338.923 656.063C234.003 271.931 836.438 -131.981 1117.63 165.231C1965.06 1103.66 2445.67 1224.67 2717.98 1124.71L2717.98 1125.38C2445.45 1225.27 1964.61 1104.03 1117.16 165.577C836.345 -131.239 234.144 272.519 -338.549 656.492C-644.61 861.704 -942.231 1061.23 -1177.99 1145.24L-1177.99 1144.67Z" fill="#007DC3" fill-opacity="0.1"/>
<path d="M-1177.99 1109.97C-946.026 1029.67 -655.168 840.884 -355.614 646.423C214.282 276.473 815.548 -113.851 1102.86 183.752C1962.85 1130.57 2446.08 1210.73 2717.98 1087.52L2717.98 1088.14C2445.81 1211.27 1962.33 1130.87 1102.39 184.109C815.447 -113.109 214.414 277.062 -355.255 646.868C-654.911 841.395 -945.878 1030.25 -1177.99 1110.55L-1177.99 1109.98L-1177.99 1109.97Z" fill="#007DC3" fill-opacity="0.1"/>
<path d="M-1177.99 1075.42C-949.688 998.863 -665.414 820.499 -372.226 636.514C194.599 280.823 794.626 -95.7144 1088.09 202.273C1960.11 1156.52 2446.1 1192.81 2717.98 1047.73L2717.98 1048.37C2445.82 1193.38 1959.56 1156.79 1087.61 202.631C794.517 -94.983 194.724 281.406 -371.883 636.964C-665.165 821.01 -949.54 999.441 -1177.99 1075.99L-1177.99 1075.42Z" fill="#007DC3" fill-opacity="0.1"/>
<path d="M-1177.99 1041.04C-953.381 968.244 -675.606 800.036 -388.753 626.335C174.956 284.981 773.682 -77.578 1073.31 220.795L1073.31 220.806C1956.78 1181.46 2445.7 1170.83 2717.98 1005.65L2717.98 1006.31C2445.42 1171.43 1956.24 1181.73 1072.85 221.163C773.581 -76.8521 175.088 285.564 -388.41 626.791C-675.364 800.553 -953.241 968.816 -1177.99 1041.61L-1177.99 1041.04L-1177.99 1041.04Z" fill="#007DC3" fill-opacity="0.1"/>
<path d="M-1177.99 1006.75C-957.098 937.735 -685.774 779.519 -405.21 615.881C155.344 288.945 752.691 -59.4421 1058.54 239.316L1058.54 239.327C1952.6 1205.1 2444.8 1144.82 2717.98 961.821L2717.98 962.509C2444.51 1145.45 1952.05 1205.35 1058.09 239.684C752.597 -58.7272 155.476 289.528 -404.867 616.337C-685.541 780.03 -956.966 938.307 -1177.99 1007.32L-1177.99 1006.75Z" fill="#007DC3" fill-opacity="0.1"/>
<path d="M-1177.99 972.649C-960.854 907.435 -695.896 758.925 -421.588 605.163C135.778 292.729 731.676 -41.3004 1043.77 257.842L1043.78 257.853C1947.56 1227.4 2443.36 1114.7 2717.98 916.574L2717.98 917.278C2443.07 1115.39 1946.99 1227.65 1043.31 258.2C731.559 -40.591 135.887 293.312 -421.261 605.625C-695.662 759.442 -960.721 908.007 -1177.99 973.215L-1177.99 972.649Z" fill="#007DC3" fill-opacity="0.1"/>
<path d="M-1177.99 938.681C-964.633 877.277 -705.987 738.275 -437.905 594.181C116.236 296.325 710.621 -23.1642 1029 276.363L1029.02 276.374C1928.75 1234.63 2427.38 1085.02 2706.35 879.186C2710.28 876.288 2714.15 873.384 2717.99 870.47L2717.99 871.19C2714.28 874.006 2710.54 876.81 2706.74 879.609C2427.57 1085.59 1928.63 1235.35 1028.55 276.743C710.512 -22.4603 116.345 296.908 -437.585 594.654C-705.769 738.792 -964.5 877.849 -1177.99 939.247L-1177.99 938.681Z" fill="#007DC3" fill-opacity="0.1"/>
<path d="M-1177.99 904.878C-968.435 847.296 -716.054 717.571 -454.166 582.936C96.717 299.73 689.529 -5.02762 1014.22 294.885L1014.24 294.896C1934.13 1267.23 2438.66 1042.51 2717.98 823.865L2717.98 824.601C2438.41 1043.3 1933.62 1267.55 1013.77 295.253C689.404 -4.33469 96.8182 300.313 -453.863 583.409C-715.836 718.088 -968.319 847.863 -1177.99 905.439L-1177.99 904.872L-1177.99 904.878Z" fill="#007DC3" fill-opacity="0.1"/>
<path d="M-1177.99 871.25C-972.285 817.496 -726.09 696.801 -470.374 571.425C77.2137 302.946 668.397 13.0971 999.446 313.4L999.462 313.411C1925.6 1284.59 2435.37 1000.68 2717.98 777.336L2717.98 778.067C2435.13 1001.5 1925.11 1284.92 998.994 313.774C668.272 13.7789 77.3072 303.524 -470.085 571.904C-725.88 697.323 -972.16 818.062 -1177.99 871.816L-1177.99 871.255L-1177.99 871.25Z" fill="#007DC3" fill-opacity="0.1"/>
<path d="M-1177.99 837.772C-976.157 787.85 -736.11 675.992 -486.542 559.669C57.7339 305.988 647.226 31.2284 984.673 331.927L984.688 331.944C1915.74 1300.18 2431.44 955.283 2717.98 731.33L2717.98 732.056C2431.19 956.147 1915.25 1300.5 984.228 332.307C647.094 31.9048 57.8196 306.565 -486.254 560.153C-735.916 676.515 -976.04 788.411 -1177.99 838.333L-1177.99 837.772Z" fill="#007DC3" fill-opacity="0.1"/>
<path d="M-1177.99 804.502C-980.069 758.402 -746.115 655.117 -502.671 547.642C38.254 308.831 626.009 49.3479 969.899 350.443L969.915 350.459C1897.84 1307.03 2419.49 912.192 2711.83 690.923L2717.98 686.265L2717.98 686.98L2712.23 691.335C2419.72 912.731 1897.78 1307.79 969.455 350.822C625.876 50.0078 38.3319 309.397 -502.399 548.126C-745.921 655.645 -979.96 758.969 -1177.99 805.063L-1177.99 804.502Z" fill="#007DC3" fill-opacity="0.1"/>
<path d="M-1177.99 771.37C-984.012 729.098 -756.12 634.21 -518.769 535.363C18.7897 311.487 604.745 67.4569 955.125 368.97L955.141 368.986C1846.2 1279.11 2369.24 897.059 2673.2 675.041C2688.69 663.724 2703.61 652.83 2717.98 642.536L2717.98 643.24C2703.73 653.452 2688.94 664.252 2673.59 675.465C2369.47 897.608 1846.13 1279.87 954.689 369.36C604.612 68.1223 18.8597 312.07 -518.512 535.863C-755.941 634.738 -983.902 729.659 -1177.99 771.931L-1177.99 771.375L-1177.99 771.37Z" fill="#007DC3" fill-opacity="0.1"/>
<path d="M-1177.99 738.468C-987.993 700.001 -766.109 613.247 -534.86 522.824C-0.690188 313.961 583.426 85.5594 940.352 387.49L940.367 387.507C1795.96 1252.96 2319.23 881.924 2633.8 658.879C2663.71 637.669 2691.73 617.8 2717.98 600.456L2717.98 601.132C2691.85 618.416 2663.96 638.196 2634.19 659.302C2319.45 882.469 1795.89 1253.7 939.923 387.881C583.301 86.2084 -0.62012 314.527 -534.611 523.325C-765.938 613.775 -987.9 700.557 -1177.99 739.023L-1177.99 738.468Z" fill="#007DC3" fill-opacity="0.1"/>
<path d="M-1177.99 705.726C-992.022 671.054 -776.122 592.246 -550.935 510.022C-20.178 316.233 562.068 103.647 925.586 406.006L925.602 406.023C1747.01 1228.41 2269.46 866.901 2593.69 642.547C2638.87 611.278 2680.21 582.677 2717.98 560.307L2717.98 560.961C2680.33 583.293 2639.11 611.806 2594.07 642.976C2269.67 867.451 1746.94 1229.15 925.157 406.397C561.936 104.279 -20.1156 316.793 -550.701 510.523C-775.959 592.774 -991.928 671.609 -1177.99 706.282L-1177.99 705.726Z" fill="#007DC3" fill-opacity="0.1"/>
<path d="M-1177.99 673.209C-996.097 642.309 -786.135 571.189 -567.025 496.961C-39.6891 318.316 540.64 121.716 910.804 424.532L910.82 424.549C1699.22 1205.37 2219.88 852.096 2552.87 626.164C2614.08 584.64 2668.94 547.416 2717.98 522.307L2717.98 522.934C2669.06 548.021 2614.3 585.168 2553.25 626.598C2220.09 852.652 1699.15 1206.11 910.376 424.933C540.492 122.354 -39.6501 318.888 -566.815 497.478C-785.987 571.728 -996.011 642.865 -1177.99 673.764L-1177.99 673.209Z" fill="#007DC3" fill-opacity="0.1"/>
<path d="M-1177.99 640.886C-1000.21 613.731 -796.187 550.101 -583.131 483.638C-59.2313 320.203 519.157 139.771 896.031 443.054L896.047 443.071C1652.5 1183.71 2170.52 837.569 2511.4 609.794C2589.24 557.778 2657.85 511.937 2717.98 486.597L2717.98 487.202C2657.98 512.542 2589.47 558.311 2511.76 610.234C2170.71 838.124 1652.43 1184.44 895.602 443.456C519.002 140.392 -59.208 320.77 -582.944 484.155C-796.046 550.634 -1000.13 614.287 -1177.99 641.441L-1177.99 640.891L-1177.99 640.886Z" fill="#007DC3" fill-opacity="0.1"/>
<path d="M-1177.99 608.792C-1004.39 585.355 -806.261 528.961 -599.284 470.038C-78.8279 321.88 497.598 157.796 881.258 461.569L881.266 461.569L881.281 461.591C1606.8 1163.34 2121.35 823.396 2469.28 593.532C2564.29 530.765 2646.88 476.208 2717.98 453.265L2717.98 453.848C2647.02 476.796 2564.53 531.287 2469.65 593.972C2121.54 823.952 1606.73 1164.06 880.845 461.97C497.449 158.412 -78.7889 322.446 -599.089 470.56C-806.137 529.5 -1004.31 585.905 -1177.99 609.347L-1177.99 608.797L-1177.99 608.792Z" fill="#007DC3" fill-opacity="0.1"/>
<path d="M-1177.99 576.908C-1008.62 557.144 -816.399 507.778 -615.483 456.169C-98.4716 323.359 475.975 175.795 866.492 480.09L866.5 480.09L866.515 480.107C1562.01 1144.17 2072.35 809.627 2426.53 577.453C2539.14 503.638 2635.97 440.167 2717.99 422.377L2717.99 422.938C2636.12 440.739 2539.39 504.149 2426.89 577.893C2072.54 810.182 1561.94 1144.89 866.079 480.497C475.811 176.405 -98.4481 323.92 -615.312 456.691C-816.274 508.317 -1008.55 557.694 -1177.99 577.458L-1177.99 576.908Z" fill="#007DC3" fill-opacity="0.1"/>
<path d="M-1177.99 545.278C-1012.91 529.143 -826.583 486.552 -631.776 442.02C-118.201 324.624 454.251 193.767 851.711 498.617L851.726 498.628L851.734 498.628C1518.07 1126.15 2023.5 796.325 2383.14 561.638C2513.7 476.439 2625.05 403.785 2717.98 393.947L2717.98 394.497C2625.23 404.346 2513.96 476.945 2383.51 562.078C2023.69 796.88 1518.01 1126.87 851.298 499.019C454.079 194.366 -118.201 325.185 -631.62 442.548C-826.482 487.091 -1012.86 529.693 -1177.99 545.828L-1177.99 545.278Z" fill="#007DC3" fill-opacity="0.1"/>
<path d="M-1177.99 513.861C-1017.28 501.301 -836.86 465.27 -648.17 427.579C-138.031 325.664 432.441 211.699 836.945 517.144L836.96 517.155L836.96 517.166C1474.96 1109.21 1974.82 783.534 2339.15 546.152C2482.22 452.936 2604.41 373.325 2705.93 368.183C2709.99 367.98 2714 367.936 2717.98 367.969L2717.98 368.513C2714 368.475 2710.01 368.519 2705.96 368.722C2604.63 373.853 2482.5 453.42 2339.51 546.587C1974.99 784.084 1474.89 1109.92 836.524 517.545C432.254 212.288 -138.047 326.219 -648.046 428.107C-836.767 465.809 -1017.23 501.851 -1177.99 514.405L-1177.99 513.855L-1177.99 513.861Z" fill="#007DC3" fill-opacity="0.1"/>
<path d="M-1177.99 482.714C-1021.73 473.668 -847.232 443.929 -664.713 412.825C-157.987 326.467 410.514 229.577 822.171 535.665L822.179 535.665L822.195 535.687C1432.59 1093.28 1926.25 771.282 2294.54 531.057C2444.79 433.051 2574.18 348.651 2682.2 343.063C2694.41 342.431 2706.34 342.827 2717.99 344.301L2717.99 344.856C2706.35 343.377 2694.44 342.975 2682.24 343.608C2574.41 349.184 2445.08 433.541 2294.91 531.497C1926.45 771.843 1432.54 1094.01 821.781 536.083C410.343 230.166 -157.994 327.028 -664.58 413.364C-847.13 444.478 -1021.67 474.218 -1177.97 483.264L-1177.97 482.72L-1177.99 482.714Z" fill="#007DC3" fill-opacity="0.1"/>
<path d="M-1177.99 451.803C-1026.28 446.199 -857.743 422.525 -681.442 397.746C-178.097 327.011 388.456 247.394 807.398 554.181L807.413 554.203C1390.94 1078.34 1877.8 759.612 2249.31 516.413C2406.83 413.293 2543.62 323.744 2658.31 317.701C2678.92 316.612 2698.81 318.273 2717.98 322.986L2717.98 323.552C2698.82 318.828 2678.95 317.162 2658.35 318.245C2543.83 324.278 2407.1 413.782 2249.67 516.847C1877.98 760.168 1390.87 1079.05 806.985 554.599C388.261 247.972 -178.144 327.566 -681.356 398.285C-857.688 423.064 -1026.24 446.744 -1178 452.347L-1178 451.803L-1177.99 451.803Z" fill="#007DC3" fill-opacity="0.1"/>
<path d="M-1177.99 421.172C-1030.93 418.923 -868.41 401.045 -698.405 382.332C-198.411 327.302 366.249 265.151 792.616 572.707L792.632 572.718L792.632 572.729C1349.97 1064.34 1829.48 748.586 2203.47 502.307C2368.35 393.732 2512.74 298.657 2634.32 292.135C2663.54 290.568 2691.44 294.131 2717.98 303.832L2717.98 304.42C2691.45 294.692 2663.57 291.118 2634.36 292.679C2512.96 299.19 2368.64 394.221 2203.84 502.747C1829.66 749.147 1349.92 1065.06 792.219 573.125C366.062 265.723 -198.466 327.857 -698.327 382.876C-868.356 401.59 -1030.9 419.473 -1177.99 421.722L-1177.99 421.178L-1177.99 421.172Z" fill="#007DC3" fill-opacity="0.1"/>
<path d="M-1177.99 390.822C-1035.72 391.834 -879.28 379.472 -715.664 366.543C-218.974 327.296 343.878 282.819 777.843 591.228L777.851 591.228L777.859 591.244C1309.64 1051.24 1781.23 738.215 2157 488.795C2329.35 374.402 2481.54 273.382 2610.22 266.366C2648.23 264.292 2684.18 270.435 2717.98 286.839L2717.98 287.46C2684.19 271.007 2648.25 264.842 2610.26 266.91C2481.76 273.916 2329.64 374.891 2157.38 489.23C1781.42 738.775 1309.6 1051.95 777.446 591.646C343.675 283.38 -219.044 327.846 -715.618 367.082C-879.249 380.011 -1035.7 392.373 -1178 391.361L-1178 390.817L-1177.99 390.822Z" fill="#007DC3" fill-opacity="0.1"/>
<path d="M-1177.99 360.747C-1040.65 364.905 -890.407 357.794 -733.298 350.349C-239.841 326.972 321.297 300.383 763.069 609.749L763.085 609.76C1269.92 1039.02 1733.08 728.547 2109.91 475.944C2289.81 355.353 2450.04 247.938 2586.04 240.415C2632.98 237.82 2677.01 247.135 2717.97 271.881L2717.97 272.536C2677.03 247.713 2633.01 238.364 2586.07 240.96C2450.26 248.477 2290.1 355.842 2110.27 476.378C1733.26 729.108 1269.87 1039.73 762.664 610.161C321.078 300.933 -239.927 327.511 -733.274 350.888C-890.391 358.333 -1040.64 365.444 -1178 361.286L-1178 360.742L-1177.99 360.747Z" fill="#007DC3" fill-opacity="0.1"/>
<path d="M-1177.99 330.976C-1045.77 338.141 -901.853 335.969 -751.414 333.698C-261.097 326.285 298.466 317.822 748.295 628.271L748.311 628.282C1230.8 1027.66 1685 719.628 2062.17 463.835C2249.73 336.64 2418.24 222.357 2561.81 214.301C2617.79 211.161 2669.96 224.177 2717.98 258.86L2717.98 259.537C2669.98 224.76 2617.82 211.705 2561.85 214.845C2418.47 222.89 2250.02 337.13 2062.55 464.27C1685.19 720.189 1230.77 1028.37 747.898 628.694C298.256 318.366 -261.191 326.83 -751.398 334.242C-901.838 336.519 -1045.75 338.686 -1177.99 331.526L-1177.99 330.981L-1177.99 330.976Z" fill="#007DC3" fill-opacity="0.1"/>
<path d="M-1177.99 301.522C-1051.11 311.542 -913.705 313.983 -770.138 316.53C-282.845 325.185 275.34 335.095 733.53 646.797L733.553 646.814C1192.26 1017.13 1637 711.495 2013.8 452.546C2209.11 318.328 2386.16 196.648 2537.55 188.042C2602.67 184.341 2663 201.614 2718 247.741L2718 248.461C2663.03 202.213 2602.7 184.886 2537.59 188.586C2386.4 197.182 2209.4 318.817 2014.18 452.98C1637.19 712.056 1192.24 1017.84 733.156 647.232C275.114 335.634 -282.954 325.724 -770.154 317.074C-913.705 314.522 -1051.11 312.081 -1177.99 302.067L-1177.99 301.517L-1177.99 301.522Z" fill="#007DC3" fill-opacity="0.1"/>
<path d="M-1177.99 272.377C-1056.73 285.052 -926.078 291.756 -789.665 298.75C-305.239 323.59 251.823 352.158 718.748 665.313L718.764 665.329C1154.23 1007.4 1589.01 704.17 1964.71 442.13C2167.86 300.45 2353.73 170.802 2513.22 161.624C2587.53 157.346 2656.09 179.293 2717.98 238.288L2717.98 239.057C2656.11 179.903 2587.57 157.89 2513.26 162.168C2353.97 171.335 2168.16 300.934 1965.09 442.559C1589.2 704.725 1154.22 1008.11 718.374 665.753C251.597 352.697 -305.356 324.135 -789.696 299.3C-926.094 292.305 -1056.74 285.602 -1177.99 272.932L-1177.99 272.382L-1177.99 272.377Z" fill="#007DC3" fill-opacity="0.1"/>
<path d="M-1177.99 243.572C-1062.72 258.678 -939.138 269.242 -810.228 280.257C-328.459 321.429 227.817 368.963 703.983 683.839L703.999 683.85C1116.75 998.489 1541.08 697.713 1914.96 432.693C2126.03 283.083 2321.03 144.857 2488.89 135.085C2572.46 130.218 2649.28 157.213 2717.98 230.434L2717.98 231.237C2649.3 157.824 2572.49 130.762 2488.93 135.629C2321.26 145.396 2126.33 283.567 1915.34 433.122C1541.28 698.274 1116.75 999.193 703.609 684.279C227.591 369.491 -328.599 321.962 -810.282 280.801C-939.177 269.786 -1062.73 259.222 -1177.99 244.122L-1177.99 243.572Z" fill="#007DC3" fill-opacity="0.1"/>
<path d="M-1177.99 215.108C-1069.17 232.348 -953.116 246.316 -832.185 260.861C-352.801 318.531 203.178 385.411 689.209 702.36L689.225 702.371C1079.77 990.367 1493.16 692.165 1864.48 424.312C2083.55 266.283 2287.99 118.813 2464.55 108.419C2557.41 102.953 2642.53 135.475 2717.98 224.22L2717.98 225.078C2642.54 136.108 2557.44 103.498 2464.59 108.964C2288.22 119.346 2083.86 266.762 1864.87 424.736C1493.37 692.72 1079.78 991.066 688.843 702.8C202.937 385.934 -352.957 319.064 -832.271 261.406C-953.171 246.86 -1069.19 232.903 -1177.99 215.669L-1177.99 215.114L-1177.99 215.108Z" fill="#007DC3" fill-opacity="0.1"/>
<path d="M-1177.99 187.013C-1076.25 206.013 -968.342 222.829 -856.052 240.322C-378.67 314.698 177.683 401.381 674.436 720.881L674.451 720.892C1043.28 983.031 1445.25 687.579 1813.25 417.092C2040.4 250.132 2254.61 92.6809 2440.2 81.6441C2542.37 75.5675 2635.83 113.935 2717.98 219.414L2717.98 220.311C2635.86 114.573 2542.4 76.1119 2440.24 82.1885C2254.84 93.2143 2040.7 250.611 1813.63 417.516C1445.46 688.134 1043.3 983.735 674.077 721.327C177.434 401.898 -378.842 315.231 -856.161 240.861C-968.404 223.373 -1076.28 206.563 -1177.99 187.568L-1177.99 187.008L-1177.99 187.013Z" fill="#007DC3" fill-opacity="0.1"/>
<path d="M-1177.99 159.287C-1084.22 179.551 -985.328 198.54 -882.615 218.254C-406.706 309.612 150.98 416.675 659.662 739.403L659.67 739.403C1007.27 976.482 1397.33 683.999 1761.22 411.132C1996.5 234.702 2220.85 66.4725 2415.84 54.7593C2527.33 48.0668 2629.2 92.5385 2717.98 215.884L2717.98 216.825C2629.22 93.1818 2527.37 48.6113 2415.88 55.3092C2221.09 67.0059 1996.82 235.181 1761.62 411.549C1397.54 684.555 1007.29 977.181 659.296 739.848C150.723 417.186 -406.893 310.14 -882.747 218.788C-985.406 199.084 -1084.25 180.107 -1177.99 159.848L-1177.99 159.287Z" fill="#007DC3" fill-opacity="0.1"/>
<path d="M-1177.99 131.956C-1093.48 152.786 -1004.9 173.051 -913.136 194.041C-437.92 302.754 122.532 430.972 644.889 757.924C971.73 970.724 1349.37 681.491 1708.38 406.545C1951.84 220.085 2186.74 40.1915 2391.51 27.7799C2512.33 20.4606 2622.63 71.4982 2717.98 213.811L2717.98 214.817C2622.66 72.1691 2512.37 21.005 2391.55 28.3243C2186.98 40.7194 1952.17 220.558 1708.79 406.957C1349.6 682.041 971.761 971.417 644.53 758.369C122.259 431.472 -438.131 303.271 -913.292 194.569C-1005 173.59 -1093.53 153.336 -1177.99 132.522L-1177.99 131.956Z" fill="#007DC3" fill-opacity="0.1"/>
<path d="M-1177.99 105.026C-1104.73 125.384 -1028.49 145.676 -949.781 166.622C-474.09 293.224 91.3717 443.724 630.115 776.445C936.651 965.753 1301.4 680.122 1654.68 403.465C1906.35 206.381 2152.2 13.8561 2367.18 0.713159C2497.32 -7.2441 2616.11 50.6399 2717.98 212.936L2717.98 213.987C2616.14 51.3163 2497.37 -6.69969 2367.22 1.25757C2152.45 14.384 1906.68 206.854 1655.08 403.872C1301.63 680.666 936.69 966.446 629.757 776.89C91.099 444.225 -474.316 293.741 -949.961 167.15C-1028.6 146.22 -1104.79 125.945 -1177.99 105.604L-1177.99 105.032L-1177.99 105.026Z" fill="#007DC3" fill-opacity="0.1"/>
</svg>
