<svg width="165" height="55" viewBox="0 0 165 55" fill="none" xmlns="http://www.w3.org/2000/svg">
<path d="M151.166 0H13.2152H13.128H13.0407H12.9535H12.8662H12.6917H12.6044H12.5172H12.4299H12.3427H12.1682H12.0809H11.9937H11.9064H11.8191H11.6446H11.5574H11.4701H11.3829H11.2956H11.2084H11.1211H11.0339H10.9466H10.8593H10.7721H10.6848H10.5976H10.5103H10.4231L10.2486 0.0877246H10.074H9.89953H9.72502H9.55051H9.376H9.20149H8.93973L8.76522 0.175449H8.59071H8.4162H8.24168L8.06718 0.263147H7.89267H7.6309L7.54364 0.350872H7.36913L7.19462 0.438596H7.02011L6.8456 0.526321H6.67109L6.49658 0.614046L6.32207 0.701744H6.14756L5.97305 0.789468L5.79854 0.877193L5.62403 0.964917L5.44952 1.05264L5.27501 1.14034H5.1005L5.01324 1.22806L4.83873 1.31579L4.66422 1.40351L4.48971 1.49124L4.3152 1.57894L4.14069 1.75439L4.05344 1.84211L3.87893 1.92983L3.70442 2.01753L3.61716 2.19298L3.44265 2.28071L3.26814 2.36843L3.18088 2.54385L3.00638 2.63158L2.83186 2.7193L2.74461 2.89473L2.65735 3.07017L2.48284 3.1579L2.39559 3.33332L2.30833 3.50877L2.13382 3.5965L2.04657 3.77192L1.95931 3.85964L1.87206 4.03509L1.69755 4.21051L1.61029 4.29824L1.52304 4.47369L1.43578 4.64911L1.34853 4.82456L1.26127 4.91229V5.08771L1.17402 5.26316L1.08676 5.43861L0.999505 5.61403L0.912251 5.78948L0.824996 5.9649L0.73774 6.14035V6.3158L0.650485 6.49122L0.563229 6.66667V6.84209L0.475975 7.01754V7.19299V7.36841L0.38872 7.54386V7.80701V7.98246L0.301464 8.15788V8.33333V8.50878V8.6842L0.214209 8.85965V9.1228V9.29825V9.47367V9.64912V9.82457V9.99999V10.1754L0.126953 10.3509V10.4386V10.5263V10.614V10.7018V10.7895V10.8772V10.9649V11.0526V11.1404V11.2281V11.3158V11.4035V11.4912V11.579V43.3333V43.421V43.5088V43.5965V43.6842V43.7719V43.8596V43.9474V44.0351V44.1228V44.2105V44.2982V44.386V44.4737V44.5614V44.6491L0.214209 44.8246V45V45.1754V45.3509V45.5263V45.7017V45.8772V46.0526L0.301464 46.2281V46.4035V46.5789V46.7544L0.38872 46.9298V47.1053V47.3684L0.475975 47.5439V47.7193V47.8947L0.563229 48.0702V48.2456L0.650485 48.4211L0.73774 48.5965V48.7719L0.824996 48.9473L0.912251 49.1228L0.999505 49.2982L1.08676 49.4737L1.17402 49.6491L1.26127 49.8245V50L1.34853 50.0877L1.43578 50.2631L1.52304 50.4386L1.61029 50.614L1.69755 50.7895L1.87206 50.9649L1.95931 51.0526L2.04657 51.2281L2.13382 51.4035L2.30833 51.4912L2.39559 51.6667L2.48284 51.7544L2.65735 51.9298L2.74461 52.0175L2.83186 52.193L3.00638 52.2807L3.18088 52.4561L3.26814 52.5438L3.44265 52.6316L3.61716 52.807L3.70442 52.8947L3.87893 52.9824L4.05344 53.1579L4.14069 53.2456L4.3152 53.3333L4.48971 53.421L4.66422 53.5088L4.83873 53.5965L5.01324 53.6842L5.1005 53.8596H5.27501L5.44952 53.9474L5.62403 54.0351L5.79854 54.1228L5.97305 54.2105L6.14756 54.2982H6.32207L6.49658 54.386L6.67109 54.4737H6.8456L7.02011 54.5614H7.19462L7.36913 54.6491H7.54364L7.6309 54.7368H7.89267H8.06718H8.24168L8.4162 54.8245H8.59071H8.76522H8.93973H9.20149L9.376 54.9123H9.55051H9.72502H9.89953H10.074H10.2486L10.4231 55H10.5103H10.5976H10.6848H10.7721H10.8593H10.9466H11.0339H11.1211H11.2084H11.2956H11.3829H11.4701H11.5574H11.6446H11.8191H11.9064H11.9937H12.0809H12.1682H12.3427H12.4299H12.5172H12.6044H12.6917H12.8662H12.9535H13.0407H13.128H13.2152H151.166H151.253H151.34H151.427H151.515H151.602H151.689H151.776H151.951H152.038H152.125H152.213H152.3H152.387H152.474H152.649H152.736H152.824H152.911H152.998H153.085H153.173H153.26H153.347H153.434H153.522H153.609H153.696H153.783H153.871H153.958L154.132 54.9123H154.307H154.481H154.656H154.83H155.005L155.179 54.8245H155.354H155.528H155.703H155.877L156.052 54.7368H156.226H156.401H156.663L156.837 54.6491H157.012L157.186 54.5614H157.361L157.535 54.4737H157.71L157.884 54.386L158.059 54.2982H158.233L158.408 54.2105L158.582 54.1228L158.757 54.0351L158.931 53.9474L159.106 53.8596H159.28L159.368 53.6842L159.542 53.5965L159.717 53.5088L159.891 53.421L159.978 53.3333L160.153 53.2456L160.327 53.1579L160.502 52.9824L160.589 52.8947L160.764 52.807L160.938 52.6316L161.025 52.5438L161.2 52.4561L161.287 52.2807L161.462 52.193L161.549 52.0175L161.724 51.9298L161.811 51.7544L161.898 51.6667L162.073 51.4912L162.16 51.4035L162.247 51.2281L162.422 51.0526L162.509 50.9649L162.596 50.7895L162.683 50.614L162.771 50.4386L162.858 50.2631L162.945 50.0877L163.12 50V49.8245L163.207 49.6491L163.294 49.4737L163.381 49.2982L163.469 49.1228L163.556 48.9473V48.7719L163.643 48.5965L163.73 48.4211V48.2456L163.818 48.0702V47.8947L163.905 47.7193V47.5439L163.992 47.3684V47.1053V46.9298V46.7544V46.5789L164.079 46.4035V46.2281V46.0526V45.8772V45.7017L164.167 45.5263V45.3509V45.1754V45V44.8246L164.254 44.6491V44.5614V44.4737V44.386V44.2982V44.2105V44.1228V44.0351V43.9474V43.8596V43.7719V43.6842V43.5965V43.5088V43.421V43.3333V43.1579V43.0702V42.9824V42.8947V42.807V42.7193V42.6316V42.5439V42.4561V42.2807V42.193V42.1053V42.0175V41.9298V41.8421V13.0702V12.9824V12.8947V12.807V12.7193V12.6316V12.5438V12.4561V12.3684V12.2807V12.1052V12.0176V11.9298V11.8421V11.7544V11.579V11.4912V11.4035V11.3158V11.2281V11.1404V11.0526V10.9649V10.8772V10.7895V10.7018V10.614V10.5263V10.4386V10.3509L164.167 10.1754V9.99999V9.82457V9.64912V9.47367L164.079 9.29825V9.1228V8.85965V8.6842V8.50878L163.992 8.33333V8.15788V7.98246V7.80701V7.54386L163.905 7.36841V7.19299L163.818 7.01754V6.84209L163.73 6.66667V6.49122L163.643 6.3158L163.556 6.14035V5.9649L163.469 5.78948L163.381 5.61403L163.294 5.43861L163.207 5.26316L163.12 5.08771V4.91229L162.858 4.64911L162.683 4.29824L162.509 4.03509L162.247 3.77192L162.073 3.42105L161.811 3.1579L161.549 2.89473L161.287 2.63158L161.025 2.36843L160.764 2.19298L160.502 1.92983L160.153 1.75439L159.891 1.49124L159.542 1.31579L159.28 1.14034H159.106L158.931 1.05264L158.757 0.964917L158.582 0.877193L158.408 0.789468L158.233 0.701744H158.059L157.884 0.614046L157.71 0.526321H157.535L157.361 0.438596H157.186L157.012 0.350872H156.837L156.663 0.263147H156.401H156.226L156.052 0.175449H155.877H155.703H155.528L155.354 0.0877246H155.179H155.005H154.83H154.656H154.481H154.307H154.132L153.958 0H153.871H153.783H153.696H153.609H153.522H153.434H153.347H153.26H153.173H153.085H152.998H152.911H152.824H152.736H152.649H152.474H152.387H152.3H152.213H152.125H152.038H151.951H151.776H151.689H151.602H151.515H151.427H151.34H151.253H151.166Z" fill="#A6A6A6"/>
<path d="M11.6451 53.684H11.5578H11.4706H11.3833H11.2961H11.2088H11.1216H11.0343H10.947H10.8598H10.7725H10.6853H10.598H10.5108H10.4235L10.249 53.5963H10.0745H9.89998H9.72547H9.55096H9.37645H9.20194H9.02743H8.85292L8.67841 53.5086H8.5039H8.32939H8.15488H7.98037H7.80586L7.7186 53.4208H7.54409L7.36958 53.3331H7.19507L7.10781 53.2454H6.9333L6.75879 53.1577L6.67154 53.07H6.49703L6.32252 52.9822L6.23526 52.8945H6.06075L5.88624 52.8068L5.71173 52.7191H5.53722L5.44997 52.6314L5.27546 52.5436L5.1882 52.4559L5.01369 52.3682L4.92644 52.2805L4.75193 52.1928L4.66467 52.105L4.49016 52.0173L4.40291 51.9296L4.31565 51.8419L4.14114 51.7542L4.05388 51.5787L3.87937 51.491L3.79212 51.4033L3.61761 51.3156L3.53035 51.1401L3.4431 51.0524L3.35584 50.9647L3.26859 50.7893L3.18133 50.7015L3.00682 50.5261L2.91957 50.4384L2.83231 50.2629L2.74506 50.1752L2.6578 49.9998L2.57055 49.9121L2.48329 49.7366L2.39604 49.6489L2.30878 49.4735L2.22153 49.3857V49.2103L2.13427 49.0349L2.04702 48.9471V48.7717L1.95976 48.5963L1.8725 48.4208V48.3331L1.78525 48.1577V47.9823L1.69799 47.8068V47.7191L1.61074 47.5437V47.3682V47.1928L1.52348 47.1051V46.9296V46.7542L1.43623 46.5787V46.4033V46.2279V46.0524L1.34897 45.877V45.7015V45.5261V45.3507V45.1752V44.9998V44.8244V44.6489L1.26172 44.5612V44.4735V44.3858V44.298V44.2103V44.1226V43.9472V43.8594V43.7717V43.684V43.5086V43.4208V43.3331V11.491V11.4033V11.3156V11.2279V11.1402V11.0524V10.877V10.7893V10.7016V10.6138V10.4384V10.3507V10.263L1.34897 10.0875V9.91206V9.73664V9.56119V9.38577V9.21032V9.03487V8.85945L1.43623 8.684V8.50858V8.33313V8.15768L1.52348 7.98226V7.80681V7.71908L1.61074 7.54366V7.36821V7.19279L1.69799 7.01734V6.92961L1.78525 6.75419V6.57874L1.8725 6.40329V6.3156L1.95976 6.14015L2.04702 5.9647V5.78927L2.13427 5.70155L2.22153 5.5261V5.4384L2.30878 5.26295L2.39604 5.0875L2.48329 4.99981L2.57055 4.82436L2.6578 4.73663L2.74506 4.56121L2.83231 4.47349L2.91957 4.29804L3.00682 4.21031L3.18133 4.12261L3.26859 3.94716L3.35584 3.85944L3.4431 3.68402L3.53035 3.59629L3.61761 3.50857L3.79212 3.33312L3.87937 3.24542L4.05388 3.1577L4.14114 3.06997L4.31565 2.98225L4.40291 2.80682L4.49016 2.7191L4.66467 2.63138L4.75193 2.54365L4.92644 2.45593L5.01369 2.36823L5.1882 2.2805L5.27546 2.19278L5.44997 2.10505H5.53722L5.71173 2.01733L5.88624 1.92963L6.06075 1.84191H6.23526L6.32252 1.75418L6.49703 1.66646H6.67154L6.75879 1.57873H6.9333L7.10781 1.49104H7.19507L7.36958 1.40331H7.54409H7.7186H7.80586L7.98037 1.31559H8.15488L8.32939 1.22786H8.5039H8.67841H8.85292L9.02743 1.14014H9.20194H9.37645H9.55096H9.72547H9.89998H10.0745H10.249H10.4235H11.6451H152.649H153.871H153.958H154.133H154.307H154.482H154.656H154.831H155.005H155.18L155.354 1.22786H155.529H155.703H155.878L156.052 1.31559H156.227L156.401 1.40331H156.489H156.663H156.838L157.012 1.49104H157.099L157.274 1.57873H157.448L157.623 1.66646H157.71L157.885 1.75418L158.059 1.84191H158.234L158.321 1.92963L158.496 2.01733L158.67 2.10505L158.932 2.19278L159.194 2.36823L159.455 2.54365L159.717 2.80682L159.979 2.98225L160.241 3.1577L160.502 3.42084L160.677 3.59629L160.939 3.85944L161.113 4.12261L161.288 4.29804L161.462 4.56121L161.637 4.82436L161.811 5.0875L161.986 5.4384V5.5261L162.073 5.70155L162.16 5.78927V5.9647L162.248 6.14015L162.335 6.3156V6.40329L162.422 6.57874L162.509 6.75419V6.92961L162.597 7.01734V7.19279L162.684 7.36821V7.54366L162.771 7.71908V7.89453V8.06998V8.2454V8.42085V8.59628L162.858 8.77172V8.94717V9.1226V9.29805V9.47347V9.64892V9.82437V9.99979V10.1752L162.946 10.3507V10.4384V10.5261V10.6138V10.7016V10.7893V10.877V10.9647V11.0524V11.1402V11.2279V11.3156V11.4033L163.033 11.491V11.5788V11.6665V11.7542V11.8419V12.0173V12.105V12.1928V12.2805V12.3682V12.5436V12.6314V12.7191V12.8068V12.8945V13.07V41.8419V41.9296V42.0173V42.1051V42.1928V42.2805V42.3682V42.4559V42.5436V42.6314V42.8068V42.8945V42.9822V43.07V43.1577V43.3331H162.946V43.4208V43.5086V43.5963V43.684V43.7717V43.8594V43.9472V44.0349V44.1226V44.2103V44.298V44.3858V44.4735V44.5612L162.858 44.6489V44.8244V44.9998V45.1752V45.3507V45.5261V45.7015V45.877V46.0524L162.771 46.2279V46.4033V46.5787V46.7542V46.9296V47.1051L162.684 47.1928V47.3682L162.597 47.5437V47.7191L162.509 47.8068V47.9823L162.422 48.1577L162.335 48.3331V48.4208L162.248 48.5963L162.16 48.7717V48.9471L162.073 49.0349L161.986 49.2103V49.3857L161.898 49.4735L161.811 49.6489L161.724 49.7366L161.637 49.9121L161.549 49.9998L161.462 50.1752L161.375 50.2629L161.288 50.4384L161.2 50.5261L161.113 50.7015L161.026 50.7893L160.851 50.9647L160.764 51.0524L160.677 51.1401L160.59 51.3156L160.415 51.4033L160.328 51.491L160.241 51.5787L160.066 51.7542L159.979 51.8419L159.804 51.9296L159.717 52.0173L159.543 52.105L159.455 52.1928L159.281 52.2805L159.194 52.3682L159.019 52.4559L158.932 52.5436L158.757 52.6314L158.67 52.7191H158.496L158.321 52.8068L158.234 52.8945H158.059L157.885 52.9822L157.71 53.07H157.623L157.448 53.1577L157.274 53.2454H157.099L157.012 53.3331H156.838L156.663 53.4208H156.489L156.401 53.5086H156.227H156.052H155.878H155.703H155.529L155.354 53.5963H155.18H155.005H154.831H154.656H154.482H154.307H154.133H153.958L153.871 53.684H153.784H153.697H153.609H153.522H153.435H153.347H153.26H153.173H153.086H152.998H152.911H152.824H152.737H152.649H151.166H11.6451Z" fill="black"/>
<path d="M56.7344 14.6508C56.7344 15.674 56.4332 16.4884 55.8296 17.0964C55.1434 17.8193 54.2507 18.1807 53.1528 18.1807C52.0998 18.1807 51.206 17.8144 50.4712 17.0806C49.734 16.348 49.3672 15.4384 49.3672 14.3542C49.3672 13.2687 49.734 12.3603 50.4712 11.6265C51.206 10.8939 52.0998 10.5264 53.1528 10.5264C53.6738 10.5264 54.1742 10.629 54.6479 10.8341C55.1227 11.0392 55.5029 11.3115 55.7883 11.6521L55.147 12.2968C54.6649 11.7181 54.0005 11.4275 53.1528 11.4275C52.3852 11.4275 51.7221 11.6985 51.1622 12.2407C50.6023 12.784 50.323 13.4873 50.323 14.3542C50.323 15.2198 50.6023 15.9243 51.1622 16.4664C51.7221 17.0098 52.3852 17.2796 53.1528 17.2796C53.9665 17.2796 54.6442 17.0073 55.1883 16.4615C55.5405 16.1062 55.7434 15.613 55.798 14.9781H53.1528V14.0977H56.6834C56.7174 14.2894 56.7344 14.4738 56.7344 14.6508Z" fill="white"/>
<path d="M56.7344 14.6508C56.7344 15.674 56.4332 16.4884 55.8296 17.0964C55.1434 17.8193 54.2507 18.1807 53.1528 18.1807C52.0998 18.1807 51.206 17.8144 50.4712 17.0806C49.734 16.348 49.3672 15.4384 49.3672 14.3542C49.3672 13.2687 49.734 12.3603 50.4712 11.6265C51.206 10.8939 52.0998 10.5264 53.1528 10.5264C53.6738 10.5264 54.1742 10.629 54.6479 10.8341C55.1227 11.0392 55.5029 11.3115 55.7883 11.6521L55.147 12.2968C54.6649 11.7181 54.0005 11.4275 53.1528 11.4275C52.3852 11.4275 51.7221 11.6985 51.1622 12.2407C50.6023 12.784 50.323 13.4873 50.323 14.3542C50.323 15.2198 50.6023 15.9243 51.1622 16.4664C51.7221 17.0098 52.3852 17.2796 53.1528 17.2796C53.9665 17.2796 54.6442 17.0073 55.1883 16.4615C55.5405 16.1062 55.7434 15.613 55.798 14.9781H53.1528V14.0977H56.6834C56.7174 14.2894 56.7344 14.4738 56.7344 14.6508Z" fill="white"/>
<path d="M62.3325 11.5911H59.0145V13.9134H62.0071V14.7937H59.0145V17.116H62.3325V18.0171H58.0781V10.6913H62.3325V11.5911Z" fill="white"/>
<path d="M62.3325 11.5911H59.0145V13.9134H62.0071V14.7937H59.0145V17.116H62.3325V18.0171H58.0781V10.6913H62.3325V11.5911Z" fill="white"/>
<path d="M66.2795 18.0166H65.3431V11.5906H63.3076V10.6908H68.315V11.5906H66.2795V18.0166Z" fill="white"/>
<path d="M66.2795 18.0166H65.3431V11.5906H63.3076V10.6908H68.315V11.5906H66.2795V18.0166Z" fill="white"/>
<path d="M71.9395 10.6908H72.8763V18.0166H71.9395V10.6908Z" fill="white"/>
<path d="M77.0285 18.0166H76.0922V11.5906H74.0566V10.6908H79.0641V11.5906H77.0285V18.0166Z" fill="white"/>
<path d="M77.0285 18.0166H76.0922V11.5906H74.0566V10.6908H79.0641V11.5906H77.0285V18.0166Z" fill="white"/>
<path d="M83.8916 16.4567C84.4309 17.0061 85.0904 17.2796 85.8713 17.2796C86.6522 17.2796 87.3117 17.0061 87.8509 16.4567C88.3902 15.9072 88.661 15.2064 88.661 14.3542C88.661 13.5019 88.3902 12.7999 87.8509 12.2516C87.3117 11.7022 86.6522 11.4275 85.8713 11.4275C85.0904 11.4275 84.4309 11.7022 83.8916 12.2516C83.3536 12.7999 83.0828 13.5019 83.0828 14.3542C83.0828 15.2064 83.3536 15.9072 83.8916 16.4567ZM88.5432 17.0696C87.8266 17.8107 86.9364 18.1807 85.8713 18.1807C84.8062 18.1807 83.9159 17.8107 83.2006 17.0696C82.484 16.3297 82.127 15.4249 82.127 14.3542C82.127 13.2834 82.484 12.3774 83.2006 11.6375C83.9159 10.8976 84.8062 10.5264 85.8713 10.5264C86.9303 10.5264 87.8181 10.8988 88.5383 11.6424C89.2573 12.386 89.6168 13.2895 89.6168 14.3542C89.6168 15.4249 89.2585 16.3297 88.5432 17.0696Z" fill="white"/>
<path d="M83.8916 16.4567C84.4309 17.0061 85.0904 17.2796 85.8713 17.2796C86.6522 17.2796 87.3117 17.0061 87.8509 16.4567C88.3902 15.9072 88.661 15.2064 88.661 14.3542C88.661 13.5019 88.3902 12.7999 87.8509 12.2516C87.3117 11.7022 86.6522 11.4275 85.8713 11.4275C85.0904 11.4275 84.4309 11.7022 83.8916 12.2516C83.3536 12.7999 83.0828 13.5019 83.0828 14.3542C83.0828 15.2064 83.3536 15.9072 83.8916 16.4567ZM88.5432 17.0696C87.8266 17.8107 86.9364 18.1807 85.8713 18.1807C84.8062 18.1807 83.9159 17.8107 83.2006 17.0696C82.484 16.3297 82.127 15.4249 82.127 14.3542C82.127 13.2834 82.484 12.3774 83.2006 11.6375C83.9159 10.8976 84.8062 10.5264 85.8713 10.5264C86.9303 10.5264 87.8181 10.8988 88.5383 11.6424C89.2573 12.386 89.6168 13.2895 89.6168 14.3542C89.6168 15.4249 89.2585 16.3297 88.5432 17.0696Z" fill="white"/>
<path d="M90.9307 18.0166V10.6908H92.0699L95.6114 16.3891H95.6527L95.6114 14.9776V10.6908H96.549V18.0166H95.5713L91.8658 12.0412H91.8258L91.8658 13.4538V18.0166H90.9307Z" fill="white"/>
<path d="M90.9307 18.0166V10.6908H92.0699L95.6114 16.3891H95.6527L95.6114 14.9776V10.6908H96.549V18.0166H95.5713L91.8658 12.0412H91.8258L91.8658 13.4538V18.0166H90.9307Z" fill="white"/>
<path d="M129.019 38.7728H131.285V23.5095H129.019V38.7728ZM149.431 29.0075L146.833 35.6252H146.756L144.059 29.0075H141.618L145.661 38.2564L143.358 43.4015H145.72L151.951 29.0075H149.431ZM136.579 37.0391C135.836 37.0391 134.801 36.6667 134.801 35.7424C134.801 34.5654 136.09 34.1136 137.204 34.1136C138.199 34.1136 138.669 34.3297 139.274 34.624C139.098 36.0379 137.887 37.0391 136.579 37.0391ZM136.853 28.6742C135.212 28.6742 133.511 29.4007 132.809 31.0112L134.821 31.8548C135.251 31.0112 136.051 30.7352 136.891 30.7352C138.063 30.7352 139.255 31.4422 139.274 32.6998V32.856C138.864 32.6204 137.986 32.2675 136.911 32.2675C134.743 32.2675 132.535 33.4653 132.535 35.7033C132.535 37.746 134.313 39.0622 136.305 39.0622C137.829 39.0622 138.67 38.3748 139.197 37.569H139.274V38.7472H141.462V32.8951C141.462 30.1858 139.45 28.6742 136.853 28.6742ZM122.847 30.8659H119.624V25.634H122.847C124.541 25.634 125.503 27.0442 125.503 28.2493C125.503 29.4324 124.541 30.8659 122.847 30.8659ZM122.789 23.5095H117.359V38.7728H119.624V32.9903H122.789C125.3 32.9903 127.769 31.1613 127.769 28.2493C127.769 25.3373 125.3 23.5095 122.789 23.5095ZM93.1777 37.0415C91.6122 37.0415 90.3017 35.7241 90.3017 33.9146C90.3017 32.0856 91.6122 30.7474 93.1777 30.7474C94.7237 30.7474 95.9358 32.0856 95.9358 33.9146C95.9358 35.7241 94.7237 37.0415 93.1777 37.0415ZM95.7804 29.8622H95.7014C95.1925 29.253 94.2149 28.7023 92.9821 28.7023C90.3989 28.7023 88.0318 30.9831 88.0318 33.9146C88.0318 36.8254 90.3989 39.0879 92.9821 39.0879C94.2149 39.0879 95.1925 38.5372 95.7014 37.9072H95.7804V38.6556C95.7804 40.6421 94.7237 41.7044 93.021 41.7044C91.6316 41.7044 90.7705 40.7008 90.4183 39.8546L88.4423 40.6812C89.0095 42.0585 90.5167 43.7495 93.021 43.7495C95.682 43.7495 97.9325 42.1757 97.9325 38.3406V29.0161H95.7804V29.8622ZM99.498 38.7728H101.768V23.5083H99.498V38.7728ZM105.113 33.7376C105.054 31.7315 106.659 30.7084 107.812 30.7084C108.714 30.7084 109.476 31.1601 109.73 31.8097L105.113 33.7376ZM112.157 32.0062C111.727 30.8463 110.415 28.7023 107.735 28.7023C105.074 28.7023 102.863 30.806 102.863 33.8951C102.863 36.8059 105.054 39.0879 107.989 39.0879C110.357 39.0879 111.727 37.6325 112.294 36.7863L110.533 35.6057C109.946 36.4713 109.144 37.0415 107.989 37.0415C106.835 37.0415 106.013 36.5104 105.484 35.4689L112.391 32.596L112.157 32.0062ZM57.1299 30.2957V32.4983H62.3729C62.2162 33.7376 61.8057 34.6423 61.1802 35.2711C60.4163 36.0391 59.2225 36.8852 57.1299 36.8852C53.9005 36.8852 51.3767 34.2687 51.3767 31.0234C51.3767 27.7768 53.9005 25.1615 57.1299 25.1615C58.8715 25.1615 60.1431 25.8501 61.0819 26.7353L62.6279 25.181C61.3163 23.9222 59.5759 22.9577 57.1299 22.9577C52.7078 22.9577 48.9902 26.5778 48.9902 31.0234C48.9902 35.4689 52.7078 39.0879 57.1299 39.0879C59.5164 39.0879 61.3163 38.3003 62.7251 36.8254C64.174 35.37 64.6234 33.3249 64.6234 31.6717C64.6234 31.1601 64.5845 30.6888 64.5056 30.2957H57.1299ZM70.5854 37.0415C69.0199 37.0415 67.6694 35.7436 67.6694 33.8951C67.6694 32.0258 69.0199 30.7474 70.5854 30.7474C72.1497 30.7474 73.5002 32.0258 73.5002 33.8951C73.5002 35.7436 72.1497 37.0415 70.5854 37.0415ZM70.5854 28.7023C67.7277 28.7023 65.3995 30.8854 65.3995 33.8951C65.3995 36.8852 67.7277 39.0879 70.5854 39.0879C73.4419 39.0879 75.7701 36.8852 75.7701 33.8951C75.7701 30.8854 73.4419 28.7023 70.5854 28.7023ZM81.8961 37.0415C80.3306 37.0415 78.9801 35.7436 78.9801 33.8951C78.9801 32.0258 80.3306 30.7474 81.8961 30.7474C83.4616 30.7474 84.8109 32.0258 84.8109 33.8951C84.8109 35.7436 83.4616 37.0415 81.8961 37.0415ZM81.8961 28.7023C79.0396 28.7023 76.7114 30.8854 76.7114 33.8951C76.7114 36.8852 79.0396 39.0879 81.8961 39.0879C84.7526 39.0879 87.0808 36.8852 87.0808 33.8951C87.0808 30.8854 84.7526 28.7023 81.8961 28.7023Z" fill="white"/>
<path d="M25.8291 26.9038L12.4648 41.1632C12.4661 41.1657 12.4661 41.1695 12.4674 41.172C12.8778 42.7204 14.2837 43.8599 15.9531 43.8599C16.6209 43.8599 17.2472 43.6782 17.7845 43.3602L17.8271 43.3349L32.8697 34.6089L25.8291 26.9038Z" fill="#EA4335"/>
<path d="M39.3491 24.4757L39.3365 24.4668L32.8421 20.6824L25.5254 27.2279L32.8684 34.6074L39.3278 30.8609C40.46 30.2451 41.2294 29.045 41.2294 27.662C41.2294 26.2865 40.4713 25.0927 39.3491 24.4757Z" fill="#FBBC04"/>
<path d="M12.4648 14.0993C12.3845 14.3971 12.3418 14.71 12.3418 15.0331V40.2305C12.3418 40.5536 12.3845 40.8665 12.4661 41.1631L26.2885 27.2684L12.4648 14.0993Z" fill="#4285F4"/>
<path d="M25.9283 27.6318L32.8446 20.6801L17.8196 11.9225C17.2736 11.5932 16.6359 11.4039 15.9543 11.4039C14.2849 11.4039 12.8766 12.5459 12.4661 14.0955C12.4661 14.0968 12.4648 14.098 12.4648 14.0993L25.9283 27.6318Z" fill="#34A853"/>
</svg>
