<svg width="165" height="55" viewBox="0 0 165 55" fill="none" xmlns="http://www.w3.org/2000/svg">
<path d="M151.039 0H13.0883H13.001H12.9138H12.8265H12.7393H12.5647H12.4775H12.3902H12.303H12.2157H12.0412H11.954H11.8667H11.7794H11.6922H11.5177H11.4304H11.3432H11.2559H11.1687H11.0814H10.9942H10.9069H10.8196H10.7324H10.6451H10.5579H10.4706H10.3834H10.2961L10.1216 0.0877246H9.94709H9.77258H9.59807H9.42356H9.24905H9.07454H8.81278L8.63826 0.175449H8.46375H8.28924H8.11473L7.94022 0.263147H7.76571H7.50395L7.41669 0.350872H7.24218L7.06767 0.438596H6.89316L6.71865 0.526321H6.54414L6.36963 0.614046L6.19512 0.701744H6.02061L5.8461 0.789468L5.67159 0.877193L5.49708 0.964917L5.32257 1.05264L5.14806 1.14034H4.97355L4.88629 1.22806L4.71178 1.31579L4.53727 1.40351L4.36276 1.49124L4.18825 1.57894L4.01374 1.75439L3.92648 1.84211L3.75197 1.92983L3.57746 2.01753L3.49021 2.19298L3.3157 2.28071L3.14119 2.36843L3.05393 2.54385L2.87942 2.63158L2.70491 2.7193L2.61766 2.89473L2.5304 3.07017L2.35589 3.1579L2.26864 3.33332L2.18138 3.50877L2.00687 3.5965L1.91961 3.77192L1.83236 3.85964L1.7451 4.03509L1.57059 4.21051L1.48334 4.29824L1.39608 4.47369L1.30883 4.64911L1.22157 4.82456L1.13432 4.91229V5.08771L1.04706 5.26316L0.959807 5.43861L0.872552 5.61403L0.785298 5.78948L0.698042 5.9649L0.610787 6.14035V6.3158L0.523531 6.49122L0.436276 6.66667V6.84209L0.349022 7.01754V7.19299V7.36841L0.261767 7.54386V7.80701V7.98246L0.174511 8.15788V8.33333V8.50878V8.6842L0.0872555 8.85965V9.1228V9.29825V9.47367V9.64912V9.82457V9.99999V10.1754L0 10.3509V10.4386V10.5263V10.614V10.7018V10.7895V10.8772V10.9649V11.0526V11.1404V11.2281V11.3158V11.4035V11.4912V11.579V43.3333V43.421V43.5088V43.5965V43.6842V43.7719V43.8596V43.9474V44.0351V44.1228V44.2105V44.2982V44.386V44.4737V44.5614V44.6491L0.0872555 44.8246V45V45.1754V45.3509V45.5263V45.7017V45.8772V46.0526L0.174511 46.2281V46.4035V46.5789V46.7544L0.261767 46.9298V47.1053V47.3684L0.349022 47.5439V47.7193V47.8947L0.436276 48.0702V48.2456L0.523531 48.4211L0.610787 48.5965V48.7719L0.698042 48.9473L0.785298 49.1228L0.872552 49.2982L0.959807 49.4737L1.04706 49.6491L1.13432 49.8245V50L1.22157 50.0877L1.30883 50.2631L1.39608 50.4386L1.48334 50.614L1.57059 50.7895L1.7451 50.9649L1.83236 51.0526L1.91961 51.2281L2.00687 51.4035L2.18138 51.4912L2.26864 51.6667L2.35589 51.7544L2.5304 51.9298L2.61766 52.0175L2.70491 52.193L2.87942 52.2807L3.05393 52.4561L3.14119 52.5438L3.3157 52.6316L3.49021 52.807L3.57746 52.8947L3.75197 52.9824L3.92648 53.1579L4.01374 53.2456L4.18825 53.3333L4.36276 53.421L4.53727 53.5088L4.71178 53.5965L4.88629 53.6842L4.97355 53.8596H5.14806L5.32257 53.9474L5.49708 54.0351L5.67159 54.1228L5.8461 54.2105L6.02061 54.2982H6.19512L6.36963 54.386L6.54414 54.4737H6.71865L6.89316 54.5614H7.06767L7.24218 54.6491H7.41669L7.50395 54.7368H7.76571H7.94022H8.11473L8.28924 54.8245H8.46375H8.63826H8.81278H9.07454L9.24905 54.9123H9.42356H9.59807H9.77258H9.94709H10.1216L10.2961 55H10.3834H10.4706H10.5579H10.6451H10.7324H10.8196H10.9069H10.9942H11.0814H11.1687H11.2559H11.3432H11.4304H11.5177H11.6922H11.7794H11.8667H11.954H12.0412H12.2157H12.303H12.3902H12.4775H12.5647H12.7393H12.8265H12.9138H13.001H13.0883H151.039H151.126H151.213H151.3H151.388H151.475H151.562H151.65H151.824H151.911H151.999H152.086H152.173H152.26H152.348H152.522H152.609H152.697H152.784H152.871H152.958H153.046H153.133H153.22H153.307H153.395H153.482H153.569H153.656H153.744H153.831L154.005 54.9123H154.18H154.354H154.529H154.703H154.878L155.052 54.8245H155.227H155.401H155.576H155.75L155.925 54.7368H156.1H156.274H156.536L156.71 54.6491H156.885L157.059 54.5614H157.234L157.408 54.4737H157.583L157.757 54.386L157.932 54.2982H158.106L158.281 54.2105L158.455 54.1228L158.63 54.0351L158.804 53.9474L158.979 53.8596H159.153L159.241 53.6842L159.415 53.5965L159.59 53.5088L159.764 53.421L159.851 53.3333L160.026 53.2456L160.201 53.1579L160.375 52.9824L160.462 52.8947L160.637 52.807L160.811 52.6316L160.899 52.5438L161.073 52.4561L161.16 52.2807L161.335 52.193L161.422 52.0175L161.597 51.9298L161.684 51.7544L161.771 51.6667L161.946 51.4912L162.033 51.4035L162.12 51.2281L162.295 51.0526L162.382 50.9649L162.469 50.7895L162.556 50.614L162.644 50.4386L162.731 50.2631L162.818 50.0877L162.993 50V49.8245L163.08 49.6491L163.167 49.4737L163.254 49.2982L163.342 49.1228L163.429 48.9473V48.7719L163.516 48.5965L163.603 48.4211V48.2456L163.691 48.0702V47.8947L163.778 47.7193V47.5439L163.865 47.3684V47.1053V46.9298V46.7544V46.5789L163.952 46.4035V46.2281V46.0526V45.8772V45.7017L164.04 45.5263V45.3509V45.1754V45V44.8246L164.127 44.6491V44.5614V44.4737V44.386V44.2982V44.2105V44.1228V44.0351V43.9474V43.8596V43.7719V43.6842V43.5965V43.5088V43.421V43.3333V43.1579V43.0702V42.9824V42.8947V42.807V42.7193V42.6316V42.5439V42.4561V42.2807V42.193V42.1053V42.0175V41.9298V41.8421V13.0702V12.9824V12.8947V12.807V12.7193V12.6316V12.5438V12.4561V12.3684V12.2807V12.1052V12.0176V11.9298V11.8421V11.7544V11.579V11.4912V11.4035V11.3158V11.2281V11.1404V11.0526V10.9649V10.8772V10.7895V10.7018V10.614V10.5263V10.4386V10.3509L164.04 10.1754V9.99999V9.82457V9.64912V9.47367L163.952 9.29825V9.1228V8.85965V8.6842V8.50878L163.865 8.33333V8.15788V7.98246V7.80701V7.54386L163.778 7.36841V7.19299L163.691 7.01754V6.84209L163.603 6.66667V6.49122L163.516 6.3158L163.429 6.14035V5.9649L163.342 5.78948L163.254 5.61403L163.167 5.43861L163.08 5.26316L162.993 5.08771V4.91229L162.731 4.64911L162.556 4.29824L162.382 4.03509L162.12 3.77192L161.946 3.42105L161.684 3.1579L161.422 2.89473L161.16 2.63158L160.899 2.36843L160.637 2.19298L160.375 1.92983L160.026 1.75439L159.764 1.49124L159.415 1.31579L159.153 1.14034H158.979L158.804 1.05264L158.63 0.964917L158.455 0.877193L158.281 0.789468L158.106 0.701744H157.932L157.757 0.614046L157.583 0.526321H157.408L157.234 0.438596H157.059L156.885 0.350872H156.71L156.536 0.263147H156.274H156.1L155.925 0.175449H155.75H155.576H155.401L155.227 0.0877246H155.052H154.878H154.703H154.529H154.354H154.18H154.005L153.831 0H153.744H153.656H153.569H153.482H153.395H153.307H153.22H153.133H153.046H152.958H152.871H152.784H152.697H152.609H152.522H152.348H152.26H152.173H152.086H151.999H151.911H151.824H151.65H151.562H151.475H151.388H151.3H151.213H151.126H151.039Z" fill="#A6A6A6"/>
<path d="M11.5181 53.684H11.4309H11.3436H11.2564H11.1691H11.0819H10.9946H10.9073H10.8201H10.7328H10.6456H10.5583H10.4711H10.3838H10.2966L10.1221 53.5963H9.94754H9.77303H9.59852H9.42401H9.2495H9.07499H8.90048H8.72597L8.55145 53.5086H8.37695H8.20244H8.02792H7.85341H7.6789L7.59165 53.4208H7.41714L7.24263 53.3331H7.06812L6.98086 53.2454H6.80635L6.63184 53.1577L6.54459 53.07H6.37008L6.19557 52.9822L6.10831 52.8945H5.9338L5.75929 52.8068L5.58478 52.7191H5.41027L5.32301 52.6314L5.1485 52.5436L5.06125 52.4559L4.88674 52.3682L4.79948 52.2805L4.62497 52.1928L4.53772 52.105L4.36321 52.0173L4.27595 51.9296L4.1887 51.8419L4.01419 51.7542L3.92693 51.5787L3.75242 51.491L3.66517 51.4033L3.49065 51.3156L3.4034 51.1401L3.31615 51.0524L3.22889 50.9647L3.14163 50.7893L3.05438 50.7015L2.87987 50.5261L2.79261 50.4384L2.70536 50.2629L2.6181 50.1752L2.53085 49.9998L2.44359 49.9121L2.35634 49.7366L2.26908 49.6489L2.18183 49.4735L2.09457 49.3857V49.2103L2.00732 49.0349L1.92006 48.9471V48.7717L1.83281 48.5963L1.74555 48.4208V48.3331L1.6583 48.1577V47.9823L1.57104 47.8068V47.7191L1.48379 47.5437V47.3682V47.1928L1.39653 47.1051V46.9296V46.7542L1.30927 46.5787V46.4033V46.2279V46.0524L1.22202 45.877V45.7015V45.5261V45.3507V45.1752V44.9998V44.8244V44.6489L1.13477 44.5612V44.4735V44.3858V44.298V44.2103V44.1226V43.9472V43.8594V43.7717V43.684V43.5086V43.4208V43.3331V11.491V11.4033V11.3156V11.2279V11.1402V11.0524V10.877V10.7893V10.7016V10.6138V10.4384V10.3507V10.263L1.22202 10.0875V9.91206V9.73664V9.56119V9.38577V9.21032V9.03487V8.85945L1.30927 8.684V8.50858V8.33313V8.15768L1.39653 7.98226V7.80681V7.71908L1.48379 7.54366V7.36821V7.19279L1.57104 7.01734V6.92961L1.6583 6.75419V6.57874L1.74555 6.40329V6.3156L1.83281 6.14015L1.92006 5.9647V5.78927L2.00732 5.70155L2.09457 5.5261V5.4384L2.18183 5.26295L2.26908 5.0875L2.35634 4.99981L2.44359 4.82436L2.53085 4.73663L2.6181 4.56121L2.70536 4.47349L2.79261 4.29804L2.87987 4.21031L3.05438 4.12261L3.14163 3.94716L3.22889 3.85944L3.31615 3.68402L3.4034 3.59629L3.49065 3.50857L3.66517 3.33312L3.75242 3.24542L3.92693 3.1577L4.01419 3.06997L4.1887 2.98225L4.27595 2.80682L4.36321 2.7191L4.53772 2.63138L4.62497 2.54365L4.79948 2.45593L4.88674 2.36823L5.06125 2.2805L5.1485 2.19278L5.32301 2.10505H5.41027L5.58478 2.01733L5.75929 1.92963L5.9338 1.84191H6.10831L6.19557 1.75418L6.37008 1.66646H6.54459L6.63184 1.57873H6.80635L6.98086 1.49104H7.06812L7.24263 1.40331H7.41714H7.59165H7.6789L7.85341 1.31559H8.02792L8.20244 1.22786H8.37695H8.55145H8.72597L8.90048 1.14014H9.07499H9.2495H9.42401H9.59852H9.77303H9.94754H10.1221H10.2966H11.5181H152.523H153.744H153.831H154.006H154.18H154.355H154.529H154.704H154.878H155.053L155.227 1.22786H155.402H155.576H155.751L155.925 1.31559H156.1L156.274 1.40331H156.362H156.536H156.711L156.885 1.49104H156.973L157.147 1.57873H157.322L157.496 1.66646H157.583L157.758 1.75418L157.932 1.84191H158.107L158.194 1.92963L158.369 2.01733L158.543 2.10505L158.805 2.19278L159.067 2.36823L159.328 2.54365L159.59 2.80682L159.852 2.98225L160.114 3.1577L160.375 3.42084L160.55 3.59629L160.812 3.85944L160.986 4.12261L161.161 4.29804L161.335 4.56121L161.51 4.82436L161.684 5.0875L161.859 5.4384V5.5261L161.946 5.70155L162.033 5.78927V5.9647L162.121 6.14015L162.208 6.3156V6.40329L162.295 6.57874L162.382 6.75419V6.92961L162.47 7.01734V7.19279L162.557 7.36821V7.54366L162.644 7.71908V7.89453V8.06998V8.2454V8.42085V8.59628L162.731 8.77172V8.94717V9.1226V9.29805V9.47347V9.64892V9.82437V9.99979V10.1752L162.819 10.3507V10.4384V10.5261V10.6138V10.7016V10.7893V10.877V10.9647V11.0524V11.1402V11.2279V11.3156V11.4033L162.906 11.491V11.5788V11.6665V11.7542V11.8419V12.0173V12.105V12.1928V12.2805V12.3682V12.5436V12.6314V12.7191V12.8068V12.8945V13.07V41.8419V41.9296V42.0173V42.1051V42.1928V42.2805V42.3682V42.4559V42.5436V42.6314V42.8068V42.8945V42.9822V43.07V43.1577V43.3331H162.819V43.4208V43.5086V43.5963V43.684V43.7717V43.8594V43.9472V44.0349V44.1226V44.2103V44.298V44.3858V44.4735V44.5612L162.731 44.6489V44.8244V44.9998V45.1752V45.3507V45.5261V45.7015V45.877V46.0524L162.644 46.2279V46.4033V46.5787V46.7542V46.9296V47.1051L162.557 47.1928V47.3682L162.47 47.5437V47.7191L162.382 47.8068V47.9823L162.295 48.1577L162.208 48.3331V48.4208L162.121 48.5963L162.033 48.7717V48.9471L161.946 49.0349L161.859 49.2103V49.3857L161.772 49.4735L161.684 49.6489L161.597 49.7366L161.51 49.9121L161.423 49.9998L161.335 50.1752L161.248 50.2629L161.161 50.4384L161.073 50.5261L160.986 50.7015L160.899 50.7893L160.724 50.9647L160.637 51.0524L160.55 51.1401L160.463 51.3156L160.288 51.4033L160.201 51.491L160.114 51.5787L159.939 51.7542L159.852 51.8419L159.677 51.9296L159.59 52.0173L159.416 52.105L159.328 52.1928L159.154 52.2805L159.067 52.3682L158.892 52.4559L158.805 52.5436L158.63 52.6314L158.543 52.7191H158.369L158.194 52.8068L158.107 52.8945H157.932L157.758 52.9822L157.583 53.07H157.496L157.322 53.1577L157.147 53.2454H156.973L156.885 53.3331H156.711L156.536 53.4208H156.362L156.274 53.5086H156.1H155.925H155.751H155.576H155.402L155.227 53.5963H155.053H154.878H154.704H154.529H154.355H154.18H154.006H153.831L153.744 53.684H153.657H153.57H153.482H153.395H153.308H153.221H153.133H153.046H152.959H152.872H152.784H152.697H152.61H152.523H151.039H11.5181Z" fill="black"/>
<path d="M33.9424 26.4907V26.2275V25.9644V25.7889V25.5258L34.0297 25.3503V25.0872L34.1169 24.9117L34.2042 24.6486V24.4731L34.2914 24.21L34.3787 24.0345L34.466 23.7714L34.5532 23.5959L34.6405 23.4205L34.815 23.2451L34.9022 22.9819L34.9895 22.8065L35.164 22.631L35.3385 22.4556L35.4258 22.1924L35.6003 22.017L35.7748 21.9293L35.862 21.7538L36.0365 21.5784L36.2111 21.4029L36.3856 21.3152L36.5601 21.1398L36.7346 20.9643L36.9091 20.8766L37.1709 20.7889L36.9963 20.6135L36.9091 20.438L36.7346 20.2626L36.5601 20.0872L36.4728 19.9117L36.2983 19.7363L36.1238 19.5608L36.0365 19.4731L35.862 19.2977L35.6875 19.21L35.513 19.0345L35.3385 18.9468L35.164 18.8591L34.9895 18.7714L34.815 18.6836L34.5532 18.5082L34.3787 18.4205L34.2042 18.3328L33.9424 18.245L33.8552 18.1573L33.6807 18.0696H33.4189L33.2444 17.9819L33.0699 17.8942H32.8081L32.6336 17.8064H32.3718H32.1973H31.9356H31.6738L31.2375 17.7188H30.8012L30.365 17.8064L29.9287 17.8942L29.4924 17.9819L29.0561 18.1573L28.6199 18.3328L28.2708 18.4205L27.9218 18.5959L27.4855 18.7714L27.1365 18.8591L26.8747 19.0345L26.5257 19.1222H26.264L26.0022 19.21L25.8277 19.1222H25.5659L25.2169 19.0345L24.9551 18.9468L24.6061 18.7714L24.3444 18.6836L23.9953 18.5082L23.6463 18.4205L23.2973 18.245L22.9483 18.1573L22.5992 18.0696L22.2502 17.9819L21.8139 17.8942H21.4649H21.0287H20.8541H20.5924H20.3306H20.0688L19.8943 17.9819H19.6326L19.3708 18.0696L19.109 18.1573L18.9345 18.245L18.6728 18.3328L18.411 18.4205L18.1492 18.5082L17.9747 18.6836L17.713 18.7714L17.4512 18.9468L17.2767 19.0345L17.1022 19.21L16.9277 19.2977L16.6659 19.4731L16.4914 19.6486L16.3169 19.824L16.1424 19.9994L15.9679 20.1749L15.7933 20.3503L15.6188 20.5258L15.5316 20.7889L15.3571 20.9643L15.1826 21.1398L15.0953 21.4029L14.9208 21.6661L14.4845 22.5433L14.1355 23.5082L13.8737 24.5608L13.6992 25.6135V26.7538V27.8065L13.8737 28.9468L14.0482 29.9994L14.31 31.0521L14.5718 32.1047L14.9208 33.1573L15.3571 34.1222L15.7933 35.0872L16.3169 35.8766L16.7532 36.7538L17.1022 37.1047L17.3639 37.4556L17.6257 37.8065L17.8875 38.1573L18.1492 38.5082L18.4983 38.8591L18.76 39.1222L19.109 39.4731L19.3708 39.7363L19.7198 39.9117L20.0688 40.1749L20.4179 40.2626L20.7669 40.438H21.1159L21.4649 40.5258L21.9012 40.438H22.2502L22.512 40.3503L22.861 40.2626L23.1228 40.0872L23.3845 39.9994L23.6463 39.9117L23.9953 39.7363L24.2571 39.6486L24.5189 39.5608L24.8679 39.4731L25.2169 39.3854L25.5659 39.2977H26.0022H26.3512H26.7875H27.2238L27.5728 39.3854L27.9218 39.4731L28.2708 39.5608L28.5326 39.6486L28.7944 39.824L29.1434 39.9117L29.4052 39.9994L29.6669 40.1749L30.0159 40.2626L30.2777 40.3503H30.6267L30.9757 40.438H31.3248L31.761 40.3503L32.1101 40.2626L32.4591 40.1749L32.8081 39.9994L33.1571 39.824L33.5061 39.6486L33.7679 39.3854L34.0297 39.1222L34.2914 38.7714L34.5532 38.5082L34.815 38.1573L35.0767 37.8065L35.3385 37.4556L35.6003 37.1047L35.862 36.7538L35.9493 36.4907L36.1238 36.2275L36.2983 35.9643L36.4728 35.7012L36.6473 35.438L36.8218 35.0872L36.9963 34.824L37.0836 34.5608L37.2581 34.2977L37.3454 33.9468L37.5199 33.6836L37.6071 33.4205L37.6944 33.0696L37.7816 32.8065L37.9562 32.5433L37.6944 32.3679L37.4326 32.2801L37.1709 32.1924L36.9963 32.017L36.8218 31.8415L36.5601 31.7538L36.3856 31.5784L36.2111 31.4029L36.0365 31.2275L35.862 31.0521L35.6875 30.8766L35.513 30.7012L35.3385 30.438L35.164 30.2626L35.0767 30.0871L34.9022 29.824L34.7277 29.6486L34.6405 29.3854L34.466 29.1223L34.3787 28.9468L34.2914 28.6837L34.2042 28.4205L34.1169 28.2451L34.0297 27.9819V27.7187L33.9424 27.4556V27.1924V26.9293V26.6661V26.4907Z" fill="white"/>
<path d="M30.1903 15.3501L30.3648 15.087L30.5393 14.8238L30.7138 14.5606L30.8883 14.2975L31.0628 13.9466L31.2373 13.5957L31.3246 13.3326L31.4118 12.9817L31.4991 12.6308L31.5863 12.3677L31.6736 12.0168V11.6659L31.7608 11.315V10.9642V10.6133L31.4118 10.701L31.0628 10.7887L30.7138 10.8764L30.3648 10.9642L30.103 11.0519L29.8412 11.1396L29.4922 11.315L29.2304 11.4905L28.8814 11.5782L28.6197 11.8413L28.3579 12.0168L28.0961 12.1922L27.8344 12.4554L27.5726 12.7185L27.3108 12.894L27.2236 13.0694L27.1363 13.1571L27.0491 13.3326L26.9618 13.4203L26.8746 13.5957L26.7873 13.6835L26.7 13.8589L26.6128 14.0343L26.5255 14.1221L26.4383 14.2975L26.351 14.4729V14.5606L26.2638 14.7361L26.1765 14.9115L26.0893 14.9992V15.1747L26.002 15.3501V15.5256V15.701L25.9147 15.8764V16.0519V16.2273L25.8275 16.315V16.4905V16.6659V16.8414V17.0168V17.1922V17.3677L25.7402 17.4554H25.9147H26.0893H26.2638H26.4383H26.6128H26.7873L26.9618 17.3677H27.1363L27.3108 17.28H27.4853L27.6598 17.1922H27.7471L27.9216 17.1045L28.0961 17.0168L28.1834 16.9291H28.3579L28.5324 16.8414L28.7069 16.7536L28.7942 16.6659L28.9687 16.5782L29.1432 16.4905L29.2304 16.4028L29.405 16.2273L29.4922 16.1396L29.6667 16.0519L29.754 15.8764L29.9285 15.7887L30.0157 15.701L30.103 15.5256L30.1903 15.3501Z" fill="white"/>
<path d="M52.1786 33.7713H57.3267L54.7963 26.3151H54.709L52.1786 33.7713ZM58.0247 35.8765H51.5678L49.9972 40.5257H47.2051L53.4002 23.4204H56.1924L62.3875 40.5257H59.5953L58.0247 35.8765Z" fill="white"/>
<path d="M73.0335 34.3855V33.3328L72.9463 32.8942L72.7718 32.5433L72.6845 32.1048L72.51 31.7539L72.2482 31.403L72.0737 31.1398L71.812 30.8767L71.5502 30.7012L71.2012 30.4381L70.8521 30.3504L70.5031 30.1749H69.0198L68.6708 30.3504L68.409 30.4381L68.06 30.7012L67.7982 30.8767L67.5364 31.1398L67.2747 31.403L67.1002 31.7539L66.9257 32.1048L66.8384 32.5433L66.6639 32.8942L66.5766 33.3328V33.8591L66.4894 34.3855L66.5766 34.8241V35.2626L66.6639 35.7012L66.8384 36.1398L66.9257 36.4907L67.1002 36.8416L67.2747 37.1925L67.5364 37.5433L67.7982 37.8065L68.06 37.9819L68.409 38.1574L68.6708 38.3328L69.0198 38.4205L69.3688 38.5082L69.7178 38.596L70.1541 38.5082H70.5031L70.8521 38.3328L71.2012 38.2451L71.5502 38.0697L71.812 37.8065L72.0737 37.5433L72.2482 37.2802L72.51 36.9293L72.6845 36.5784L72.7718 36.1398L72.9463 35.7889L73.0335 35.3503V34.3855ZM75.6512 34.3855V35.0872L75.5639 35.7889L75.4767 36.4907L75.3022 37.1047L75.0404 37.7188L74.7786 38.2451L74.4296 38.6837L74.0806 39.1223L73.6443 39.5609L73.208 39.9118L72.7718 40.1749L72.2482 40.3504L71.7247 40.5258L71.1139 40.6135L70.5031 40.7012H69.8051L69.6306 40.6135H69.2815L69.1943 40.5258H69.0198L68.8453 40.4381L68.6708 40.3504L68.5835 40.2626L68.409 40.1749H68.2345L68.1472 40.0872L67.9727 39.9995L67.8855 39.9118L67.711 39.824L67.6237 39.7363L67.5364 39.5609L67.3619 39.4732L67.2747 39.3854L67.1874 39.21L67.0129 39.1223L66.9257 39.0346L66.8384 38.8591L66.7512 38.7714L66.6639 38.596L66.5766 38.5082H66.4894V44.7363H63.959V28.1574H66.4021V30.1749H66.4894L66.5766 29.9995L66.6639 29.9118L66.7512 29.7363L66.8384 29.6486L66.9257 29.5609L67.1002 29.3854L67.1874 29.2977L67.2747 29.21L67.4492 29.1223L67.5364 28.9469L67.6237 28.8591L67.7982 28.7714L67.8855 28.6837L68.06 28.596H68.1472L68.3217 28.5083L68.4963 28.4205L68.5835 28.3328L68.758 28.2451L68.9325 28.1574H69.107L69.1943 28.0697H69.5433L69.7178 27.9819H71.1139L71.6374 28.0697L72.2482 28.2451L72.7718 28.4205L73.208 28.7714L73.6443 29.1223L74.0806 29.4732L74.4296 29.9118L74.7786 30.4381L75.0404 30.9644L75.3022 31.5784L75.4767 32.1925L75.5639 32.8942L75.6512 33.596V34.3855Z" fill="white"/>
<path d="M86.6449 34.3855V33.3328L86.5576 32.8942L86.3831 32.5433L86.2958 32.1048L86.1213 31.7539L85.8596 31.403L85.685 31.1398L85.4233 30.8767L85.1615 30.7012L84.8125 30.4381L84.4635 30.3504L84.1145 30.1749H82.6311L82.2821 30.3504L82.0203 30.4381L81.6713 30.7012L81.4095 30.8767L81.1478 31.1398L80.886 31.403L80.7115 31.7539L80.537 32.1048L80.4497 32.5433L80.2752 32.8942L80.188 33.3328V33.8591L80.1007 34.3855L80.188 34.8241V35.2626L80.2752 35.7012L80.4497 36.1398L80.537 36.4907L80.7115 36.8416L80.886 37.1925L81.1478 37.5433L81.4095 37.8065L81.6713 37.9819L82.0203 38.1574L82.2821 38.3328L82.6311 38.4205L82.9801 38.5082L83.3292 38.596L83.7654 38.5082H84.1145L84.4635 38.3328L84.8125 38.2451L85.1615 38.0697L85.4233 37.8065L85.685 37.5433L85.8596 37.2802L86.1213 36.9293L86.2958 36.5784L86.3831 36.1398L86.5576 35.7889L86.6449 35.3503V34.3855ZM89.2625 34.3855V35.0872L89.1753 35.7889L89.088 36.4907L88.9135 37.1047L88.6517 37.7188L88.39 38.2451L88.0409 38.6837L87.6919 39.1223L87.2556 39.5609L86.8194 39.9118L86.3831 40.1749L85.8596 40.3504L85.336 40.5258L84.7252 40.6135L84.1145 40.7012H83.4164L83.2419 40.6135H82.8929L82.8056 40.5258H82.6311L82.4566 40.4381L82.2821 40.3504L82.1948 40.2626L82.0203 40.1749H81.8458L81.7586 40.0872L81.5841 39.9995L81.4968 39.9118L81.3223 39.824L81.235 39.7363L81.1478 39.5609L80.9733 39.4732L80.886 39.3854L80.7988 39.21L80.6242 39.1223L80.537 39.0346L80.4497 38.8591L80.3625 38.7714L80.2752 38.596L80.188 38.5082H80.1007V44.7363H77.5703V28.1574H80.0135V30.1749H80.1007L80.188 29.9995L80.2752 29.9118L80.3625 29.7363L80.4497 29.6486L80.537 29.5609L80.7115 29.3854L80.7988 29.2977L80.886 29.21L81.0605 29.1223L81.1478 28.9469L81.235 28.8591L81.4095 28.7714L81.4968 28.6837L81.6713 28.596H81.7586L81.9331 28.5083L82.1076 28.4205L82.1948 28.3328L82.3693 28.2451L82.5439 28.1574H82.7184L82.8056 28.0697H83.1546L83.3292 27.9819H84.7252L85.2488 28.0697L85.8596 28.2451L86.3831 28.4205L86.8194 28.7714L87.2556 29.1223L87.6919 29.4732L88.0409 29.9118L88.39 30.4381L88.6517 30.9644L88.9135 31.5784L89.088 32.1925L89.1753 32.8942L89.2625 33.596V34.3855Z" fill="white"/>
<path d="M98.3374 35.789V36.0521L98.4246 36.403L98.5992 36.6662L98.7737 36.9293L98.9482 37.1925L99.1227 37.4557L99.3844 37.6311L99.7335 37.8942L99.9952 38.0697L100.344 38.1574L100.693 38.3328L101.13 38.4205L101.479 38.5083H101.915L102.438 38.596L102.787 38.5083H103.224L103.573 38.4205L103.922 38.3328L104.271 38.2451L104.62 38.0697L104.882 37.8942L105.143 37.7188L105.405 37.4557L105.58 37.2802L105.754 37.0171L105.841 36.7539L106.016 36.4907V36.2276L106.103 35.9644L106.016 35.7013V35.4381L105.929 35.1749L105.841 34.9995L105.754 34.7363L105.58 34.5609L105.405 34.3855L105.231 34.21L104.969 34.0346L104.707 33.9469L104.445 33.7714L104.096 33.596L103.747 33.5083L103.311 33.4206L102.962 33.3328L100.781 32.8065L100.17 32.6311L99.5589 32.3679L99.0354 32.1925L98.5992 32.017L98.2501 31.7539L97.8138 31.4907L97.4648 31.1399L97.2031 30.8767L96.9413 30.5258L96.6795 30.1749L96.505 29.8241L96.4178 29.4732L96.2433 29.0346V28.596L96.156 28.1574L96.2433 27.5434L96.3305 27.017L96.505 26.4907L96.7668 25.9644L97.0286 25.5258L97.3776 25.175L97.7266 24.7364L98.1629 24.3855L98.5992 24.1223L99.1227 23.8592L99.6462 23.596L100.257 23.4206L100.955 23.3328L101.566 23.2451H103.049L103.747 23.3328L104.358 23.4206L104.969 23.596L105.492 23.8592L106.016 24.1223L106.539 24.3855L106.976 24.7364L107.325 25.175L107.674 25.5258L107.935 25.9644L108.197 26.4907L108.372 27.017L108.459 27.5434L108.546 28.1574H105.929L105.841 27.8065L105.754 27.4556L105.667 27.1925L105.492 26.9293L105.318 26.6662L105.143 26.403L104.882 26.2276L104.62 26.0521L104.358 25.8767L104.096 25.7012L103.747 25.6135L103.398 25.5258L103.049 25.4381H101.479L101.13 25.5258L100.781 25.6135L100.432 25.7012L100.17 25.8767L99.908 26.0521L99.6462 26.2276L99.4717 26.403L99.2972 26.5784L99.1227 26.8416L98.9482 27.1048L98.8609 27.3679V28.4205L98.9482 28.596L99.0354 28.7714L99.1227 29.0346L99.2972 29.21L99.4717 29.3855L99.6462 29.4732L99.908 29.6486L100.17 29.8241L100.432 29.9118L100.781 30.0872L101.13 30.1749L101.566 30.2627L102.002 30.4381L103.834 30.8767L104.445 31.0521L105.056 31.2276L105.667 31.403L106.19 31.6662L106.627 31.9293L107.063 32.1925L107.412 32.4556L107.761 32.8065L108.023 33.0697L108.284 33.4206L108.459 33.8592L108.546 34.21L108.721 34.6486V35.0872L108.808 35.6135L108.721 36.2276L108.633 36.8416L108.459 37.3679L108.284 37.8942L107.935 38.4205L107.586 38.8591L107.237 39.21L106.714 39.5609L106.278 39.9118L105.667 40.1749L105.056 40.4381L104.358 40.6135L103.66 40.7012L102.962 40.789L102.177 40.8767L101.391 40.789L100.693 40.7012L99.9952 40.6135L99.3844 40.4381L98.8609 40.1749L98.3374 39.9118L97.9011 39.6486L97.4648 39.2977L97.0286 38.8591L96.6795 38.4205L96.4178 37.9819L96.156 37.4557L95.9815 36.9293L95.807 36.3153L95.7197 35.789H98.3374Z" fill="white"/>
<path d="M114.305 25.1748V28.0695H116.661V30.0871H114.305V37.0169V37.1923V37.3678V37.5432L114.392 37.7187V37.8064L114.48 37.9818L114.567 38.0695L114.654 38.1572L114.741 38.245L114.916 38.3327H115.003L115.178 38.4204H115.352H115.527L115.788 38.5081H115.876H115.963H116.05H116.137H116.225H116.312H116.399H116.487H116.574H116.661V40.5257H116.487H116.399H116.312H116.225H116.137H116.05H115.963H115.876H115.788H115.701H115.614H115.527H115.439H115.352L115.265 40.6134L114.741 40.5257H114.305L113.956 40.438L113.607 40.3502L113.258 40.2625L112.996 40.0871L112.735 39.9116L112.473 39.6485L112.298 39.473L112.124 39.1222L112.037 38.859L111.949 38.5081L111.862 38.0695V37.7187L111.775 37.2801V30.0871H109.942V28.0695H111.775V25.1748H114.305Z" fill="white"/>
<path d="M127.218 34.3855L127.131 33.7714V33.3328L127.044 32.8942L126.957 32.4556L126.782 32.017L126.608 31.6662L126.433 31.3153L126.171 31.0521L125.91 30.789L125.648 30.5258L125.386 30.3504L125.037 30.2626L124.688 30.0872H123.117L122.768 30.2626L122.507 30.3504L122.158 30.5258L121.896 30.789L121.634 31.0521L121.372 31.3153L121.198 31.6662L121.023 32.017L120.849 32.4556L120.762 32.8942L120.674 33.3328V35.3503L120.762 35.7889L120.849 36.2275L121.023 36.6661L121.198 37.017L121.372 37.2802L121.634 37.6311L121.896 37.8942L122.158 38.0697L122.507 38.2451L122.768 38.3328L123.117 38.5082H123.554L123.99 38.596L124.339 38.5082H124.688L125.037 38.3328L125.386 38.2451L125.648 38.0697L125.91 37.8942L126.171 37.6311L126.433 37.2802L126.608 37.017L126.782 36.6661L126.957 36.2275L127.044 35.7889L127.131 35.3503V34.9118L127.218 34.3855ZM118.057 34.3855V33.596L118.144 32.8065L118.318 32.1925L118.493 31.4907L118.755 30.9644L119.016 30.3504L119.365 29.9118L119.802 29.4732L120.238 29.0346L120.762 28.6837L121.372 28.4205L121.896 28.2451L122.594 28.0697L123.205 27.9819H124.601L125.299 28.0697L125.91 28.2451L126.52 28.4205L127.044 28.6837L127.567 29.0346L128.004 29.4732L128.44 29.9118L128.789 30.3504L129.051 30.9644L129.313 31.4907L129.487 32.1925L129.662 32.8065L129.749 33.596L129.836 34.3855L129.749 35.0872L129.662 35.8767L129.487 36.4907L129.313 37.1047L129.051 37.7188L128.789 38.2451L128.44 38.7714L128.004 39.21L127.567 39.5609L127.044 39.9118L126.52 40.1749L125.91 40.3504L125.299 40.5258L124.601 40.6135L123.99 40.7012L123.205 40.6135L122.594 40.5258L121.896 40.3504L121.372 40.1749L120.762 39.9118L120.238 39.5609L119.802 39.21L119.365 38.7714L119.016 38.2451L118.755 37.7188L118.493 37.1047L118.318 36.4907L118.144 35.8767L118.057 35.0872V34.3855Z" fill="white"/>
<path d="M131.93 28.1574H134.373V30.2626H134.46V30.0872V29.9118L134.547 29.824V29.7363L134.635 29.5609V29.4732L134.722 29.3854L134.809 29.21L134.896 29.1223L134.984 29.0346L135.071 28.9469L135.158 28.8591L135.245 28.7714L135.333 28.6837L135.507 28.596L135.594 28.5083L135.682 28.4205L135.769 28.3328L135.943 28.2451L136.031 28.1574H136.205L136.292 28.0697H136.467H136.554L136.729 27.9819H136.816H136.99H137.078H137.252H137.427H137.514H137.601H137.689H137.776H137.863H137.95H138.038H138.125H138.212L138.299 28.0697V30.5258L138.212 30.4381H138.125H138.038L137.95 30.3504H137.863H137.776H137.689H137.601H137.514H137.427H137.34H137.252H137.165H137.078H136.99H136.903H136.816H136.729H136.641H136.554H136.467H136.38H136.292L136.205 30.4381H136.118H136.031V30.5258H135.943H135.856L135.769 30.6135H135.682V30.7012H135.594H135.507V30.789H135.42V30.8767H135.333L135.245 30.9644L135.158 31.0521V31.1398H135.071L134.984 31.2276L134.896 31.3153V31.403L134.809 31.4907V31.5784L134.722 31.6662V31.7539L134.635 31.8416V31.9293V32.017V32.1048H134.547V32.1925V32.2802L134.46 32.3679V32.4556V32.5433V32.6311V32.7188V32.8065V32.8942V32.9819V33.0697V33.1574V33.2451V40.6135H131.93V28.1574Z" fill="white"/>
<path d="M141.354 33.1577H147.549L147.636 33.07V32.4559L147.549 32.3682V32.1051L147.462 32.0173V31.9296H147.374V31.6665L147.287 31.5788L147.2 31.491V31.4033L147.112 31.3156V31.2279H147.025V31.1402L146.938 31.0524V30.9647L146.851 30.877H146.763V30.7893L146.676 30.7016L146.589 30.6138H146.502L146.414 30.5261V30.4384H146.327L146.24 30.3507H146.153L146.065 30.263H145.978L145.891 30.1752H145.716V30.0875H145.367L145.28 29.9998H143.971L143.884 30.0875H143.622L143.535 30.1752H143.448L143.361 30.263H143.186L143.099 30.3507H143.011L142.924 30.4384H142.837L142.75 30.5261L142.662 30.6138H142.575L142.488 30.7016L142.401 30.7893L142.313 30.877L142.226 30.9647L142.139 31.0524V31.1402L142.052 31.2279L141.964 31.3156V31.4033L141.877 31.491V31.5788H141.79V31.6665L141.703 31.7542V31.8419L141.615 31.9296V32.0173L141.528 32.1051V32.3682L141.441 32.4559V33.07L141.354 33.1577ZM149.992 36.8419L149.905 37.2805L149.817 37.6314L149.643 38.07L149.381 38.4208L149.119 38.7717L148.858 39.1226L148.509 39.4735L148.072 39.7366L147.723 39.9998L147.287 40.1752L146.763 40.3507L146.327 40.4384L145.804 40.6138H145.28L144.669 40.7016L143.971 40.6138L143.361 40.5261L142.662 40.3507L142.139 40.1752L141.528 39.9121L141.092 39.5612L140.656 39.1226L140.219 38.684L139.87 38.2454L139.609 37.7191L139.347 37.1051L139.085 36.491L138.998 35.7893L138.911 35.0875L138.823 34.3858L138.911 33.5963L138.998 32.8068L139.085 32.1928L139.347 31.491L139.521 30.877L139.87 30.3507L140.219 29.8244L140.568 29.3858L141.005 29.0349L141.528 28.684L142.052 28.3331L142.575 28.1577L143.186 27.9823L143.884 27.8945H145.193L145.891 27.9823L146.502 28.1577L147.025 28.3331L147.549 28.5963L148.072 28.9472L148.509 29.298L148.858 29.7366L149.207 30.1752L149.556 30.7016L149.73 31.3156L149.992 31.9296V32.5437L150.079 33.2454L150.166 34.0349V34.9121H141.354V35.0875L141.441 35.1752V36.0524L141.528 36.1402V36.4033H141.615V36.491L141.703 36.5788V36.6665L141.79 36.7542V36.8419L141.877 36.9296V37.0174L141.964 37.1051L142.052 37.1928V37.2805L142.139 37.3682V37.456L142.226 37.5437V37.6314H142.313L142.401 37.7191L142.488 37.8068H142.575L142.662 37.8946V37.9822H142.75L142.837 38.07L142.924 38.1577H143.011L143.099 38.2454H143.186L143.273 38.3331H143.361V38.4208H143.622L143.71 38.5086H144.582L144.669 38.5963H145.28L145.455 38.5086H145.716L145.804 38.4208H146.065L146.153 38.3331H146.24L146.327 38.2454H146.414L146.589 38.1577L146.676 38.07L146.763 37.9822L146.851 37.8946L146.938 37.8068L147.025 37.7191L147.112 37.6314L147.2 37.5437L147.287 37.456L147.374 37.3682V37.2805L147.462 37.1051L147.549 37.0174V36.8419H149.992Z" fill="white"/>
<path d="M50.1721 17.7185H52.2662L52.3535 17.6308H52.528L52.6152 17.5431H52.7025L52.7898 17.4554H52.9643L53.0515 17.3677L53.1388 17.28H53.226L53.3133 17.1922L53.4005 17.1045H53.4878L53.5751 17.0168L53.6623 16.9291L53.7496 16.8414L53.8368 16.7536L53.9241 16.6659V16.5782L54.0113 16.4905V16.4028L54.0986 16.315V16.2273L54.1858 16.1396V15.9642L54.2731 15.8764V15.701L54.3604 15.6133V13.9466L54.2731 13.8589V13.5957H54.1858V13.4203L54.0986 13.3326V13.2449L54.0113 13.1571V13.0694L53.9241 12.9817V12.894L53.8368 12.8063L53.7496 12.7185V12.6308H53.6623L53.5751 12.5431L53.4878 12.4554H53.4005L53.3133 12.3677L53.226 12.2799H53.1388L53.0515 12.1922L52.9643 12.1045H52.7898V12.0168H52.6152L52.528 11.9291H52.3535L52.2662 11.8413H50.1721V17.7185ZM51.83 10.6133L51.9172 10.701H52.6152L52.7025 10.7887H53.0515L53.1388 10.8764H53.4005L53.4878 10.9642H53.5751L53.6623 11.0519H53.7496L53.8368 11.1396L53.9241 11.2273H54.0113L54.0986 11.315L54.1858 11.4027L54.2731 11.4905H54.3604L54.4476 11.5782L54.5349 11.6659L54.6221 11.7536H54.7094V11.9291L54.7966 12.0168L54.8839 12.1045V12.1922L54.9711 12.2799L55.0584 12.3677V12.4554L55.1457 12.5431L55.2329 12.6308V12.7185L55.3202 12.8063V12.894L55.4074 12.9817V13.0694L55.4947 13.1571V13.4203L55.5819 13.508V13.8589L55.6692 13.9466V14.7361L55.5819 15.2624V15.7887L55.4947 16.2273L55.3202 16.6659L55.1457 17.0168L54.9711 17.3677L54.7094 17.7185L54.4476 17.9817L54.1858 18.2448L53.8368 18.4203L53.4878 18.5957L53.1388 18.6834L52.7025 18.8589H48.8633V10.6133H51.83Z" fill="white"/>
<path d="M61.6886 15.7891L61.6014 15.5259V15.0873L61.5141 14.8242L61.4269 14.6487L61.3396 14.4733L61.2524 14.2978L61.1651 14.1224L60.9906 14.0347L60.9033 13.8592L60.7288 13.7715H60.5543L60.3798 13.6838H60.2053L60.0308 13.5961L59.769 13.6838H59.5945L59.42 13.7715H59.2455L59.071 13.8592L58.9837 14.0347L58.8092 14.1224L58.722 14.2978L58.6347 14.4733L58.5474 14.6487L58.4602 14.8242L58.3729 15.0873V16.5785L58.4602 16.754L58.5474 16.9294L58.6347 17.1049L58.722 17.2803L58.8092 17.4557L58.9837 17.5435L59.071 17.7189L59.2455 17.8066H59.42L59.5945 17.8943H60.3798L60.5543 17.8066H60.7288L60.9033 17.7189L60.9906 17.5435L61.1651 17.4557L61.2524 17.2803L61.3396 17.1049L61.4269 16.9294L61.5141 16.754L61.6014 16.5785V16.0522L61.6886 15.7891ZM57.1514 15.7891V14.9119L57.2386 14.8242V14.6487L57.3259 14.561V14.3856L57.4131 14.2978V14.1224H57.5004V14.0347L57.5876 13.947V13.8592L57.6749 13.7715L57.7622 13.6838L57.8494 13.5961L57.9367 13.5084L58.0239 13.4206L58.1112 13.333H58.1984L58.2857 13.2452V13.1575H58.3729L58.4602 13.0698H58.5474V12.9821H58.6347L58.722 12.8944H58.8092L58.8965 12.8066H58.9837L59.071 12.7189H59.3327L59.42 12.6312H59.9435L60.0308 12.5435V12.6312H60.6416L60.7288 12.7189H60.9906L61.0779 12.8066H61.2524V12.8944H61.3396L61.4269 12.9821H61.5141V13.0698H61.6014L61.6886 13.1575H61.7759V13.2452L61.8631 13.333H61.9504L62.0377 13.4206L62.1249 13.5084H62.2122V13.5961L62.2994 13.6838V13.7715H62.3867V13.8592L62.4739 13.947V14.0347L62.5612 14.1224L62.6484 14.2101V14.2978L62.7357 14.3856V14.561H62.823V14.8242L62.9102 14.9119V15.7891H62.9975L62.9102 15.8768V16.6663L62.823 16.754V16.9294L62.7357 17.0171V17.1926L62.6484 17.2803V17.368L62.5612 17.4557V17.5435L62.4739 17.6312L62.3867 17.7189V17.8066L62.2994 17.8943L62.2122 17.9821L62.1249 18.0698L62.0377 18.1575V18.2452H61.9504L61.8631 18.3329L61.7759 18.4207L61.6886 18.5084L61.6014 18.5961H61.5141V18.6838H61.4269L61.3396 18.7715H61.2524L61.1651 18.8593H60.8161L60.7288 18.947H59.3327L59.2455 18.8593H58.8965V18.7715H58.722L58.6347 18.6838H58.5474V18.5961H58.4602L58.3729 18.5084L58.2857 18.4207L58.1984 18.3329L58.1112 18.2452H58.0239V18.1575L57.9367 18.0698V17.9821H57.8494L57.7622 17.8943H57.6749V17.8066L57.5876 17.7189V17.6312H57.5004V17.5435L57.4131 17.4557V17.2803L57.3259 17.1926V16.9294H57.2386V16.754L57.1514 16.6663V15.7891Z" fill="white"/>
<path d="M70.6764 18.7712H69.4548L68.146 14.2098H68.0587L66.7499 18.7712H65.5283L63.7832 12.6309H65.092L66.1391 17.3677H66.2263L67.5352 12.6309H68.6695L69.9783 17.3677H70.0656L71.1126 12.6309H72.3342L70.6764 18.7712Z" fill="white"/>
<path d="M73.8174 12.6312H74.9517V13.5961H75.039V13.5084L75.1262 13.4206L75.2135 13.333V13.2452H75.3007L75.388 13.1575V13.0698H75.4752L75.5625 12.9821L75.6497 12.8944H75.737L75.8242 12.8066L75.9115 12.7189H75.9988H76.086L76.1733 12.6312H76.2605L76.3478 12.5435H76.435H76.5223H76.6095H76.6968H76.7841H76.8713H76.9586V12.6312H77.0458H77.1331H77.2203H77.3076H77.3948H77.4821H77.5694H77.6566H77.7439H77.8311V12.7189H77.9184V12.8066H78.0056L78.0929 12.8944H78.1801V12.9821H78.2674L78.3546 13.0698L78.4419 13.1575H78.5292V13.2452L78.6164 13.333L78.7037 13.4206V13.5084L78.7909 13.5961V13.6838L78.8782 13.7715V13.8592V13.947H78.9654V14.0347V14.1224V14.2101V14.2978H79.0527V14.3856V14.4733V14.561V14.6487V14.7364V14.8242V18.8593H77.8311V15.175L77.7439 14.9996V14.8242V14.6487L77.6566 14.4733V14.3856L77.5694 14.2101L77.4821 14.1224L77.3948 14.0347L77.3076 13.947L77.2203 13.8592H77.0458L76.9586 13.7715H76.7841H76.6095L76.5223 13.6838H76.435H76.3478H76.2605H76.1733H76.086V13.7715H75.9988H75.9115L75.8242 13.8592H75.737V13.947H75.6497H75.5625V14.0347H75.4752L75.388 14.1224L75.3007 14.2101V14.2978H75.2135V14.3856H75.1262V14.4733V14.561V14.6487L75.039 14.7364V14.8242V14.9119V14.9996V15.0873V15.175V18.8593H73.8174V12.6312Z" fill="white"/>
<path d="M81.0605 10.2627H82.2828V18.8592H81.0605V10.2627Z" fill="white"/>
<path d="M88.4767 15.7891L88.3895 15.5259V15.0873L88.3022 14.8242L88.215 14.6487L88.1277 14.4733L88.0404 14.2978L87.9532 14.1224L87.7787 14.0347L87.6914 13.8592L87.5169 13.7715H87.3424L87.1679 13.6838H86.9934L86.8189 13.5961L86.5571 13.6838H86.3826L86.2081 13.7715H86.0336L85.8591 13.8592L85.7718 14.0347L85.5973 14.1224L85.51 14.2978L85.4228 14.4733L85.3355 14.6487L85.2483 14.8242L85.161 15.0873V16.5785L85.2483 16.754L85.3355 16.9294L85.4228 17.1049L85.51 17.2803L85.5973 17.4557L85.7718 17.5435L85.8591 17.7189L86.0336 17.8066H86.2081L86.3826 17.8943H87.1679L87.3424 17.8066H87.5169L87.6914 17.7189L87.7787 17.5435L87.9532 17.4557L88.0404 17.2803L88.1277 17.1049L88.215 16.9294L88.3022 16.754L88.3895 16.5785V16.0522L88.4767 15.7891ZM83.9395 15.7891V14.9119L84.0267 14.8242V14.6487L84.114 14.561V14.3856L84.2012 14.2978V14.1224H84.2885V14.0347L84.3757 13.947V13.8592L84.463 13.7715L84.5502 13.6838L84.6375 13.5961L84.7248 13.5084L84.812 13.4206L84.8993 13.333H84.9865L85.0738 13.2452V13.1575H85.161L85.2483 13.0698H85.3355V12.9821H85.4228L85.51 12.8944H85.5973L85.6846 12.8066H85.7718L85.8591 12.7189H86.1208L86.2081 12.6312H86.7316L86.8189 12.5435V12.6312H87.4297L87.5169 12.7189H87.7787L87.8659 12.8066H88.0404V12.8944H88.1277L88.215 12.9821H88.3022V13.0698H88.3895L88.4767 13.1575H88.564V13.2452L88.6512 13.333H88.7385L88.8257 13.4206L88.913 13.5084H89.0003V13.5961L89.0875 13.6838V13.7715H89.1748V13.8592L89.262 13.947V14.0347L89.3493 14.1224L89.4365 14.2101V14.2978L89.5238 14.3856V14.561H89.611V14.8242L89.6983 14.9119V15.7891H89.7855L89.6983 15.8768V16.6663L89.611 16.754V16.9294L89.5238 17.0171V17.1926L89.4365 17.2803V17.368L89.3493 17.4557V17.5435L89.262 17.6312L89.1748 17.7189V17.8066L89.0875 17.8943L89.0003 17.9821L88.913 18.0698L88.8257 18.1575V18.2452H88.7385L88.6512 18.3329L88.564 18.4207L88.4767 18.5084L88.3895 18.5961H88.3022V18.6838H88.215L88.1277 18.7715H88.0404L87.9532 18.8593H87.6042L87.5169 18.947H86.1208L86.0336 18.8593H85.6846V18.7715H85.51L85.4228 18.6838H85.3355V18.5961H85.2483L85.161 18.5084L85.0738 18.4207L84.9865 18.3329L84.8993 18.2452H84.812V18.1575L84.7248 18.0698V17.9821H84.6375L84.5502 17.8943H84.463V17.8066L84.3757 17.7189V17.6312H84.2885V17.5435L84.2012 17.4557V17.2803L84.114 17.1926V16.9294H84.0267V16.754L83.9395 16.6663V15.7891Z" fill="white"/>
<path d="M95.0206 16.4906V16.052L93.45 16.1398L93.2755 16.2275H92.8392L92.6647 16.3152H92.5774L92.4902 16.4029L92.4029 16.4906L92.3157 16.5784L92.2284 16.6661V17.3678L92.3157 17.4555V17.5433L92.4029 17.631H92.4902L92.5774 17.7187L92.6647 17.8064H92.7519L92.8392 17.8941H93.8862L93.9735 17.8064H94.148V17.7187H94.3225V17.631H94.4098L94.497 17.5433L94.5843 17.4555L94.6716 17.3678V17.2801H94.7588V17.1924L94.8461 17.1047V16.9292L94.9333 16.8415V16.5784L95.0206 16.4906ZM91.0068 17.017V16.6661L91.0941 16.4906V16.3152L91.1813 16.1398L91.3559 15.9643L91.4431 15.8766L91.6176 15.7012L91.7921 15.6134L91.9666 15.5257L92.2284 15.438L92.4029 15.3503L92.6647 15.2626H92.9264L93.2755 15.1748L95.0206 15.0871V14.5608L94.9333 14.4731V14.2976L94.8461 14.21V14.1222L94.7588 14.0345L94.6716 13.9468L94.5843 13.8591L94.497 13.7714H94.4098L94.2353 13.6836H93.799L93.7117 13.5959L93.5372 13.6836H93.101L92.9264 13.7714H92.7519L92.6647 13.8591L92.5774 13.9468L92.4902 14.0345L92.4029 14.1222V14.21H91.2686V13.8591L91.3559 13.6836L91.5304 13.5082L91.6176 13.3328L91.7921 13.1573L91.8794 13.0696L92.0539 12.8942L92.3157 12.8064L92.4902 12.7187L92.7519 12.631L92.9264 12.5433H93.45L93.799 12.4556L94.0608 12.5433H94.3225L94.5843 12.631H94.8461L95.0206 12.7187L95.1951 12.8942L95.3696 12.9819L95.5441 13.1573L95.7186 13.3328L95.8059 13.5082L95.8931 13.6836L95.9804 13.8591L96.0676 14.1222V14.3854L96.1549 14.5608V18.7713H95.0206V17.8941H94.9333L94.8461 17.9819V18.0696L94.7588 18.1573L94.6716 18.245L94.5843 18.3327L94.497 18.4205L94.4098 18.5082L94.3225 18.5959H94.2353V18.6836H94.148L94.0608 18.7713H93.9735L93.8862 18.8591H93.7117L93.6245 18.9468H92.3157V18.8591H92.0539V18.7713H91.8794V18.6836H91.7921V18.5959H91.7049L91.6176 18.5082V18.4205H91.5304L91.4431 18.3327V18.245H91.3559L91.2686 18.1573V18.0696H91.1813V17.8064H91.0941V17.5433H91.0068V17.017Z" fill="white"/>
<path d="M99.0351 15.789V16.5785L99.1223 16.7539L99.2096 16.9293L99.2968 17.1048L99.3841 17.2802L99.5586 17.4557L99.6458 17.5434L99.8203 17.7188L99.9076 17.8065H100.082L100.257 17.8943H101.042L101.216 17.8065H101.391L101.565 17.7188L101.653 17.5434L101.827 17.4557L101.914 17.2802L102.002 17.1048L102.089 16.9293L102.176 16.7539L102.263 16.5785V16.0521L102.351 15.789L102.263 15.6135V15.0873L102.176 14.9118L102.089 14.7364L102.002 14.5609L101.914 14.3855L101.827 14.2101L101.653 14.1223L101.565 13.9469L101.391 13.8592H101.216L101.042 13.7715H100.867L100.693 13.6837L100.431 13.7715H100.257L100.082 13.8592H99.9076L99.8203 13.9469L99.6458 14.1223L99.5586 14.2101L99.3841 14.3855L99.2968 14.5609L99.2096 14.7364L99.1223 14.9118L99.0351 15.0873V15.789ZM97.8135 15.789V15.0873L97.9007 14.7364L97.988 14.3855L98.0752 14.1223L98.2498 13.8592L98.4243 13.596L98.5988 13.3329L98.7733 13.1574L98.9478 12.982L99.2096 12.8065L99.4713 12.7188L99.7331 12.6311H99.9949L100.344 12.5434V12.6311H100.955L101.042 12.7188H101.216L101.304 12.8065H101.478V12.8943L101.565 12.982H101.653V13.0697L101.74 13.1574H101.827V13.2451H101.914L102.002 13.3329V13.4206H102.089V13.5083L102.176 13.596V13.6837H102.351V10.2627H103.572V18.8592H102.438V17.8943H102.351L102.263 17.982L102.176 18.0697V18.1574H102.089L102.002 18.2451V18.3329H101.914V18.4206L101.827 18.5083H101.74V18.596H101.653L101.565 18.6837H101.478L101.391 18.7714H101.304L101.216 18.8592H101.042L100.955 18.9469H99.7331L99.4713 18.8592L99.2096 18.7714L98.9478 18.596L98.7733 18.4206L98.5115 18.2451L98.337 17.982L98.2498 17.8065L98.0752 17.5434L97.988 17.1925L97.9007 16.9293L97.8135 16.5785V15.789Z" fill="white"/>
<path d="M113.17 15.7891L113.083 15.5259V15.0873L112.996 14.8242L112.908 14.6487V14.4733L112.734 14.2978L112.647 14.1224L112.559 14.0347L112.385 13.8592L112.21 13.7715H112.036L111.861 13.6838H111.687L111.512 13.5961L111.25 13.6838H111.076L110.901 13.7715H110.727L110.552 13.8592L110.465 14.0347L110.291 14.1224L110.203 14.2978L110.116 14.4733L110.029 14.6487L109.942 14.8242L109.854 15.0873V16.5785L109.942 16.754L110.029 16.9294L110.116 17.1049L110.203 17.2803L110.291 17.4557L110.465 17.5435L110.552 17.7189L110.727 17.8066H110.901L111.076 17.8943H111.861L112.036 17.8066H112.21L112.385 17.7189L112.559 17.5435L112.647 17.4557L112.734 17.2803L112.908 17.1049V16.9294L112.996 16.754L113.083 16.5785V16.0522L113.17 15.7891ZM108.633 15.7891V14.9119L108.72 14.8242V14.6487L108.807 14.561V14.3856L108.895 14.2978V14.1224H108.982V14.0347L109.069 13.947V13.8592L109.156 13.7715L109.244 13.6838L109.331 13.5961L109.418 13.5084L109.505 13.4206L109.593 13.333H109.68L109.767 13.2452V13.1575H109.854L109.942 13.0698H110.029V12.9821H110.116L110.203 12.8944H110.291L110.378 12.8066H110.465L110.552 12.7189H110.814L110.901 12.6312H111.425L111.512 12.5435V12.6312H112.123L112.21 12.7189H112.472L112.559 12.8066H112.734V12.8944H112.821L112.908 12.9821H112.996V13.0698H113.083L113.17 13.1575H113.257V13.2452L113.345 13.333H113.432L113.519 13.4206L113.606 13.5084H113.694V13.5961L113.781 13.6838V13.7715H113.868V13.8592L113.955 13.947V14.0347L114.043 14.1224L114.13 14.2101V14.2978L114.217 14.3856V14.561H114.304V14.8242L114.392 14.9119V15.7891H114.479L114.392 15.8768V16.6663L114.304 16.754V16.9294L114.217 17.0171V17.1926L114.13 17.2803V17.368L114.043 17.4557V17.5435L113.955 17.6312L113.868 17.7189V17.8066L113.781 17.8943L113.694 17.9821L113.606 18.0698L113.519 18.1575V18.2452H113.432L113.345 18.3329L113.257 18.4207L113.17 18.5084L113.083 18.5961H112.996V18.6838H112.908L112.821 18.7715H112.734L112.647 18.8593H112.298L112.21 18.947H110.814L110.727 18.8593H110.378V18.7715H110.203L110.116 18.6838H110.029V18.5961H109.942L109.854 18.5084L109.767 18.4207L109.68 18.3329L109.593 18.2452H109.505V18.1575L109.418 18.0698V17.9821H109.331L109.244 17.8943H109.156V17.8066L109.069 17.7189V17.6312H108.982V17.5435L108.895 17.4557V17.2803L108.807 17.1926V16.9294H108.72V16.754L108.633 16.6663V15.7891Z" fill="white"/>
<path d="M116.137 12.6312H117.271V13.5961H117.358V13.5084L117.446 13.4206L117.533 13.333V13.2452H117.62L117.707 13.1575V13.0698H117.795L117.882 12.9821L117.969 12.8944H118.056L118.144 12.8066L118.231 12.7189H118.318H118.405L118.493 12.6312H118.58L118.667 12.5435H118.754H118.842H118.929H119.016H119.103H119.191H119.278V12.6312H119.365H119.452H119.54H119.627H119.714H119.801H119.889H119.976H120.063H120.15V12.7189H120.238V12.8066H120.325L120.412 12.8944H120.499V12.9821H120.587L120.674 13.0698L120.761 13.1575H120.849V13.2452L120.936 13.333L121.023 13.4206V13.5084L121.11 13.5961V13.6838L121.198 13.7715V13.8592V13.947H121.285V14.0347V14.1224V14.2101V14.2978H121.372V14.3856V14.4733V14.561V14.6487V14.7364V14.8242V18.8593H120.15V15.175L120.063 14.9996V14.8242V14.6487L119.976 14.4733V14.3856L119.889 14.2101L119.801 14.1224L119.714 14.0347L119.627 13.947L119.54 13.8592H119.365L119.278 13.7715H119.103H118.929L118.842 13.6838H118.754H118.667H118.58H118.493H118.405V13.7715H118.318H118.231L118.144 13.8592H118.056V13.947H117.969H117.882V14.0347H117.795L117.707 14.1224L117.62 14.2101V14.2978H117.533V14.3856H117.446V14.4733V14.561V14.6487L117.358 14.7364V14.8242V14.9119V14.9996V15.0873V15.175V18.8593H116.137V12.6312Z" fill="white"/>
<path d="M128.265 11.0522V12.6312H129.574V13.6838H128.265V16.8417V17.0171V17.1049V17.1926V17.2803L128.353 17.368V17.4557L128.44 17.5435V17.6312L128.527 17.7189H128.614L128.702 17.8066H128.789H128.876H128.963H129.138H129.225H129.312H129.4H129.487L129.574 17.7189V18.7715L129.487 18.8593H129.4H129.312H129.225H129.138H129.051H128.963H128.614H128.44H128.265L128.091 18.7715L127.916 18.6838H127.742L127.567 18.5084L127.48 18.4207L127.393 18.3329L127.306 18.1575L127.218 17.9821L127.131 17.8066V17.6312V17.4557L127.044 17.1926V13.6838H126.084V12.6312H127.044V11.0522H128.265Z" fill="white"/>
<path d="M131.232 10.1748H132.454V13.5959H132.541V13.5081L132.629 13.4204V13.3327H132.716V13.245L132.803 13.1573H132.89V13.0695H132.978L133.065 12.9818V12.8941H133.152L133.239 12.8064L133.327 12.7187H133.414L133.501 12.6309H133.588H133.676L133.763 12.5432H133.85H133.937H134.025H134.112H134.199H134.286H134.374L134.461 12.4555V12.5432H134.548H134.635H134.723H134.81H134.897L134.984 12.6309H135.072H135.159H135.246H135.333V12.7187H135.421L135.508 12.8064H135.595L135.682 12.8941H135.77V12.9818H135.857V13.0695H135.944V13.1573H136.031V13.245L136.119 13.3327V13.4204H136.206V13.5081L136.293 13.5959V13.6836L136.38 13.7713V13.859V13.9467H136.468V14.0344V14.1222V14.2099V14.2976V14.3853V14.473V14.5608V14.6485V14.7362V14.8239H136.555V18.7713H135.333V15.0871L135.246 14.9116V14.7362V14.6485L135.159 14.473V14.2976L135.072 14.2099L134.984 14.0344L134.897 13.9467L134.81 13.859L134.723 13.7713H134.548L134.461 13.6836H134.286H134.112L134.025 13.5959L133.937 13.6836H133.85H133.763H133.676H133.588H133.501H133.414L133.327 13.7713H133.239H133.152V13.859H133.065L132.978 13.9467H132.89V14.0344L132.803 14.1222L132.716 14.2099V14.2976H132.629V14.3853L132.541 14.473V14.5608L132.454 14.6485V14.7362V14.8239V14.9116V14.9994V15.0871V15.1748V18.7713H131.232V10.1748Z" fill="white"/>
<path d="M139.348 15.0871H142.489V14.6485L142.401 14.5608V14.3854H142.314V14.21H142.227V14.1222L142.14 14.0345L142.052 13.9468H141.965L141.878 13.8591H141.791V13.7714H141.616L141.529 13.6836H141.354V13.5959H141.005L140.918 13.5082V13.5959H140.569V13.6836H140.307V13.7714H140.133V13.8591H139.958V13.9468H139.784V14.0345L139.697 14.1222V14.21H139.609V14.2976L139.522 14.3854V14.4731H139.435V15.0871H139.348ZM143.623 17.1047V17.3678L143.536 17.4555L143.449 17.631V17.7187L143.361 17.8064L143.274 17.8941V17.9819L143.187 18.0696L143.1 18.1573L143.012 18.245L142.925 18.3327L142.838 18.4205L142.75 18.5082H142.576L142.489 18.5959L142.401 18.6836L142.314 18.7713H142.227L142.14 18.8591H141.878L141.791 18.9468H140.395L140.307 18.8591H140.046L139.958 18.7713H139.871L139.784 18.6836H139.697L139.609 18.5959H139.522L139.435 18.5082H139.348V18.4205H139.26L139.173 18.3327V18.245H139.086L138.999 18.1573L138.911 18.0696L138.824 17.9819L138.737 17.8941L138.649 17.8064L138.562 17.7187V17.631L138.475 17.5433V17.4555H138.388V17.2801L138.3 17.1924V17.017L138.213 16.9292V16.7538L138.126 16.6661V14.824L138.213 14.7362V14.4731H138.3V14.2976L138.388 14.21V14.1222L138.475 14.0345V13.9468L138.562 13.8591V13.7714H138.649V13.6836L138.737 13.5959L138.824 13.5082V13.4205H138.911L138.999 13.3328L139.086 13.245H139.173V13.1573L139.26 13.0696H139.348V12.9819H139.435L139.522 12.8942H139.609L139.697 12.8064H139.784V12.7187H139.958L140.046 12.631H140.307L140.395 12.5433H140.918V12.4556L141.267 12.5433H141.616L141.965 12.631L142.227 12.7187L142.489 12.8942L142.663 13.0696L142.925 13.245L143.1 13.5082L143.274 13.6836L143.449 13.9468L143.536 14.2976L143.623 14.5608V15.2626L143.71 15.6134V16.052H139.348V16.1398L139.435 16.2275V16.7538L139.522 16.8415V17.017H139.609V17.1924H139.697V17.2801L139.784 17.3678L139.871 17.4555L139.958 17.5433H140.046V17.631H140.133L140.22 17.7187H140.307L140.395 17.8064H140.569L140.656 17.8941H141.616L141.703 17.8064H141.791V17.7187H141.965L142.052 17.631L142.14 17.5433H142.227V17.4555H142.314V17.3678H142.401V17.2801H142.489V17.1047H143.623Z" fill="white"/>
</svg>
