<svg width="165" height="55" viewBox="0 0 165 55" fill="none" xmlns="http://www.w3.org/2000/svg">
<path d="M151.293 0H13.3422H13.2549H13.1677H13.0804H12.9932H12.8186H12.7314H12.6441H12.5569H12.4696H12.2951H12.2079H12.1206H12.0334H11.9461H11.7716V0.0877246H11.6843H11.5971H11.5098H11.4226H11.3353H11.2481H11.1608H11.0735H10.9863H10.899H10.8118H10.7245H10.6373H10.55L10.3755 0.175449H10.201H10.0265H9.85198H9.67747H9.50295H9.32844H9.06667H8.89216L8.71766 0.263161H8.54315H8.36864H8.19412H8.01961H7.75784L7.6706 0.350885H7.49609L7.32157 0.438596H7.14706L6.97255 0.526321H6.79804L6.62354 0.614046L6.44902 0.701757H6.27451L6.1 0.789482L5.92549 0.877193L5.75099 0.964917L5.57646 1.05264L5.40196 1.14035H5.22745L5.14019 1.31579L4.96568 1.40351L4.79117 1.49124L4.61667 1.57895L4.44216 1.66667L4.26764 1.75439L4.18039 1.84211L4.00588 2.01755L3.83136 2.10527L3.74411 2.19298L3.56961 2.36843L3.39508 2.45614L3.30784 2.54387L3.13333 2.7193L2.95881 2.80703L2.87156 2.98246L2.7843 3.07017L2.60979 3.24562L2.52253 3.33334L2.43529 3.50877L2.26078 3.68422L2.17352 3.77193L2.08626 3.94737L1.99901 4.12282L1.8245 4.29825L1.73724 4.38596L1.64998 4.56141L1.56273 4.73685L1.47547 4.91229L1.38823 5.00001V5.17545L1.30097 5.35088L1.21371 5.52632L1.12646 5.70175L1.0392 5.8772L0.95195 6.05264L0.86469 6.22807V6.40351L0.777429 6.57895L0.690182 6.7544V6.92983L0.602922 7.10527V7.2807V7.45614L0.515674 7.63159V7.89474V8.07018L0.428414 8.24562V8.42106V8.59649V8.77193L0.341153 8.94738V9.12281V9.29825V9.47368V9.64912V9.82457V10V10.1754L0.253906 10.3509V10.4386V10.5263V10.614V10.7018V10.7895V10.8772V10.9649V11.0526V11.1404V11.2281V11.3158V11.4035V11.4912V11.579V11.6667V43.421V43.5088V43.5965V43.6842V43.7719V43.8596V43.9474V44.0351V44.1228V44.2105V44.2982V44.386V44.4737V44.5614V44.6491V44.7368L0.341153 45V45.1754V45.3509V45.5263V45.7017V45.8772V46.0526V46.2281L0.428414 46.4035V46.5789V46.7544V46.9298L0.515674 47.1053V47.2807V47.4561L0.602922 47.6316V47.807V47.9825L0.690182 48.1579V48.3333L0.777429 48.5088L0.86469 48.6842V48.8596L0.95195 49.0351L1.0392 49.2105L1.12646 49.386L1.21371 49.5614L1.30097 49.7368L1.38823 49.9123V50.0877L1.47547 50.2632L1.56273 50.4386L1.64998 50.614L1.73724 50.7895L1.8245 50.8772L1.99901 51.0526L2.08626 51.2281L2.17352 51.4035L2.26078 51.4912L2.43529 51.6667L2.52253 51.8421L2.60979 51.9298L2.7843 52.1052L2.87156 52.193L2.95881 52.2807L3.13333 52.4561L3.30784 52.6316L3.39508 52.7193L3.56961 52.807L3.74411 52.9824L3.83136 53.0702L4.00588 53.1579L4.18039 53.3333L4.26764 53.421L4.44216 53.5088L4.61667 53.5965L4.79117 53.6842L4.96568 53.7719L5.14019 53.8596L5.22745 53.9474L5.40196 54.0351L5.57646 54.1228L5.75099 54.2105L5.92549 54.2982H6.1L6.27451 54.386L6.44902 54.4737H6.62354L6.79804 54.5614L6.97255 54.6491H7.14706L7.32157 54.7368H7.49609H7.6706H7.75784L8.01961 54.8245H8.19412L8.36864 54.9123H8.54315H8.71766H8.89216L9.06667 55H9.32844H9.50295H9.67747H9.85198H10.0265H10.201H10.3755H10.55H10.6373H10.7245H10.8118H10.899H10.9863H11.0735H11.1608H11.2481H11.3353H11.4226H11.5098H11.5971H11.6843H11.7716H11.9461H12.0334H12.1206H12.2079H12.2951H12.4696H12.5569H12.6441H12.7314H12.8186H12.9932H13.0804H13.1677H13.2549H13.3422H151.293H151.38H151.467H151.554H151.642H151.729H151.816H151.903H152.078H152.165H152.252H152.34H152.427H152.514H152.601H152.776H152.863H152.95H153.038H153.125H153.212H153.299H153.387H153.474H153.561H153.649H153.736H153.823H153.91H153.998H154.085H154.259H154.434H154.608H154.783H154.957H155.132H155.306H155.481L155.655 54.9123H155.83H156.004H156.179L156.353 54.8245H156.528L156.79 54.7368H156.964H157.139H157.313L157.488 54.6491H157.662L157.837 54.5614L158.011 54.4737H158.186L158.36 54.386L158.535 54.2982H158.709L158.884 54.2105L159.058 54.1228L159.233 54.0351L159.407 53.9474L159.495 53.8596L159.669 53.7719L159.844 53.6842L160.018 53.5965L160.105 53.5088L160.28 53.421L160.454 53.3333L160.629 53.1579L160.716 53.0702L160.891 52.9824L161.065 52.807L161.152 52.7193L161.327 52.6316L161.414 52.4561L161.589 52.2807L161.676 52.193L161.85 52.1052L161.938 51.9298L162.025 51.8421L162.2 51.6667L162.287 51.4912L162.374 51.4035L162.549 51.2281L162.636 51.0526L162.723 50.8772L162.81 50.7895L162.898 50.614L162.985 50.4386L163.072 50.2632L163.247 50.0877V49.9123L163.334 49.7368L163.421 49.5614L163.508 49.386L163.596 49.2105L163.683 49.0351V48.8596L163.77 48.6842L163.857 48.5088V48.3333L163.945 48.1579V47.9825L164.032 47.807V47.6316L164.119 47.4561V47.2807V47.1053V46.9298V46.7544L164.206 46.5789V46.4035V46.2281V46.0526V45.8772L164.294 45.7017V45.5263V45.3509V45.1754V45L164.381 44.7368V44.6491V44.5614V44.4737V44.386V44.2982V44.2105V44.1228V44.0351V43.9474V43.8596V43.7719V43.6842V43.5965V43.5088V43.421V43.3333V43.2456V43.1579V43.0702V42.9824V42.8947V42.807V42.6316V42.5439V42.4561V42.3684V42.2807V42.193V42.1053V41.9298V13.1579V13.0702V12.9825V12.8947V12.807V12.7193V12.5439V12.4561V12.3684V12.2807V12.193V12.1053V12.0176V11.9298V11.8421V11.6667V11.579V11.4912V11.4035V11.3158V11.2281V11.1404V11.0526V10.9649V10.8772V10.7895V10.7018V10.614V10.5263V10.4386V10.3509L164.294 10.1754V10V9.82457V9.64912V9.47368L164.206 9.29825V9.12281V8.94738V8.77193V8.59649L164.119 8.42106V8.24562V8.07018V7.89474V7.63159L164.032 7.45614V7.2807L163.945 7.10527V6.92983L163.857 6.7544V6.57895L163.77 6.40351L163.683 6.22807V6.05264L163.596 5.8772L163.508 5.70175L163.421 5.52632L163.334 5.35088L163.247 5.17545V5.00001L162.985 4.73685L162.81 4.38596L162.636 4.12282L162.374 3.77193L162.2 3.50877L161.938 3.24562L161.676 2.98246L161.414 2.7193L161.152 2.45614L160.891 2.19298L160.629 2.01755L160.28 1.75439L160.018 1.57895L159.669 1.40351L159.407 1.14035H159.233L159.058 1.05264L158.884 0.964917L158.709 0.877193L158.535 0.789482L158.36 0.701757H158.186L158.011 0.614046L157.837 0.526321H157.662L157.488 0.438596H157.313L157.139 0.350885H156.964L156.79 0.263161H156.528H156.353H156.179H156.004H155.83L155.655 0.175449H155.481H155.306H155.132H154.957H154.783H154.608H154.434H154.259L154.085 0.0877246H153.998H153.91H153.823H153.736H153.649H153.561H153.474H153.387H153.299H153.212H153.125H153.038H152.95H152.863L152.776 0H152.601H152.514H152.427H152.34H152.252H152.165H152.078H151.903H151.816H151.729H151.642H151.554H151.467H151.38H151.293Z" fill="#A6A6A6"/>
<path d="M11.858 53.8596H11.7707H11.6835H11.5962H11.509H11.4217H11.3344H11.2472H11.1599H11.0727H10.9854H10.8982H10.8109H10.7237H10.6364H10.4619H10.2874H10.1129H9.93836H9.76385H9.58934H9.41484H9.24033L9.06581 53.7719H8.8913H8.71679H8.54228L8.36778 53.6842H8.19326L8.01875 53.5964H7.9315H7.75698H7.58247L7.40796 53.5087H7.3207L7.1462 53.421H6.97169L6.88443 53.3333H6.70992L6.53541 53.2456L6.44815 53.1578H6.27364L6.09914 53.0701L5.92463 52.9824L5.75012 52.8947H5.66286L5.48835 52.807L5.40109 52.7192L5.22658 52.6315L5.13932 52.5438L4.96482 52.4561L4.87757 52.3684L4.70305 52.2806L4.6158 52.1929L4.52854 52.0175L4.35403 51.9298L4.26677 51.8421L4.09226 51.7543L4.00502 51.6666L3.8305 51.4912L3.74325 51.4035L3.65599 51.3157L3.56874 51.1403L3.48148 51.0526L3.39422 50.8771L3.21971 50.7894L3.13247 50.7017L3.04521 50.5263L2.95794 50.4385L2.8707 50.2631L2.78344 50.1754L2.69619 49.9999L2.60893 49.9122L2.52167 49.7368L2.43442 49.5613V49.4736L2.34716 49.2982L2.25991 49.2105V49.035L2.17265 48.8596L2.08539 48.6842V48.5964L1.99815 48.421V48.2456L1.91089 48.0701V47.9824L1.82364 47.807V47.6315V47.4561L1.73638 47.2806V47.1929V47.0175L1.64912 46.842V46.6666V46.4912V46.3157L1.56187 46.1403V45.9648V45.7894V45.614V45.4386V45.2631V45.0877V44.9122L1.47461 44.7368V44.6491V44.4736V44.3859V44.2982V44.1228V44.035V43.9473V43.8596V43.6842V43.5964V43.5087V43.421V11.6666V11.5789V11.4912V11.3157V11.228V11.1403V11.0526V10.8771V10.7894V10.7017V10.614V10.5263V10.4386L1.56187 10.3508V10.1754V9.99996V9.82452V9.64907V9.47363V9.2982V9.12276L1.64912 8.94733V8.77188V8.59644V8.42101L1.73638 8.24557V8.07013V7.89469L1.82364 7.80697V7.63154V7.45609L1.91089 7.28065V7.19294L1.99815 7.01749V6.84206L2.08539 6.66662V6.5789L2.17265 6.40346L2.25991 6.22802V6.05259L2.34716 5.96486L2.43442 5.78943V5.61399L2.52167 5.52627L2.60893 5.35083L2.69619 5.26311L2.78344 5.08767L2.8707 4.99996L2.95794 4.82451L3.04521 4.7368L3.13247 4.56136L3.21971 4.47364L3.39422 4.2982L3.48148 4.21048L3.56874 4.03504L3.65599 3.94732L3.74325 3.85961L3.8305 3.68417L4.00502 3.59645L4.09226 3.50872L4.26677 3.42101L4.35403 3.24557L4.52854 3.15785L4.6158 3.07012L4.70305 2.98241L4.87757 2.89469L4.96482 2.80698L5.13932 2.71925L5.22658 2.63153L5.40109 2.54382L5.48835 2.45609L5.66286 2.36838L5.75012 2.28066H5.92463L6.09914 2.19293L6.27364 2.10522H6.44815L6.53541 2.0175L6.70992 1.92978H6.88443L6.97169 1.84206L7.1462 1.75434H7.3207L7.40796 1.66662H7.58247L7.75698 1.5789H7.9315L8.01875 1.49119H8.19326H8.36778H8.54228H8.71679H8.8913L9.06581 1.40346H9.24033H9.41484H9.58934H9.76385H9.93836H10.1129H10.2874H10.4619L10.6364 1.31574L11.858 1.22803H152.862L154.084 1.31574L154.171 1.40346H154.346H154.52H154.695H154.869H155.044H155.218H155.393H155.567L155.742 1.49119H155.916H156.091H156.265H156.44H156.614L156.702 1.5789H156.876L157.051 1.66662H157.225L157.312 1.75434H157.487L157.661 1.84206L157.836 1.92978H157.923L158.098 2.0175L158.272 2.10522H158.447L158.534 2.19293L158.708 2.28066H158.883L159.145 2.45609L159.406 2.63153L159.668 2.80698L159.93 2.98241L160.192 3.15785L160.454 3.33328L160.715 3.59645L160.89 3.77188L161.152 4.03504L161.326 4.2982L161.501 4.56136L161.675 4.82451L161.85 5.08767L162.024 5.35083L162.199 5.61399V5.78943L162.286 5.96486L162.373 6.05259V6.22802L162.46 6.40346L162.548 6.5789V6.66662L162.635 6.84206L162.722 7.01749V7.19294L162.809 7.28065V7.45609L162.897 7.63154V7.80697L162.984 7.89469V8.07013V8.24557V8.42101V8.59644V8.77188L163.071 8.94733V9.12276V9.2982V9.47363V9.64907V9.82452V9.99996V10.1754V10.3508L163.158 10.4386V10.5263V10.614V10.7017V10.7894V10.8771V10.9649V11.0526V11.1403V11.228V11.3157V11.4035V11.4912V11.5789V11.6666H163.246V11.8421V11.9298V12.0175V12.1052V12.1929V12.3684V12.4561V12.5438V12.6315V12.7192V12.807V12.8947V12.9824V13.0701V13.1578V41.9298V42.1052V42.1929V42.2807V42.3684V42.4561V42.6315V42.7193V42.807V42.8947V42.9824V43.0701V43.1578V43.2456V43.3333V43.421L163.158 43.5087V43.5964V43.6842V43.7719V43.8596V43.9473V44.035V44.1228V44.2105V44.2982V44.3859V44.4736V44.5614V44.6491V44.7368L163.071 44.9122V45.0877V45.2631V45.4386V45.614V45.7894V45.9648V46.1403V46.3157L162.984 46.4912V46.6666V46.842V47.0175V47.1929V47.2806L162.897 47.4561V47.6315L162.809 47.807V47.9824L162.722 48.0701V48.2456L162.635 48.421L162.548 48.5964V48.6842L162.46 48.8596L162.373 49.035V49.2105L162.286 49.2982L162.199 49.4736V49.5613L162.111 49.7368L162.024 49.9122L161.937 49.9999L161.85 50.1754L161.762 50.2631L161.675 50.4385L161.588 50.5263L161.501 50.7017L161.413 50.7894L161.326 50.8771L161.239 51.0526L161.064 51.1403L160.977 51.3157L160.89 51.4035L160.803 51.4912L160.628 51.6666L160.541 51.7543L160.454 51.8421L160.279 51.9298L160.192 52.0175L160.017 52.1929L159.93 52.2806L159.756 52.3684L159.668 52.4561L159.494 52.5438L159.406 52.6315L159.232 52.7192L159.145 52.807L158.97 52.8947H158.883L158.708 52.9824L158.534 53.0701L158.447 53.1578H158.272L158.098 53.2456L157.923 53.3333H157.836L157.661 53.421H157.487L157.312 53.5087H157.225L157.051 53.5964H156.876H156.702H156.614L156.44 53.6842H156.265L156.091 53.7719H155.916H155.742H155.567L155.393 53.8596H155.218H155.044H154.869H154.695H154.52H154.346H154.171H154.084H153.997H153.909H153.822H153.735H153.648H153.56H153.473H153.386H153.299H153.211H153.124H153.037H152.95H152.862H151.379H11.858Z" fill="black"/>
<path d="M56.6196 33.5965H60.8951L59.4118 29.4737V29.386L59.3245 29.2983V29.2105L59.2373 29.0351V28.9474L59.15 28.7719V28.6842L59.0628 28.5088V28.2456L58.9755 28.1579V27.9825L58.8883 27.8947V27.7193L58.801 27.5439V27.7193L58.7138 27.807V27.9825L58.6265 28.0702V28.2456L58.5393 28.3333V28.5088L58.452 28.5965V28.8597L58.3647 29.0351V29.1228L58.2775 29.2983V29.386L58.1902 29.4737L56.6196 33.5965ZM61.6804 35.614H55.9216L54.5255 39.4737H51.9951L57.5794 25H60.0226L65.7814 39.4737H63.1638L61.6804 35.614Z" fill="white"/>
<path d="M73.2863 36.8421L73.3736 36.7544L73.4608 36.579L73.5481 36.4035L73.6353 36.2281L73.7226 36.0527V35.8772L73.8099 35.7018L73.8971 35.5263V35.3509L73.9844 35.0877V34.1228L74.0716 33.8597L73.9844 33.6842V32.807L73.8971 32.6316V32.2807L73.8099 32.1053V32.0176L73.7226 31.8421L73.6353 31.6667L73.5481 31.579L73.4608 31.4913V31.3158L73.2863 31.2281L73.1991 31.1404L73.1118 31.0527L73.0246 30.9649L72.9373 30.8772L72.8501 30.7895H72.7628L72.5883 30.7018L72.501 30.6141H72.4138L72.2393 30.5263H71.8902L71.803 30.4386L71.6285 30.5263H71.1049L71.0177 30.6141H70.8432L70.7559 30.7018H70.5814L70.4941 30.7895L70.4069 30.8772L70.3197 30.9649H70.2324L70.1451 31.0527L70.0579 31.1404H69.9706L69.8834 31.2281H69.7961L69.7089 31.3158V31.4035H69.6216L69.5344 31.4913L69.4471 31.579L69.3598 31.6667V37.5439L69.4471 37.6316H69.6216V37.7193H70.1451V37.807H70.4069L70.4941 37.8948H71.803L71.9775 37.807H72.0648L72.2393 37.7193L72.4138 37.6316L72.501 37.5439L72.6755 37.4562L72.7628 37.3684L72.9373 37.2807L73.0246 37.1053L73.1118 37.0176L73.2863 36.8421ZM66.8294 31.3158V28.9474L66.7422 28.6842H69.0981V30L69.1853 30.0877L69.3598 29.9123L69.5344 29.7369L69.7089 29.5614L69.9706 29.386L70.1451 29.2105L70.4069 29.1228L70.5814 29.0351L70.8432 28.8597L71.0177 28.7719L71.2795 28.6842H71.5412L71.7157 28.5965H72.2393L72.501 28.5088L72.5883 28.5965H73.2863L73.4608 28.6842H73.5481L73.7226 28.7719H73.8099L73.9844 28.8597H74.0716L74.2461 28.9474L74.3334 29.0351H74.5079L74.5952 29.1228L74.6824 29.2105L74.8569 29.2983L74.9442 29.386L75.0314 29.4737L75.1187 29.5614L75.2932 29.7369L75.3804 29.8246L75.4677 29.9123L75.555 30L75.6422 30.1755L75.7295 30.2632L75.8167 30.4386L75.904 30.6141L75.9912 30.7018V30.8772L76.0785 31.0527L76.1657 31.2281V31.4035L76.253 31.579V31.7544L76.3403 32.0176V32.193L76.4275 32.3684V33.5088L76.5148 33.6842L76.4275 33.9474V34.9123L76.3403 35.1755V35.6141L76.253 35.7895V36.0527L76.1657 36.2281L76.0785 36.4035L75.9912 36.579L75.904 36.7544V36.9298L75.7295 37.1053L75.6422 37.2807L75.555 37.4562L75.4677 37.6316L75.3804 37.807L75.2932 37.8948L75.1187 38.0702L75.0314 38.2456L74.8569 38.3334L74.7697 38.5088L74.5952 38.5965L74.5079 38.6842L74.3334 38.772L74.1589 38.8597L74.0716 38.9474L73.8971 39.0351L73.7226 39.1228L73.5481 39.2106L73.3736 39.2983L73.1991 39.386H73.0246L72.8501 39.4737H72.501L72.3265 39.5614H70.3197L70.2324 39.4737H69.9706L69.7961 39.386H69.5344L69.3598 39.2983L69.2726 39.2106V43.7719L66.8294 43.9474V31.3158Z" fill="white"/>
<path d="M84.4553 36.8421L84.5425 36.7544L84.6298 36.579L84.7171 36.4035L84.8043 36.2281L84.8915 36.0527V35.8772L84.9788 35.7018L85.0661 35.5263V35.3509L85.1533 35.0877V34.1228L85.2406 33.8597L85.1533 33.6842V32.807L85.0661 32.6316V32.2807L84.9788 32.1053V32.0176L84.8915 31.8421L84.8043 31.6667L84.7171 31.579L84.6298 31.4913V31.3158L84.4553 31.2281L84.368 31.1404L84.2808 31.0527L84.1935 30.9649L84.1063 30.8772L84.019 30.7895H83.9318L83.7572 30.7018L83.67 30.6141H83.5827L83.4082 30.5263H83.0592L82.9719 30.4386L82.7974 30.5263H82.2739L82.1867 30.6141H82.0121L81.9249 30.7018H81.7504L81.6631 30.7895L81.5759 30.8772L81.4886 30.9649H81.4013L81.3141 31.0527L81.2268 31.1404H81.1396L81.0523 31.2281H80.9651L80.8778 31.3158V31.4035H80.7906L80.7033 31.4913L80.616 31.579L80.5288 31.6667V37.5439L80.616 37.6316H80.7906V37.7193H81.3141V37.807H81.5759L81.6631 37.8948H82.9719L83.1464 37.807H83.2337L83.4082 37.7193L83.5827 37.6316L83.67 37.5439L83.8445 37.4562L83.9318 37.3684L84.1063 37.2807L84.1935 37.1053L84.2808 37.0176L84.4553 36.8421ZM77.9984 31.3158V28.9474L77.9111 28.6842H80.267V30L80.3543 30.0877L80.5288 29.9123L80.7033 29.7369L80.8778 29.5614L81.1396 29.386L81.3141 29.2105L81.5759 29.1228L81.7504 29.0351L82.0121 28.8597L82.1867 28.7719L82.4484 28.6842H82.7102L82.8847 28.5965H83.4082L83.67 28.5088L83.7572 28.5965H84.4553L84.6298 28.6842H84.7171L84.8915 28.7719H84.9788L85.1533 28.8597H85.2406L85.4151 28.9474L85.5023 29.0351H85.6769L85.7641 29.1228L85.8514 29.2105L86.0259 29.2983L86.1131 29.386L86.2004 29.4737L86.2876 29.5614L86.4622 29.7369L86.5494 29.8246L86.6367 29.9123L86.7239 30L86.8112 30.1755L86.8984 30.2632L86.9857 30.4386L87.0729 30.6141L87.1602 30.7018V30.8772L87.2474 31.0527L87.3347 31.2281V31.4035L87.422 31.579V31.7544L87.5092 32.0176V32.193L87.5965 32.3684V33.5088L87.6837 33.6842L87.5965 33.9474V34.9123L87.5092 35.1755V35.6141L87.422 35.7895V36.0527L87.3347 36.2281L87.2474 36.4035L87.1602 36.579L87.0729 36.7544V36.9298L86.8984 37.1053L86.8112 37.2807L86.7239 37.4562L86.6367 37.6316L86.5494 37.807L86.4622 37.8948L86.2876 38.0702L86.2004 38.2456L86.0259 38.3334L85.9386 38.5088L85.7641 38.5965L85.6769 38.6842L85.5023 38.772L85.3278 38.8597L85.2406 38.9474L85.0661 39.0351L84.8915 39.1228L84.7171 39.2106L84.5425 39.2983L84.368 39.386H84.1935L84.019 39.4737H83.67L83.4955 39.5614H81.4886L81.4013 39.4737H81.1396L80.9651 39.386H80.7033L80.5288 39.2983L80.4416 39.2106V43.7719L77.9984 43.9474V31.3158Z" fill="white"/>
<path d="M92.221 38.7721L92.0465 38.6844L91.8719 38.5966L91.6974 38.4212L91.5229 38.2458L91.2612 38.158L91.0867 37.9826L90.9994 37.8072L90.8249 37.6317L90.6504 37.4563L90.4759 37.2808L90.3886 37.1054L90.2141 36.93L90.0396 36.6668L89.9523 36.4914L89.7778 36.2282L89.6906 36.0528L89.6033 35.8773L89.5161 35.6142L89.4288 35.351L89.3415 35.1756L89.2543 34.9124V34.6493L89.1671 34.3861L89.0798 34.123V33.8598L88.9925 33.5966V33.2458V32.9826V32.7194L88.9053 32.3686L88.9925 32.1054V31.7545V31.4914V31.1405L89.0798 30.8773V30.5265L89.1671 30.2633L89.2543 30.0002L89.3415 29.737L89.4288 29.4738L89.5161 29.2107L89.6033 29.0352L89.7778 28.7721L89.8651 28.5089L89.9523 28.2458L90.1268 28.0703L90.2141 27.8072L90.3886 27.6317L90.5631 27.4563L90.7376 27.2808L90.8249 27.0177L90.9994 26.8423L91.1739 26.6668L91.4357 26.5791L91.6102 26.4037L91.7847 26.2282L92.0465 26.1405L92.221 25.9651L92.3955 25.8773L92.6573 25.7019L92.8318 25.6142L93.0063 25.5265L93.268 25.4387L93.5298 25.351L93.7043 25.2633L93.9661 25.1756H94.2278L94.4896 25.0879L94.7514 25.0001H95.0131L95.2749 24.9124H95.5367H95.7984H96.0602L96.4092 24.8247L96.4965 24.9124H96.671H96.8455H97.02H97.1945H97.369H97.5435H97.7181L97.8053 25.0001H97.9798H98.1543H98.3288L98.4161 25.0879H98.5906H98.7651L98.8524 25.1756H99.0269L99.2014 25.2633H99.2886L99.4632 25.351H99.6377L99.7249 25.4387L99.8994 25.5265H100.074L100.161 25.6142L100.336 25.7019H100.423L100.597 25.7896L100.685 25.8773H100.859L100.248 27.8072L99.9867 27.7194L99.7249 27.6317L99.4632 27.4563L99.2014 27.3686L98.9396 27.2808L98.6779 27.1931L98.4161 27.1054H98.1543L97.8926 27.0177H97.7181L97.4563 26.93H97.1945H96.9328H96.671L96.4965 26.8423L96.2347 26.93H96.0602H95.8857H95.7112H95.5367L95.3622 27.0177H95.1877L95.0131 27.1054L94.8386 27.1931H94.6641L94.4896 27.2808L94.3151 27.3686L94.1406 27.4563L93.9661 27.544H93.8788L93.7043 27.6317L93.5298 27.7194L93.4426 27.8072L93.268 27.8949L93.1808 28.0703L93.0063 28.158L92.919 28.2458L92.8318 28.4212L92.6573 28.5089L92.57 28.6844L92.4827 28.8598L92.3955 28.9475L92.3082 29.123L92.221 29.2984L92.1337 29.3861V29.5616L92.0465 29.737L91.9592 29.9124L91.8719 30.0879L91.7847 30.2633V30.5265L91.6974 30.7019V30.8773V31.1405L91.6102 31.3159V31.4914V31.7545V31.93V32.1931L91.5229 32.3686L91.6102 32.6317V32.8072V32.9826V33.2458V33.4212V33.5966L91.6974 33.7721V33.9475L91.7847 34.123V34.2984L91.8719 34.4738V34.6493L91.9592 34.8247L92.0465 35.0001V35.0879L92.1337 35.2633L92.221 35.4387V35.6142L92.3082 35.7019V35.8773L92.3955 35.9651L92.57 36.1405L92.6573 36.2282L92.7445 36.4037L92.8318 36.4914L93.0063 36.5791L93.0935 36.7545L93.1808 36.8422L93.3553 36.93L93.5298 37.0177L93.617 37.1054L93.7916 37.1931L93.9661 37.2808L94.0533 37.3686L94.2278 37.4563H94.4024L94.5769 37.544L94.7514 37.6317H94.9259L95.1004 37.7194H95.2749H95.5367H95.7112H95.8857H96.1475H96.2347H96.322H96.4092H96.4965H96.5837H96.671H96.7582H96.9328H97.02L97.1073 37.6317H97.1945H97.2818H97.369H97.4563L97.6308 37.544H97.7181H97.8053H97.8926H97.9798L98.0671 37.4563H98.1543H98.2416H98.3288L98.4161 37.3686H98.5033H98.5906H98.6779L98.7651 37.2808H98.8524L98.9396 37.1931V34.2984H95.6239V32.3686H101.383V38.4212L101.208 38.5089L101.034 38.5966L100.859 38.6844L100.685 38.7721L100.51 38.8598L100.336 38.9475H100.161L99.9867 39.0352L99.8122 39.123H99.6377L99.4632 39.2107L99.2886 39.2984H99.1141L98.9396 39.3861H98.7651L98.5033 39.4738H98.3288L98.1543 39.5615H97.9798H97.8053H97.6308L97.4563 39.6493H97.2818H97.1073H96.9328H96.7582H96.5837H96.4092H96.2347H96.0602H95.7112H95.4494H95.1877H94.8386L94.5769 39.5615H94.3151L94.0533 39.4738H93.7916L93.5298 39.3861L93.268 39.2984L93.0935 39.2107L92.8318 39.123L92.57 39.0352L92.3955 38.9475L92.221 38.7721Z" fill="white"/>
<path d="M108.45 37.4562H108.624L108.711 37.3684H108.799L108.886 37.2807L108.973 37.193L109.06 37.1053H109.148L109.235 37.0176L109.322 36.9298L109.409 36.8421H109.497L109.584 36.7544L109.671 36.6667L109.758 36.579V34.4737H108.275L108.101 34.386L107.926 34.4737H107.053L106.879 34.5614H106.792L106.617 34.6491H106.53L106.443 34.7369H106.268L106.181 34.8246L106.094 34.9123H106.006V35L105.919 35.0877L105.832 35.1755L105.745 35.2632L105.657 35.3509L105.57 35.4386V35.6141L105.483 35.7018V36.1404L105.396 36.2281L105.483 36.4035V36.8421L105.57 36.9298V37.0176L105.657 37.1053V37.193L105.745 37.2807L105.832 37.3684L105.919 37.4562L106.006 37.5439H106.094V37.6316H106.181L106.268 37.7193H106.443L106.53 37.807H107.664L107.839 37.7193H108.013L108.101 37.6316H108.275L108.362 37.5439L108.45 37.4562ZM109.933 39.4737V38.8597L109.846 38.772V38.1579L109.758 37.9825V38.1579L109.671 38.2456L109.584 38.3334L109.497 38.4211L109.409 38.5088L109.322 38.5965L109.235 38.6842L109.148 38.772L108.973 38.8597H108.886L108.799 38.9474L108.711 39.0351L108.537 39.1228L108.45 39.2106H108.275L108.188 39.2983L108.101 39.386H107.926L107.839 39.4737H107.664L107.577 39.5614H107.315L107.141 39.6491H105.57L105.396 39.5614H105.221L105.134 39.4737H104.872L104.785 39.386H104.698L104.523 39.2983L104.436 39.2106H104.349L104.261 39.1228L104.174 39.0351L104.087 38.9474H104L103.912 38.8597L103.825 38.772L103.738 38.6842L103.651 38.5965L103.563 38.5088L103.476 38.4211L103.389 38.3334L103.302 38.1579V38.0702L103.214 37.9825V37.8948L103.127 37.807V37.7193L103.04 37.6316V37.3684L102.952 37.2807V36.579L102.865 36.4035L102.952 36.2281V35.7018L103.04 35.4386V35.2632L103.127 35.1755L103.214 35L103.302 34.8246L103.389 34.6491L103.476 34.5614L103.651 34.386L103.738 34.2105L103.912 34.1228L104 33.9474L104.174 33.8597L104.349 33.7719L104.61 33.5965L104.785 33.5088L104.959 33.4211L105.221 33.3333L105.396 33.2456H105.657L105.919 33.1579H106.181L106.53 33.0702H107.49L107.752 32.9825L107.926 33.0702H109.235L109.322 33.1579H109.671V32.1053L109.584 31.9298V31.6667L109.497 31.579V31.4035L109.409 31.3158L109.322 31.2281L109.235 31.1404L109.148 31.0527L109.06 30.8772L108.973 30.7895L108.886 30.7018H108.799L108.711 30.6141H108.537L108.45 30.5263H108.362L108.188 30.4386H107.49L107.315 30.3509L107.228 30.4386H106.181L106.094 30.5263H105.657L105.57 30.6141H105.483L105.308 30.7018H105.221L105.134 30.7895H104.872L104.785 30.8772H104.698L104.61 30.9649H104.523L104.436 31.0527H104.349L104.261 31.1404H104.087L103.738 29.2983H103.912L104 29.2105H104.087L104.174 29.1228H104.436L104.523 29.0351H104.698L104.785 28.9474H105.047L105.134 28.8597H105.308L105.396 28.7719H105.745L105.919 28.6842H106.355L106.53 28.5965H107.577L107.664 28.5088L107.926 28.5965H108.799L108.973 28.6842H109.235L109.409 28.7719H109.497L109.671 28.8597H109.846L109.933 28.9474H110.02L110.107 29.0351L110.282 29.1228L110.369 29.2105L110.456 29.2983H110.631L110.718 29.386L110.805 29.4737L110.98 29.6491L111.067 29.7369L111.154 29.8246L111.242 29.9123L111.329 30L111.416 30.1755L111.503 30.2632L111.591 30.3509V30.5263L111.678 30.7018L111.765 30.8772V31.0527L111.853 31.1404V31.3158L111.94 31.579V31.7544L112.027 31.9298V32.9825L112.114 33.1579V39.2983L112.202 39.4737H109.933Z" fill="white"/>
<path d="M114.122 36.842V24.1227L116.565 23.9473V36.4034V36.4911V36.5788V36.6666V36.7543V36.842V36.9297V37.0174V37.1052L116.652 37.1929V37.2806V37.3683H116.74V37.456V37.5438H116.827L116.914 37.6315H117.002L117.089 37.7192H117.176H117.263H117.351H117.438H117.525H117.612H117.7H117.787H117.874H117.961H118.049H118.136L118.223 37.6315L118.485 39.3859L118.398 39.4736H118.31H118.223H118.136V39.5613H118.049H117.961H117.874V39.649H117.787H117.7H117.612L117.525 39.7367H117.438H117.351H117.263H117.176H117.089H117.002H116.914H116.827H116.74H116.652H116.303H115.954L115.693 39.649L115.431 39.5613L115.256 39.3859L114.995 39.2104L114.82 39.1227L114.646 38.8596L114.471 38.6841L114.384 38.421L114.297 38.1578L114.209 37.8946L114.122 37.5438V37.2806V36.842Z" fill="white"/>
<path d="M120.229 36.842V24.1227L122.673 23.9473V36.4034V36.4911V36.5788V36.6666V36.7543V36.842V36.9297V37.0174V37.1052L122.76 37.1929V37.2806V37.3683H122.847V37.456V37.5438H122.934L123.022 37.6315H123.109L123.196 37.7192H123.283H123.371H123.458H123.545H123.632H123.72H123.807H123.894H123.981H124.069H124.156H124.243L124.33 37.6315L124.592 39.3859L124.505 39.4736H124.418H124.33H124.243V39.5613H124.156H124.069H123.981V39.649H123.894H123.807H123.72L123.632 39.7367H123.545H123.458H123.371H123.283H123.196H123.109H123.022H122.934H122.847H122.76H122.411H122.062L121.8 39.649L121.538 39.5613L121.364 39.3859L121.102 39.2104L120.928 39.1227L120.753 38.8596L120.579 38.6841L120.491 38.421L120.404 38.1578L120.317 37.8946L120.229 37.5438V37.2806V36.842Z" fill="white"/>
<path d="M132.27 32.807V32.3684L132.183 32.2807V31.9298L132.096 31.8421V31.6667L132.008 31.579V31.4035L131.921 31.3158L131.834 31.2281L131.747 31.1404L131.659 31.0527L131.572 30.8772L131.485 30.7895L131.398 30.7018L131.31 30.6141L131.223 30.5263H131.136L131.049 30.4386H130.787L130.7 30.3509H130.176L130.002 30.2632L129.914 30.3509H129.478L129.391 30.4386H129.129L129.042 30.5263H128.954L128.867 30.6141L128.78 30.7018L128.693 30.7895L128.605 30.8772H128.518V31.0527L128.431 31.1404L128.344 31.2281L128.256 31.3158L128.169 31.4035L128.082 31.579V31.6667L127.995 31.8421L127.907 31.9298V32.1053L127.82 32.2807V32.3684L127.733 32.5439V32.7193L127.646 32.807H132.27ZM134.626 34.386H127.558L127.646 34.9123L127.733 35.2632L127.82 35.7018L127.907 36.0527L128.082 36.3158L128.256 36.579L128.431 36.8421L128.605 37.1053L128.867 37.2807L129.129 37.4562L129.391 37.6316L129.74 37.7193L130.089 37.807H131.659L131.747 37.7193H132.096L132.183 37.6316H132.27L132.357 37.5439H132.794L132.881 37.4562H133.143L133.23 37.3684H133.317L133.404 37.2807H133.579L133.666 37.193H133.753L133.841 37.1053L134.364 38.772L134.19 38.9474L133.928 39.0351L133.666 39.1228L133.404 39.2106L133.143 39.2983L132.881 39.386L132.619 39.4737H132.357L132.096 39.5614H131.834L131.572 39.6491H129.303L129.129 39.5614H128.954L128.693 39.4737H128.518L128.344 39.386L128.169 39.2983H127.995L127.82 39.2106L127.646 39.1228L127.471 39.0351L127.384 38.9474L127.209 38.8597L127.035 38.772L126.948 38.6842L126.773 38.5965L126.686 38.4211L126.511 38.3334L126.424 38.2456L126.337 38.0702L126.162 37.9825L126.075 37.807L125.988 37.6316L125.901 37.4562L125.813 37.2807L125.726 37.1053V37.0176L125.639 36.8421L125.552 36.6667L125.464 36.4912L125.377 36.3158V36.1404L125.29 35.9649V35.5263L125.202 35.3509V34.4737L125.115 34.2105L125.202 34.0351V33.0702L125.29 32.8948V32.4562L125.377 32.2807V32.1053L125.464 31.9298L125.552 31.7544L125.639 31.579L125.726 31.4035V31.1404L125.901 31.0527L125.988 30.8772L126.075 30.7018L126.162 30.5263L126.25 30.3509L126.337 30.2632L126.424 30.0877L126.599 30L126.686 29.8246L126.773 29.7369L126.948 29.6491L127.035 29.4737L127.209 29.386L127.384 29.2983L127.471 29.1228H127.646L127.82 29.0351L127.995 28.9474L128.169 28.8597L128.344 28.7719H128.431L128.605 28.6842H128.954L129.129 28.5965H129.914L130.089 28.5088L130.351 28.5965H131.049L131.223 28.6842H131.398L131.572 28.7719H131.747L131.921 28.8597L132.096 28.9474H132.183L132.357 29.0351L132.532 29.1228L132.619 29.2105L132.794 29.386L132.968 29.4737L133.055 29.5614L133.143 29.6491L133.317 29.7369L133.404 29.9123L133.492 30L133.579 30.1755L133.666 30.2632L133.753 30.4386L133.841 30.6141L133.928 30.7018L134.015 30.8772L134.103 31.0527V31.1404L134.19 31.3158L134.277 31.4913L134.364 31.6667V31.8421L134.452 32.0176V32.193L134.539 32.3684V32.5439L134.626 32.7193V34.386Z" fill="white"/>
<path d="M136.459 31.4035V31.3158V31.2281V31.0527V30.8772V30.7018V30.6141V30.4386V30.2632V30V29.8246V29.6491V29.386V29.2105V28.9474L136.372 28.6842H138.728V28.7719V28.8597V28.9474V29.0351V29.1228V29.2105V29.2983V29.386V29.4737V29.5614V29.6491V29.7369H138.815V29.8246V29.9123V30V30.0877V30.1755V30.2632V30.3509V30.4386V30.5263V30.6141V30.7018V30.7895L138.902 30.7018L138.99 30.6141L139.077 30.5263V30.4386L139.164 30.3509L139.252 30.2632V30.1755L139.339 30.0877V30L139.426 29.9123H139.513V29.8246L139.601 29.7369L139.688 29.6491L139.775 29.5614V29.4737H139.862L139.95 29.386L140.037 29.2983L140.124 29.2105L140.211 29.1228H140.299V29.0351H140.386L140.473 28.9474H140.56L140.648 28.8597L140.735 28.7719H140.822H140.909L140.997 28.6842H141.084H141.171L141.258 28.5965H141.346H141.433H141.52H141.607H141.695H141.782L141.869 28.5088V28.5965H141.956H142.044H142.131H142.218H142.305H142.393H142.48L142.567 28.6842H142.654H142.742H142.829H142.916L142.567 30.7895H142.48H142.393H142.305H142.218H142.131H142.044H141.956H141.869H141.782V30.7018L141.607 30.7895H141.52H141.433H141.346H141.258H141.084H140.997L140.909 30.8772H140.822H140.735L140.648 30.9649H140.56L140.473 31.0527L140.386 31.1404H140.299L140.124 31.2281L140.037 31.3158L139.95 31.4035L139.862 31.4913H139.775L139.688 31.579L139.601 31.6667L139.513 31.8421L139.426 31.9298L139.339 32.0176L139.252 32.1053L139.164 32.193L139.077 32.3684L138.99 32.4562L138.902 32.5439V39.4737H136.459V31.4035Z" fill="white"/>
<path d="M144.224 43.86H144.137H144.05H143.962V43.7723H143.875H143.788H143.701L143.613 43.6846H143.526H143.439L143.352 43.5968L143.788 41.8425L143.875 41.9302H143.962H144.05H144.137L144.224 42.0179H144.311H144.399H144.486H144.573H144.66H144.748H144.835H144.922H145.009H145.097H145.184H145.358H145.533H145.707L145.882 41.9302L146.144 41.8425L146.231 41.7547L146.405 41.5793L146.58 41.4916L146.755 41.3161L146.929 41.1407L147.016 40.9653L147.191 40.7021L147.278 40.4389L147.365 40.2635L147.54 39.9126L147.714 39.5618L143.788 28.7723H146.405L148.412 34.8249V35.0881L148.5 35.2635L148.587 35.439V35.6144L148.674 35.7898V35.9653L148.761 36.1407V36.3161L148.849 36.4916V36.5793V36.7547L148.936 36.8425V37.0179V37.1056L149.023 37.1933V37.1056L149.11 36.9302V36.7547L149.198 36.5793V36.4039L149.285 36.2284V36.1407L149.372 35.9653V35.7898L149.459 35.6144V35.5267L149.547 35.3512V35.1758L149.634 35.0004L149.721 34.8249L151.728 28.6846H154.171L150.245 39.5618L150.157 39.8249L150.07 40.0004L149.983 40.1758L149.896 40.4389L149.808 40.6144L149.721 40.7898L149.634 40.9653L149.547 41.1407L149.459 41.3161L149.372 41.4916L149.285 41.5793L149.198 41.7547L149.11 41.9302L149.023 42.0179V42.1056L148.849 42.2811L148.761 42.3688L148.674 42.4565L148.587 42.6319L148.5 42.7197L148.412 42.8074L148.325 42.8951L148.238 42.9828L148.151 43.0705L147.976 43.1583L147.889 43.246L147.802 43.3337L147.714 43.4214L147.627 43.5091H147.54L147.365 43.5968L147.278 43.6846H147.104L147.016 43.7723H146.842L146.755 43.86H146.58H146.405L146.318 43.9477H146.144H145.969H145.795H145.62H145.446H145.358H145.271H145.184H145.097H145.009H144.922H144.835H144.748H144.66H144.573H144.486H144.399H144.311H144.224V43.86Z" fill="white"/>
<path d="M51.9951 11.3159H56.3579L56.2706 12.3685H53.3039V14.3861H56.0961V15.351H53.3039V17.6317H56.3579L56.2706 18.6843H51.9951V11.3159Z" fill="white"/>
<path d="M59.3253 15.0001L57.0567 11.3159H58.4528L60.0233 14.0352L61.6812 11.3159H63.0773L60.8087 14.9124L63.2518 18.7721H61.7685L60.0233 15.8773L58.191 18.7721H56.7949L59.3253 15.0001Z" fill="white"/>
<path d="M67.4403 14.6493L67.5276 14.5615V14.4738L67.6149 14.3861V14.2984L67.7021 14.2107V13.6843L67.7894 13.5966L67.7021 13.5089V13.0703L67.6149 12.9826V12.8949L67.5276 12.8071V12.7194H67.4403L67.3531 12.6317V12.544H67.1786V12.4563H66.9168V12.3685H66.306L66.2188 12.2808H65.5207V15.0001H66.7423L66.8296 14.9124H67.0041L67.0913 14.8247H67.1786L67.2658 14.737H67.3531L67.4403 14.6493ZM64.2119 11.3159H66.2188L66.3933 11.4036H67.0913L67.1786 11.4914H67.5276L67.6149 11.5791H67.7894L67.8766 11.6668L68.0511 11.7545L68.1384 11.8422L68.2257 11.93H68.4002V12.0177L68.4874 12.1054L68.5747 12.1931L68.6619 12.2808L68.7492 12.3685V12.4563L68.8364 12.6317L68.9237 12.7194V12.8071L69.0109 12.8949V13.5089L69.0982 13.5966L69.0109 13.6843V14.2984L68.9237 14.3861V14.6493L68.8364 14.737V14.8247L68.7492 14.9124L68.6619 15.0001V15.0878L68.5747 15.1756H68.4874V15.2633L68.4002 15.351L68.3129 15.4387L68.2257 15.5264L68.1384 15.6142H68.0511L67.9639 15.7019H67.8766L67.7021 15.7896H67.6149L67.5276 15.8773H67.2658L67.1786 15.965H65.5207V18.6843H64.2119V11.3159Z" fill="white"/>
<path d="M70.4072 11.3159H71.7161V17.6317H74.77L74.6827 18.6843H70.4072V11.3159Z" fill="white"/>
<path d="M80.0917 17.4561H80.179L80.2662 17.3684V17.2807H80.3535L80.4407 17.1929V17.1052H80.528L80.6152 17.0175V16.9298L80.7025 16.8421V16.7543L80.7898 16.6666V16.5789L80.877 16.4912V16.3157L80.9642 16.228V15.9649L81.0515 15.8772V15.2631L81.1388 15.0877L81.0515 15V14.035L80.9642 13.9473V13.6842H80.877V13.5964L80.7898 13.5087V13.421L80.7025 13.3333V13.2456L80.6152 13.1578L80.528 13.0701L80.4407 12.9824L80.3535 12.8947V12.807H80.2662L80.179 12.7193V12.6315H80.0917L80.0045 12.5438H79.8299L79.7427 12.4561H79.5682L79.4809 12.3684H78.9574L78.8701 12.2807L78.6956 12.3684H78.2594L78.1721 12.4561H77.9976L77.9103 12.5438H77.7358L77.6486 12.6315H77.5613L77.474 12.7193L77.3868 12.807H77.2995L77.2123 12.8947V12.9824L77.125 13.0701H77.0378L76.9505 13.1578V13.2456L76.8633 13.3333L76.776 13.421V13.6842H76.6887V13.9473L76.6015 14.035V14.2982L76.5143 14.3859V15L76.427 15.0877L76.5143 15.2631V15.9649L76.6015 16.0526V16.3157L76.6887 16.4035V16.5789L76.776 16.6666V16.9298H76.8633V17.0175L76.9505 17.1052L77.0378 17.1929L77.125 17.2807L77.2123 17.3684V17.4561H77.2995L77.3868 17.5438H77.474V17.6315L77.5613 17.7193H77.7358L77.8231 17.807H77.9976L78.0848 17.8947H79.3064L79.3937 17.807H79.5682L79.6554 17.7193H79.7427L79.8299 17.6315H79.9172L80.0045 17.5438L80.0917 17.4561ZM76.776 18.421H76.6887L76.6015 18.3333L76.5143 18.2456H76.427L76.3397 18.1579L76.2525 18.0701L76.1652 17.9824L76.078 17.8947L75.9907 17.807L75.9035 17.6315L75.8162 17.5438V17.4561L75.7289 17.3684L75.6417 17.2807L75.5544 17.1052V17.0175L75.4672 16.9298L75.3799 16.8421V16.6666L75.2927 16.5789V16.3157L75.2054 16.1403V15.2631L75.1182 15.0877L75.2054 15V14.2982L75.2927 14.1228V13.8596L75.3799 13.7719V13.5964L75.4672 13.5087V13.3333L75.5544 13.2456V13.0701L75.6417 12.9824L75.7289 12.8947L75.8162 12.807V12.6315L75.9035 12.5438L75.9907 12.4561L76.078 12.3684L76.1652 12.2807L76.2525 12.1929L76.427 12.1052L76.5143 12.0175L76.6015 11.9298L76.6887 11.8421L76.776 11.7543L76.8633 11.6666H76.9505L77.0378 11.5789H77.2123L77.2995 11.4912H77.474L77.5613 11.4035H77.8231L77.9976 11.3158H78.6956L78.8701 11.228L78.9574 11.3158H79.6554L79.8299 11.4035H80.0917L80.179 11.4912H80.3535L80.4407 11.5789H80.6152L80.7025 11.6666H80.877L80.9642 11.7543L81.0515 11.8421L81.1388 11.9298H81.226L81.3133 12.0175L81.4005 12.1052L81.4878 12.1929L81.575 12.2807L81.6623 12.3684L81.7496 12.5438L81.8368 12.6315V12.7193L81.9241 12.807L82.0113 12.8947L82.0986 12.9824V13.1578L82.1858 13.2456V13.3333L82.2731 13.5087V13.5964L82.3603 13.7719V14.035L82.4476 14.1228V14.8245L82.5349 14.9122L82.4476 15.0877V15.8772L82.3603 15.9649V16.3157L82.2731 16.4035V16.5789L82.1858 16.6666V16.8421L82.0986 16.9298V17.0175L82.0113 17.1929L81.9241 17.2807L81.8368 17.3684L81.7496 17.5438L81.6623 17.6315L81.575 17.7193L81.4878 17.807L81.4005 17.8947L81.3133 17.9824L81.226 18.0701L81.1388 18.1579H81.0515L80.9642 18.2456L80.877 18.3333H80.7898L80.6152 18.421L80.528 18.5087L80.3535 18.5965H80.2662L80.0917 18.6842H80.0045L79.8299 18.7719H79.7427L79.5682 18.8596H77.8231L77.7358 18.7719H77.474L77.2995 18.6842H77.2123L77.0378 18.5965H76.9505L76.8633 18.5087L76.776 18.421Z" fill="white"/>
<path d="M85.9395 14.8247H86.3758L86.463 14.737H86.6375L86.7248 14.6493H86.812V14.5615H86.8993V14.4738H86.9865L87.0738 14.3861V14.2984H87.161L87.2483 14.2107L87.3356 14.1229V13.8598H87.4228V13.4212L87.5101 13.3335H87.4228V12.9826L87.3356 12.8949V12.8071L87.2483 12.7194V12.6317H87.161V12.544H86.9865V12.4563H86.7248V12.3685H86.114V12.2808H85.2414V14.737H85.9395V14.8247ZM83.9326 11.3159H86.2885L86.3758 11.4036H87.161L87.2483 11.4914H87.5101L87.6846 11.5791H87.7718L87.8591 11.6668H87.9463L88.0336 11.7545H88.2081V11.8422L88.2954 11.93L88.3826 12.0177L88.4699 12.1054L88.5571 12.1931V12.2808L88.6444 12.3685V12.6317L88.7317 12.7194V13.158L88.8189 13.2457L88.7317 13.3335V14.0352L88.6444 14.1229V14.2984L88.5571 14.3861V14.4738H88.4699V14.5615H88.3826V14.737H88.2954V14.8247H88.2081V14.9124H88.1209V15.0001H88.0336L87.9463 15.0878H87.8591V15.1756H87.7718L87.6846 15.2633L87.5973 15.351H87.5101V15.4387H87.3356L89.6042 18.6843H88.1209L86.2012 15.7896H85.2414V18.6843H83.9326V11.3159Z" fill="white"/>
<path d="M90.5635 11.3159H94.9262L94.839 12.3685H91.8723V14.3861H94.6645V15.351H91.8723V17.6317H94.9262L94.839 18.6843H90.5635V11.3159Z" fill="white"/>
<path d="M99.7246 11.3159H100.947V18.7721H99.7246V11.3159Z" fill="white"/>
<path d="M99.7246 11.3159H100.947V18.7721H99.7246V11.3159Z" stroke="white" stroke-width="0.1" stroke-miterlimit="10" stroke-linecap="round"/>
<path d="M104.349 12.3684H102.08L102.167 11.228H107.926L107.752 12.3684H105.57V18.6842H104.349V12.3684Z" fill="white"/>
<path d="M116.827 17.4561H116.914L117.002 17.3684V17.2807H117.089L117.176 17.1929V17.1052H117.263L117.351 17.0175V16.9298L117.438 16.8421V16.7543L117.525 16.6666V16.5789L117.612 16.4912V16.3157L117.7 16.228V15.9649L117.787 15.8772V15.2631L117.874 15.0877L117.787 15V14.035L117.7 13.9473V13.6842H117.612V13.5964L117.525 13.5087V13.421L117.438 13.3333V13.2456L117.351 13.1578L117.263 13.0701L117.176 12.9824L117.089 12.8947V12.807H117.002L116.914 12.7193V12.6315H116.827L116.74 12.5438H116.565L116.478 12.4561H116.304L116.216 12.3684H115.693L115.605 12.2807L115.431 12.3684H114.995L114.907 12.4561H114.733L114.646 12.5438H114.471L114.384 12.6315H114.297L114.209 12.7193L114.122 12.807H114.035L113.948 12.8947V12.9824L113.86 13.0701H113.773L113.686 13.1578V13.2456L113.599 13.3333L113.511 13.421V13.6842H113.424V13.9473L113.337 14.035V14.2982L113.25 14.3859V15L113.162 15.0877L113.25 15.2631V15.9649L113.337 16.0526V16.3157L113.424 16.4035V16.5789L113.511 16.6666V16.9298H113.599V17.0175L113.686 17.1052L113.773 17.1929L113.86 17.2807L113.948 17.3684V17.4561H114.035L114.122 17.5438H114.209V17.6315L114.297 17.7193H114.471L114.558 17.807H114.733L114.82 17.8947H116.042L116.129 17.807H116.304L116.391 17.7193H116.478L116.565 17.6315H116.653L116.74 17.5438L116.827 17.4561ZM113.511 18.421H113.424L113.337 18.3333L113.25 18.2456H113.162L113.075 18.1579L112.988 18.0701L112.901 17.9824L112.813 17.8947L112.726 17.807L112.639 17.6315L112.552 17.5438V17.4561L112.464 17.3684L112.377 17.2807L112.29 17.1052V17.0175L112.203 16.9298L112.115 16.8421V16.6666L112.028 16.5789V16.3157L111.941 16.1403V15.2631L111.854 15.0877L111.941 15V14.2982L112.028 14.1228V13.8596L112.115 13.7719V13.5964L112.203 13.5087V13.3333L112.29 13.2456V13.0701L112.377 12.9824L112.464 12.8947L112.552 12.807V12.6315L112.639 12.5438L112.726 12.4561L112.813 12.3684L112.901 12.2807L112.988 12.1929L113.162 12.1052L113.25 12.0175L113.337 11.9298L113.424 11.8421L113.511 11.7543L113.599 11.6666H113.686L113.773 11.5789H113.948L114.035 11.4912H114.209L114.297 11.4035H114.558L114.733 11.3158H115.431L115.605 11.228L115.693 11.3158H116.391L116.565 11.4035H116.827L116.914 11.4912H117.089L117.176 11.5789H117.351L117.438 11.6666H117.612L117.7 11.7543L117.787 11.8421L117.874 11.9298H117.961L118.049 12.0175L118.136 12.1052L118.223 12.1929L118.31 12.2807L118.398 12.3684L118.485 12.5438L118.572 12.6315V12.7193L118.659 12.807L118.747 12.8947L118.834 12.9824V13.1578L118.921 13.2456V13.3333L119.008 13.5087V13.5964L119.096 13.7719V14.035L119.183 14.1228V14.8245L119.27 14.9122L119.183 15.0877V15.8772L119.096 15.9649V16.3157L119.008 16.4035V16.5789L118.921 16.6666V16.8421L118.834 16.9298V17.0175L118.747 17.1929L118.659 17.2807L118.572 17.3684L118.485 17.5438L118.398 17.6315L118.31 17.7193L118.223 17.807L118.136 17.8947L118.049 17.9824L117.961 18.0701L117.874 18.1579H117.787L117.7 18.2456L117.612 18.3333H117.525L117.351 18.421L117.263 18.5087L117.089 18.5965H117.002L116.827 18.6842H116.74L116.565 18.7719H116.478L116.304 18.8596H114.558L114.471 18.7719H114.209L114.035 18.6842H113.948L113.773 18.5965H113.686L113.599 18.5087L113.511 18.421Z" fill="white"/>
<path d="M120.666 11.3159H122.149L125.814 17.0177V16.9299V16.8422V16.7545V16.6668V16.5791V16.4036V16.3159V16.2282V16.1405V16.0528V15.965V15.8773V15.7896V15.7019V15.5264V11.3159H126.948V18.6843H125.552L121.8 12.8949V13.0703V13.158V13.3335V13.4212V13.5089V13.6843V13.7721V13.9475V14.0352V14.1229V14.2984V14.3861V14.4738V14.5615L121.888 14.6493V18.6843H120.666V11.3159Z" fill="white"/>
<path fill-rule="evenodd" clip-rule="evenodd" d="M33.9343 11.3159H20.3225L19.101 11.4036L17.9667 11.4914L17.0068 11.6668L16.047 11.93L15.1745 12.1931L14.4764 12.6317L13.8657 13.0703L13.2549 13.6843L12.8186 14.2984L12.3823 15.0001L12.1205 15.8773L11.8588 16.8422L11.6843 17.8071L11.597 18.9475L11.5098 20.1756V33.772L11.597 35.0878L11.6843 36.2282L11.8588 37.1931L12.1205 38.158L12.3823 38.9475L12.8186 39.737L13.3421 40.351L13.8657 40.8773L14.4764 41.4036L15.2617 41.7545L16.047 42.1054L17.0068 42.2808L18.0539 42.4562L19.101 42.544H20.3225H33.9343H35.1559L36.2902 42.4562L37.2501 42.2808L38.2098 42.0177L38.9952 41.7545L39.7805 41.3159L40.3912 40.8773L40.9148 40.351L41.4383 39.6492L41.7873 38.9475L42.1363 38.0703L42.3108 37.1931L42.4854 36.1405L42.5726 35.0001L42.6599 33.772V20.1756L42.5726 18.9475L42.4854 17.8071L42.3981 16.8422L42.1363 15.8773L41.7873 15.0001L41.4383 14.2984L41.002 13.6843L40.3912 13.0703L39.7805 12.6317L39.0824 12.1931L38.2098 11.93L37.2501 11.6668L36.2902 11.4914L35.1559 11.4036L33.9343 11.3159Z" fill="#C7102D"/>
<path d="M25.1216 29.4737H26.3432L25.7324 28.0702L25.1216 29.4737ZM24.8598 30.1755L24.4236 31.0527H23.6383L25.3834 27.0176H26.0814L27.9138 31.0527H27.0412L26.6922 30.1755H24.8598ZM38.3844 31.0527H39.2569V27.0176H38.3844V31.0527ZM35.1559 29.2983H36.6393V28.5965H35.1559V27.7193H37.3373V27.0176H34.3706V31.0527H37.4246V30.2632H35.1559V29.2983ZM31.9275 29.7369L30.9677 27.0176H30.2697L29.3971 29.7369L28.5246 27.0176H27.652L29.0481 31.0527H29.7461L30.6187 28.3334L31.5785 31.0527H32.2765L33.6726 27.0176H32.8001L31.9275 29.7369ZM22.3294 29.2983L22.2422 29.4737V29.8246L22.1549 29.9123V30L22.0677 30.0878V30.1755L21.9804 30.2632H21.8932L21.8059 30.3509H21.0206L20.9334 30.2632H20.8461L20.7588 30.1755L20.6716 30.0878L20.5843 30V29.9123L20.4971 29.8246V27.0176H19.7118V30L19.799 30.1755L19.8863 30.3509L19.9735 30.5263L20.0608 30.6141L20.1481 30.7895L20.3226 30.8772L20.4971 30.9649L20.5843 31.0527L20.7588 31.1404H22.0677L22.2422 31.0527L22.3294 30.9649L22.504 30.8772L22.6785 30.7895L22.7657 30.6141L22.853 30.5263L22.9402 30.3509L23.0275 30.1755L23.1147 30V29.5614L23.202 29.2983V27.0176H22.4167V29.2983H22.3294ZM17.7049 27.0176H18.4902V31.0527H17.7049V29.386H15.8726V31.0527H15V27.0176H15.8726V28.5965H17.7049V27.0176Z" fill="white"/>
<path d="M27.1285 21.754H26.605L26.0815 21.6663L25.5579 21.5786L25.0344 21.3154L24.5981 21.14L24.0746 20.7891L23.7256 20.4383L23.3766 20.0874L23.0275 19.7365L22.6785 19.2102L22.504 18.7716L22.2422 18.2453L22.155 17.719L22.0677 17.1926L21.9805 16.5786H22.6785L22.7658 17.1049L22.853 17.5435L22.9403 18.0698L23.1148 18.4207L23.2893 18.8593L23.5511 19.2979L23.9001 19.6488L24.1618 19.9119L24.5109 20.2628L24.9472 20.4383L25.3834 20.7014L25.7324 20.8769L26.256 20.9646L26.6923 21.0523H27.1285H27.5648L28.0011 20.9646L28.5246 20.8769L28.8736 20.7014L29.3099 20.4383L29.7462 20.2628L30.0952 19.9119L30.357 19.6488L30.706 19.2979L30.9678 18.8593L31.1423 18.4207L31.3168 18.0698L31.404 17.5435L31.4913 17.1049L31.5786 16.5786H32.2766L32.1893 17.1926L32.1021 17.719L32.0148 18.2453L31.753 18.7716L31.5786 19.2102L31.2295 19.7365L30.8805 20.0874L30.5315 20.4383L30.1825 20.7891L29.6589 21.14L29.2227 21.3154L28.6991 21.5786L28.1756 21.6663L27.6521 21.754H27.1285Z" fill="white"/>
</svg>
