<svg width="1440" height="242" viewBox="0 0 1440 242" fill="none" xmlns="http://www.w3.org/2000/svg">
<path fill-rule="evenodd" clip-rule="evenodd" d="M16.4767 199.929C17.5887 200.51 18.7087 201.078 19.84 201.636C18.5455 201.312 17.2623 200.973 15.9888 200.621C14.8271 200.166 13.6783 199.698 12.5359 199.218C13.84 199.469 15.1536 199.706 16.4767 199.929ZM8.77112 195.639C10.3167 196.554 11.8831 197.448 13.4703 198.317C11.5856 197.964 9.71997 197.584 7.87512 197.176L7.10242 196.823C5.72314 196.184 4.35828 195.53 3.00623 194.859C4.9071 195.145 6.82874 195.407 8.77112 195.639ZM33.3439 205.545C34.4558 206.125 35.5759 206.694 36.7072 207.252C35.4127 206.927 34.1295 206.588 32.8558 206.237C31.6942 205.78 30.5454 205.313 29.4031 204.834C30.707 205.085 32.0206 205.321 33.3439 205.545ZM25.6382 201.254C27.1838 202.17 28.7502 203.063 30.3359 203.932C28.451 203.579 26.5856 203.199 24.7407 202.791L23.9679 202.438C22.5887 201.799 21.224 201.146 19.8735 200.474C21.776 200.76 23.6958 201.022 25.6382 201.254ZM18.1375 196.534C19.8639 197.686 21.6191 198.809 23.3999 199.904C21.1808 199.61 18.9872 199.281 16.8208 198.915C14.9807 197.951 13.1663 196.956 11.379 195.933C13.6046 196.169 15.8575 196.371 18.1359 196.534H18.1375ZM10.8463 191.385C12.6543 192.735 14.496 194.052 16.3695 195.337C13.9231 195.139 11.5056 194.899 9.12158 194.614C7.18713 193.465 5.28308 192.278 3.41272 191.06C5.86072 191.211 8.3374 191.319 10.8463 191.385ZM50.2109 211.159C51.323 211.739 52.443 212.308 53.5742 212.865C52.2798 212.541 50.9966 212.202 49.723 211.851C48.5614 211.394 47.4126 210.927 46.2701 210.448C47.5742 210.698 48.8878 210.935 50.2109 211.159ZM42.5054 206.868C44.0509 207.784 45.6174 208.677 47.2046 209.546C45.3198 209.193 43.4542 208.813 41.6094 208.405L40.8367 208.052C39.4574 207.413 38.0927 206.759 36.7423 206.088C38.6431 206.374 40.5663 206.636 42.5071 206.868H42.5054ZM35.0046 202.147C36.731 203.3 38.4863 204.423 40.2671 205.518C38.0479 205.224 35.8542 204.894 33.6895 204.529C31.8495 203.565 30.0336 202.569 28.2479 201.547C30.4735 201.783 32.7262 201.984 35.0046 202.147ZM27.7135 197C29.5215 198.351 31.363 199.667 33.2367 200.951C30.7903 200.752 28.3727 200.513 25.9886 200.228C24.0543 199.079 22.1504 197.892 20.28 196.674C22.7263 196.824 25.2047 196.933 27.7135 196.999V197ZM20.6335 191.425C22.4719 192.951 24.3422 194.443 26.2526 195.899C23.6318 195.813 21.0464 195.679 18.4944 195.498C16.5216 194.177 14.5839 192.82 12.6831 191.426C15.3007 191.473 17.9503 191.473 20.6335 191.425ZM13.7679 185.416C15.6047 187.109 17.48 188.766 19.3951 190.386C16.632 190.421 13.9038 190.402 11.2126 190.337C9.23352 188.854 7.29272 187.332 5.39038 185.774C8.14868 185.706 10.9407 185.587 13.7695 185.416H13.7679ZM67.0781 216.774C68.1901 217.354 69.3102 217.923 70.4414 218.481C69.147 218.156 67.8638 217.818 66.5901 217.466C65.4286 217.009 64.2781 216.542 63.1373 216.063C64.4413 216.314 65.7565 216.55 67.0781 216.774ZM59.3726 212.483C60.9181 213.399 62.4845 214.292 64.0717 215.162C62.1869 214.809 60.3214 214.428 58.4766 214.021L57.7037 213.668C56.3246 213.028 54.9598 212.375 53.6078 211.704C55.5087 211.99 57.4301 212.252 59.3726 212.483ZM51.8717 207.763C53.5981 208.913 55.3534 210.039 57.1343 211.133C54.915 210.839 52.723 210.508 50.5566 210.144C48.7166 209.18 46.9006 208.185 45.115 207.162C47.3407 207.399 49.5934 207.6 51.8717 207.765V207.763ZM44.5823 202.614C46.3903 203.964 48.2317 205.281 50.1053 206.564C47.6589 206.366 45.2413 206.125 42.8574 205.844C40.923 204.695 39.019 203.507 37.1487 202.29C39.5967 202.44 42.0735 202.549 44.5823 202.614ZM37.5023 197.039C39.3407 198.565 41.2111 200.057 43.1215 201.513C40.5006 201.427 37.915 201.293 35.363 201.112C33.3903 199.79 31.4526 198.434 29.5518 197.04C32.1694 197.087 34.8191 197.087 37.5023 197.039ZM30.6366 191.032C32.4735 192.722 34.3486 194.381 36.2638 196.002C33.5006 196.037 30.7743 196.019 28.0815 195.952C26.1023 194.469 24.1614 192.948 22.259 191.39C25.0175 191.321 27.8094 191.203 30.6366 191.032ZM23.9823 184.59C25.7999 186.441 27.6608 188.254 29.5615 190.033C26.6752 190.194 23.8254 190.303 21.0126 190.359C19.0463 188.718 17.1183 187.038 15.2318 185.322C18.1118 185.132 21.0288 184.887 23.9807 184.59H23.9823ZM17.5471 177.711C19.3328 179.716 21.1631 181.688 23.0382 183.62C20.0398 183.913 17.0784 184.151 14.1552 184.333C12.2144 182.538 10.3198 180.705 8.46545 178.834C10.691 178.598 12.9343 178.332 15.2015 178.033C15.9807 177.931 16.7632 177.821 17.5471 177.711ZM11.3326 170.393C13.0782 172.549 14.8687 174.673 16.7054 176.76L15.0638 176.985C12.5215 177.321 10.0048 177.615 7.51514 177.872C5.61121 175.924 3.75195 173.938 1.9375 171.918C5.03027 171.467 8.15991 170.962 11.3311 170.395L11.3326 170.393ZM10.9119 151.377C12.499 153.98 14.1359 156.556 15.8239 159.103C12.4366 159.95 9.09277 160.732 5.78723 161.452L4.76624 160.046C3.36633 158.101 2.00159 156.134 0.667236 154.146C4.04163 153.287 7.45752 152.364 10.9119 151.377ZM83.9485 222.39C85.0605 222.97 86.1804 223.539 87.3116 224.096C86.0172 223.772 84.7341 223.433 83.4606 223.081C82.299 222.624 81.1486 222.158 80.0077 221.678C81.3118 221.929 82.627 222.166 83.9485 222.39ZM76.2429 218.099C77.7885 219.015 79.355 219.908 80.9421 220.777C79.0574 220.424 77.1918 220.044 75.3469 219.636L74.5742 219.283C73.1949 218.644 71.8301 217.99 70.4781 217.319C72.3789 217.605 74.3005 217.867 76.2429 218.099ZM68.7422 213.378C70.4685 214.529 72.2236 215.654 74.0045 216.749C71.7853 216.455 69.5934 216.124 67.427 215.759C65.587 214.796 63.7709 213.8 61.9854 212.777C64.2109 213.014 66.4637 213.215 68.7422 213.38V213.378ZM61.4525 208.23C63.2605 209.58 65.1022 210.897 66.9757 212.18C64.5294 211.982 62.1118 211.74 59.7278 211.459C57.7935 210.31 55.8893 209.123 54.0189 207.905C56.4669 208.055 58.9437 208.164 61.4525 208.23ZM54.3726 202.654C56.2109 204.18 58.0813 205.673 59.9917 207.129C57.371 207.042 54.7854 206.908 52.2335 206.727C50.2606 205.406 48.323 204.049 46.4222 202.656C49.0398 202.702 51.6895 202.702 54.3743 202.654H54.3726ZM47.5054 196.646C49.3422 198.336 51.2173 199.995 53.1326 201.615C50.3694 201.649 47.6429 201.633 44.9502 201.566C42.9711 200.083 41.0303 198.562 39.1279 197.003C41.8846 196.935 44.6782 196.817 47.5071 196.646H47.5054ZM40.851 190.204C42.6686 192.054 44.5294 193.868 46.4302 195.647C43.5438 195.808 40.6942 195.917 37.8815 195.973C35.915 194.332 33.9871 192.652 32.1007 190.936C34.9807 190.746 37.8975 190.501 40.8495 190.204H40.851ZM34.4143 183.324C36.2 185.33 38.0302 187.302 39.9054 189.234C36.907 189.526 33.9454 189.764 31.0223 189.947C29.0815 188.152 27.187 186.319 25.3326 184.448C27.5582 184.211 29.8015 183.946 32.0687 183.647C32.8479 183.545 33.6302 183.436 34.4143 183.324ZM28.2 176.007C29.9456 178.163 31.7358 180.287 33.5726 182.374L31.9326 182.599C29.3903 182.935 26.8734 183.229 24.3839 183.486C22.4799 181.538 20.6206 179.552 18.8063 177.532C21.899 177.081 25.0288 176.576 28.2 176.009V176.007ZM22.2079 168.246C23.9071 170.552 25.651 172.829 27.4446 175.071C24.2446 175.636 21.0847 176.141 17.9631 176.586C16.1007 174.486 14.2863 172.348 12.5183 170.176C15.7086 169.593 18.9374 168.95 22.2062 168.246H22.2079ZM20.7759 166.278L21.5231 167.311C18.2288 168.015 14.976 168.658 11.7632 169.24C9.9519 166.988 8.19031 164.704 6.47522 162.386C9.75842 161.665 13.0815 160.883 16.4447 160.038C17.8511 162.141 19.2959 164.222 20.7759 166.278ZM1097.11 0C1132.35 3.01386 1165.11 2.76137 1195.46 0H1181.74C1159.61 1.42383 1136.26 1.51013 1111.65 0H1097.11H1097.11ZM1067.95 0L1071.71 0.58008C1141.2 11.1669 1201.89 9.33401 1254.33 0H1248.07C1197.96 8.26015 1140.45 9.63604 1075.08 0H1067.95H1067.95ZM1052.32 0C1064.21 2.24681 1076.29 4.32423 1088.58 6.19551C1170.34 18.652 1239.93 13.9219 1298.2 0H1293.55C1236.3 13.0846 1168.3 17.2698 1088.74 5.14721C1078.38 3.56997 1068.18 1.84731 1058.11 0H1052.32H1052.32ZM1041.4 0C1062.15 4.46006 1083.46 8.4615 1105.45 11.8109C1197.38 25.8176 1273.91 18.0895 1336.29 0H1332.46C1270.86 17.3193 1195.64 24.4784 1105.6 10.7626C1085.36 7.67847 1065.69 4.04138 1046.51 0H1041.41H1041.4ZM1033.4 0C1061.91 6.73564 1091.45 12.7234 1122.31 17.4264C1223.28 32.8073 1305.67 21.9791 1371.14 0H1367.77C1302.93 21.2504 1221.7 31.4953 1122.47 16.3781C1093.23 11.9228 1065.18 6.31057 1038.06 0H1033.4ZM1027.37 0C1062.91 9.01921 1099.97 17.0684 1139.18 23.0418C1248.41 39.6819 1335.91 25.645 1403.75 0H1400.74C1333.42 24.9562 1246.95 38.3891 1139.34 21.9935C1101.67 16.2534 1065.98 8.59413 1031.71 0H1027.37H1027.37ZM993.573 0C1028.9 8.75234 1064.35 19.2913 1100.8 30.1306C1169.92 50.6827 1242.61 72.2975 1324.72 84.8083C1366.26 91.1365 1404.63 92.9982 1440 91.5024V90.4397C1404.68 91.9355 1366.37 90.0818 1324.88 83.76C1274.61 76.1007 1227.86 65.0217 1183.3 52.864C1222.72 63.2079 1263.94 72.502 1307.85 79.1929C1356.09 86.5406 1400.06 87.8797 1440 84.9074V83.8447C1400.11 86.8186 1356.19 85.4859 1308.01 78.1446C1257.74 70.4853 1211 59.4063 1166.43 47.2486C1205.85 57.5925 1247.07 66.8882 1290.99 73.5775C1346.1 81.9751 1395.68 82.5535 1440 77.7787V76.7112C1395.73 81.4893 1346.21 80.9188 1291.14 72.5292C1240.87 64.8699 1194.13 53.7908 1149.57 41.6331C1188.98 51.9771 1230.2 61.2711 1274.12 67.962C1336.35 77.4415 1391.49 76.9365 1440 70.0315V68.9608C1391.55 75.8722 1336.46 76.3868 1274.28 66.9121C1224.01 59.2529 1177.26 48.1754 1132.7 36.0161C1172.12 46.3601 1213.34 55.6541 1257.25 62.345C1326.8 72.9399 1387.53 71.099 1440 61.7458V60.6735C1387.6 70.0347 1326.91 71.8852 1257.41 61.2967C1207.14 53.6374 1160.4 42.56 1115.84 30.4007C1155.25 40.7446 1196.47 50.0387 1240.39 56.7296C1317.53 68.4846 1383.8 64.9114 1440 52.7809V51.699C1383.87 63.8424 1317.65 67.4315 1240.54 55.6845C1190.27 48.0252 1143.53 36.9477 1098.97 24.7884C1138.39 35.1324 1179.6 44.4265 1223.52 51.1174C1308.51 64.0645 1380.34 58.4347 1440 43.2215V42.1269C1380.41 57.3576 1308.64 63.0114 1223.67 50.0675C1173.41 42.4082 1126.66 31.3307 1082.1 19.1714C1121.52 29.5154 1162.73 38.8094 1206.65 45.5003C1299.82 59.6955 1377.16 51.5568 1440 32.9463V31.8453C1377.24 50.4749 1299.95 58.644 1206.81 44.452C1156.54 36.7927 1109.79 25.7137 1065.23 13.556C1104.65 23.8999 1145.87 33.194 1189.78 39.8849C1291.47 55.3793 1374.3 44.2667 1440 21.9711V20.8557C1374.39 43.1768 1291.61 54.3278 1189.94 38.8382C1139.67 31.1789 1092.93 20.0999 1048.36 7.94214C1087.78 18.2861 1129 27.5802 1172.91 34.2711C1283.5 51.1189 1371.8 36.5131 1440 10.2609V9.12787C1371.9 35.4104 1283.66 50.0706 1173.07 33.2228C1122.8 25.5635 1076.06 14.4844 1031.5 2.32671C1070.91 12.6707 1112.13 21.9647 1156.05 28.6556C1273.01 46.4751 1365.05 29.1175 1434.73 0H1431.96C1362.72 28.4559 1271.64 45.1935 1156.2 27.6073C1110.51 20.6448 1067.72 10.8569 1026.84 0H998.513C1002.01 0.930046 1005.51 1.87128 1009.01 2.82849C1005.33 1.86648 1001.64 0.92685 997.958 0H993.573ZM227.966 0C213.676 9.29726 199.097 19.2657 184.203 29.9548C113.691 80.5592 53.1005 112.941 1.09265 131.371C0.724731 130.633 0.361572 129.895 0.00158691 129.155V131.55L0.0880127 131.723L0.00158691 131.753V132.87L0.561646 132.674C2.01599 135.573 3.52637 138.454 5.09436 141.314C3.38721 141.859 1.68958 142.386 0.00158691 142.901V144.005C1.86084 143.441 3.72949 142.859 5.61267 142.259C7.13586 145.01 8.7135 147.738 10.3439 150.444C6.86877 151.433 3.43518 152.36 0.041626 153.218L0.00158691 153.159V155.064C1.27197 156.948 2.57275 158.817 3.90393 160.665L4.65112 161.697C3.09106 162.031 1.54236 162.349 0.00158691 162.656V163.733C1.76794 163.383 3.54553 163.017 5.33594 162.632C7.03516 164.938 8.77905 167.215 10.5726 169.457C7.37268 170.024 4.21277 170.528 1.09119 170.972L0.00158691 169.732V172.191L0.676758 172.095C2.4624 174.101 4.29272 176.071 6.16626 178.005C4.09265 178.208 2.03845 178.382 0.00158691 178.532V179.593C2.34717 179.421 4.71826 179.216 7.11194 178.975C8.92944 180.825 10.7903 182.639 12.691 184.417C9.80469 184.579 6.95361 184.688 4.14233 184.743C2.74243 183.574 1.35999 182.386 0 181.178V182.591C0.833618 183.324 1.67505 184.05 2.52625 184.771C1.67993 184.782 0.838379 184.787 0 184.788V185.846C1.24805 185.845 2.50232 185.832 3.76477 185.809C5.60315 187.335 7.47351 188.828 9.38391 190.284C6.76318 190.198 4.17749 190.063 1.62549 189.883C1.08154 189.518 0.539185 189.151 0.00158691 188.78V190.822L1.2688 190.918C2.99524 192.07 4.75037 193.194 6.53113 194.288C4.32788 193.998 2.15039 193.67 0 193.307V194.519C0.982422 195.028 1.97278 195.529 2.9696 196.021C1.97278 195.77 0.984009 195.513 0 195.247V196.484C5.03845 198.416 10.2511 200.137 15.6495 201.627C21.0638 203.752 26.6815 205.631 32.5166 207.242C37.931 209.367 43.5486 211.247 49.3838 212.857C54.7982 214.983 60.4158 216.862 66.2509 218.473C71.6653 220.598 77.2828 222.477 83.118 224.088C88.5325 226.214 94.15 228.093 99.9852 229.704C127.792 240.628 161.049 245.037 200.735 239.802C266.327 231.15 349.506 196.145 454.696 120.655C540.673 58.9524 616.214 21.1194 685.422 0H681.711C613.34 21.3479 538.761 59.0227 454.08 119.797C349.048 195.175 266.034 230.122 200.603 238.753C165.555 243.376 135.555 240.446 109.92 232.136C131.667 236.799 156.206 237.834 183.871 234.186C249.463 225.534 332.642 190.53 437.831 115.04C516.656 58.4682 586.712 21.9599 651.158 0H647.831C584.124 22.1022 514.925 58.4091 437.215 114.181C332.181 189.56 249.169 224.507 183.737 233.138C151.951 237.331 124.318 235.31 100.326 228.699C99.166 228.242 98.0142 227.775 96.8733 227.295C117.665 231.287 140.948 232.008 167.006 228.571C232.598 219.919 315.776 184.914 420.965 109.424C493.406 57.4343 558.443 22.3818 618.526 0H615.502C556.083 22.4585 491.818 57.2745 420.347 108.566C315.314 183.944 232.302 218.892 166.87 227.521C138.88 231.214 114.11 230.087 92.2124 225.252L91.4397 224.898C90.0605 224.259 88.6957 223.606 87.3436 222.934C106.238 225.781 127.104 225.993 150.137 222.955C215.729 214.304 298.909 179.299 404.098 103.809C470.763 55.9641 531.15 22.4841 587.184 0H584.281C528.888 22.5081 469.23 55.7628 403.479 102.951C298.447 178.331 215.433 213.276 150.001 221.907C125.756 225.105 103.931 224.686 84.2909 221.375C82.4508 220.411 80.6349 219.416 78.8494 218.393C95.4877 220.159 113.588 219.935 133.268 217.34C198.86 208.688 282.039 173.684 387.229 98.1933C448.546 54.1871 504.555 22.3259 556.747 0H554.059C502.451 22.3099 447.114 53.9155 386.611 97.3352C281.58 172.715 198.566 207.661 133.134 216.292C112.6 219 93.798 219.115 76.5917 217.076C74.6572 215.927 72.7533 214.74 70.8829 213.522C85.0269 214.391 100.177 213.866 116.403 211.724C181.995 203.073 265.173 168.068 370.364 92.5779C426.714 52.1369 478.579 21.9551 527.121 0H524.533C476.554 21.904 425.327 51.8317 369.744 91.7213C264.713 167.1 181.699 202.047 116.267 210.678C99.3997 212.902 83.702 213.377 69.0973 212.344C67.1245 211.023 65.1869 209.666 63.2861 208.273C74.7292 208.476 86.8013 207.79 99.5356 206.111C165.127 197.459 248.306 162.454 353.496 86.9641C405.197 49.8597 453.115 21.4054 498.166 0.00159801H495.661C451.159 21.3223 403.851 49.5257 352.877 86.1075C247.846 161.486 164.832 196.433 99.3997 205.064C86.163 206.809 73.6477 207.477 61.8158 207.184C59.8365 205.701 57.8959 204.18 55.9934 202.622C64.5454 202.408 73.4333 201.714 82.67 200.497C148.262 191.845 231.441 156.841 336.629 81.3502C383.935 47.4004 428.072 20.6991 469.747 0.00319603H467.349C426.197 20.592 382.639 47.0296 336.012 80.4937C230.978 155.872 147.966 190.819 82.5342 199.45C72.8958 200.722 63.6382 201.42 54.7487 201.595C52.7822 199.953 50.8542 198.274 48.9679 196.558C54.4479 196.195 60.0574 195.64 65.803 194.883C131.395 186.231 214.574 151.227 319.762 75.7364C362.896 44.7812 403.396 19.8538 441.797 0.00319603H439.485C401.584 19.7243 361.642 44.3801 319.145 74.8783C214.111 150.257 131.099 185.204 65.667 193.835C59.5902 194.635 53.6654 195.209 47.8894 195.567C45.9486 193.772 44.0542 191.939 42.2014 190.068C44.4254 189.832 46.6702 189.566 48.9374 189.267C114.529 180.616 197.708 145.611 302.898 70.121C342.058 42.0167 379.045 18.8854 414.266 0.00319603H412.024C377.288 18.7383 340.837 41.5916 302.281 69.2628C197.249 144.643 114.235 179.588 48.803 188.219C46.2606 188.555 43.7439 188.849 41.2543 189.106C39.3503 187.158 37.4911 185.172 35.6766 183.152C100.704 173.709 182.759 138.622 286.031 64.5071C321.394 39.1274 354.981 17.8099 387.101 0.00479404H384.917C353.269 17.6453 320.199 38.6848 285.412 63.6506C181.924 137.922 99.8124 172.941 34.8318 182.207C32.9694 180.108 31.1552 177.97 29.3871 175.798C92.6718 164.23 171.414 129.045 269.162 58.8917C300.884 36.1248 331.175 16.6354 360.263 0.00479404H358.128C329.501 16.4532 299.713 35.6661 268.543 58.0352C170.636 128.302 91.8636 163.428 28.6287 174.861C26.8175 172.61 25.0559 170.326 23.3407 168.007C84.7181 154.547 160.041 119.484 252.293 53.2763C280.513 33.023 307.599 15.3697 333.717 0.00479404H331.628C305.962 15.1748 279.365 32.5468 251.676 52.4197C159.313 118.705 83.9806 153.721 22.6543 167.074L21.6335 165.668C20.2335 163.723 18.8688 161.754 17.5343 159.768C76.8397 144.665 148.641 109.945 235.428 47.6608C260.273 29.8302 284.233 14.0226 307.434 0.00319603H305.385C282.628 13.8133 259.141 29.3412 234.809 46.8027C147.956 109.135 76.1613 143.817 16.9119 158.836C15.2111 156.28 13.563 153.689 11.9663 151.076C69.0332 134.587 137.214 100.424 218.559 42.0454C240.14 26.5574 261.054 12.6004 281.385 0.00319603H279.37C259.478 12.3782 239.028 26.0557 217.94 41.1873C136.561 99.5916 68.403 133.717 11.3967 150.142C9.75671 147.43 8.17273 144.692 6.64319 141.934C61.3005 124.318 125.761 90.9239 201.692 36.43C220.111 23.2112 238.046 11.1046 255.548 0.00319603H253.569C236.497 10.8713 219.015 22.6966 201.073 35.5718C125.139 90.0674 60.7166 123.426 6.12476 140.99C4.55029 138.123 3.03198 135.232 1.56958 132.324C53.6462 113.851 114.286 81.4365 184.823 30.813C200.178 19.7946 215.198 9.54016 229.91 0.00159801H227.969L227.966 0ZM202.586 0C191.025 7.67687 179.289 15.7612 167.335 24.3394C103.835 69.9116 48.3855 100.699 0.00158691 119.834V120.967C48.5614 101.811 104.216 70.9408 167.953 25.1959C180.35 16.2998 192.518 7.92616 204.492 0H202.585H202.586Z" fill="white" fill-opacity="0.3"/>
</svg>
