<svg width="143" height="22" viewBox="0 0 143 22" fill="none" xmlns="http://www.w3.org/2000/svg">
<g clip-path="url(#clip0_4509_9692)">
<path fillRule="evenodd" clipRule="evenodd" d="M6.25482 17.8857C5.34688 17.8857 4.59027 17.5237 4.1363 16.9549C3.48058 16.231 3.2788 15.4037 3.2788 12.0425C3.2788 8.68142 3.53101 7.85406 4.1363 7.13012C4.59027 6.56132 5.34688 6.19936 6.25482 6.19936C7.91936 6.19936 8.77686 7.28525 9.12994 8.68142H12.5095C11.9042 5.06174 9.43259 3.2002 6.25482 3.2002C4.3885 3.2002 2.87528 3.87242 1.66471 5.11345C-0.0502852 6.87158 0.000155681 9.04338 0.000155681 12.0425C0.000155681 15.0417 -0.0502852 17.2135 1.66471 18.9717C2.87528 20.2127 4.3885 20.8849 6.25482 20.8849C9.38214 20.8849 11.9042 19.0234 12.5095 15.352H9.12994C8.8273 16.7998 7.96981 17.8857 6.25482 17.8857Z" fill="#007DC3"/>
<path fillRule="evenodd" clipRule="evenodd" d="M18.6628 7.85352C16.7965 7.85352 15.5859 8.57746 14.8293 9.40481C13.7196 10.5941 13.417 12.042 13.417 14.3689C13.417 16.6958 13.7196 18.1438 14.8293 19.3331C15.5859 20.1604 16.8469 20.8843 18.6628 20.8843C20.4787 20.8843 21.7397 20.1604 22.4963 19.3331C23.606 18.1438 23.9087 16.6958 23.9087 14.3689C23.9087 12.0938 23.606 10.6458 22.4963 9.40481C21.7901 8.62917 20.5292 7.85352 18.6628 7.85352ZM20.1256 17.4716C19.7725 17.8335 19.3185 18.0404 18.6628 18.0404C18.0576 18.0404 17.6036 17.8335 17.2505 17.4716C16.5947 16.7992 16.5443 15.6617 16.5443 14.3689C16.5443 13.0245 16.5947 11.9386 17.2505 11.2664C17.6036 10.9044 18.0576 10.6976 18.6628 10.6976C19.2681 10.6976 19.7725 10.9044 20.1256 11.2664C20.7813 11.9386 20.8318 13.0245 20.8318 14.3689C20.8318 15.7134 20.7813 16.851 20.1256 17.4716Z" fill="#007DC3"/>
<path fillRule="evenodd" clipRule="evenodd" d="M31.8286 7.85352C30.6685 7.85352 29.5588 8.3189 28.7012 9.19797V8.00865H25.6748V20.7809H28.8021V13.0762C28.8021 11.3181 29.9119 10.7493 30.8702 10.7493C31.8286 10.7493 32.9383 11.3181 32.9383 13.0762V20.7809H36.0656V12.6108C36.0656 11.2146 35.8134 10.0253 34.8046 8.99114C34.0985 8.26719 33.0896 7.85352 31.8286 7.85352Z" fill="#007DC3"/>
<path fillRule="evenodd" clipRule="evenodd" d="M44.842 8.00879L42.3704 15.9204L39.7979 8.00879H36.5696L41.1597 20.7811H43.5809L48.1206 8.00879H44.842Z" fill="#007DC3"/>
<path fillRule="evenodd" clipRule="evenodd" d="M53.3159 7.85352C50.0877 7.85352 47.9187 10.2322 47.9187 14.3689C47.9187 19.3331 50.5417 20.7809 53.3159 20.8843C53.4167 20.8843 53.5176 20.8843 53.669 20.8843C55.8883 20.8843 57.1494 20.1604 58.4104 18.8677L56.544 17.0061C55.7371 17.8335 55.0812 18.1955 53.7194 18.1955C53.6185 18.1955 53.4672 18.1955 53.3663 18.1955C51.8531 18.0404 50.9956 16.9027 50.9956 15.3514H53.3663H58.7635V13.9553C58.7635 10.4907 56.7963 7.85352 53.3159 7.85352ZM53.3159 13.2313H50.9451C50.9451 12.6625 51.046 12.3006 51.2477 11.8869C51.6008 11.1112 52.2567 10.5424 53.3159 10.5424C54.3752 10.5424 55.0812 11.1112 55.384 11.8869C55.5857 12.3523 55.6362 12.7143 55.6866 13.2313H53.3159Z" fill="#007DC3"/>
<path fillRule="evenodd" clipRule="evenodd" d="M66.5817 7.85352C65.2703 7.85352 64.0597 8.47404 63.4544 9.19797V8.00865H60.428V20.7809H63.5553V13.0762C63.5553 11.4732 64.6146 10.7493 65.5729 10.7493C66.3295 10.7493 66.7331 11.0078 67.2374 11.5249L69.5578 9.09455C68.6498 8.21549 67.7923 7.85352 66.5817 7.85352Z" fill="#007DC3"/>
<path fillRule="evenodd" clipRule="evenodd" d="M75.51 13.0245L73.5428 12.8177C72.4331 12.7142 72.2314 12.1972 72.2314 11.7318C72.2314 11.1113 72.7357 10.4908 73.9968 10.4908C75.0561 10.4908 76.1657 10.6976 76.8718 11.3698L78.7887 9.40485C77.578 8.26724 75.964 7.90527 74.0472 7.90527C71.5252 7.90527 69.2553 9.30144 69.2553 11.9903C69.2553 14.3172 70.6172 15.3515 72.8871 15.5583L74.8542 15.7652C75.8126 15.8686 76.1657 16.2822 76.1657 16.9545C76.1657 17.8852 75.0561 18.2989 73.9463 18.2989C72.9879 18.2989 71.6765 18.1438 70.6172 17.1096L68.5996 19.1779C70.1633 20.781 71.9286 21.0395 73.8959 21.0395C76.8214 21.0395 79.1922 19.695 79.1922 16.9027C79.1922 14.6276 77.9816 13.283 75.51 13.0245Z" fill="#007DC3"/>
<path fillRule="evenodd" clipRule="evenodd" d="M90.8441 15.4032V14.0071C90.8441 10.4908 88.8769 7.90527 85.447 7.90527C82.2187 7.90527 80.0498 10.2322 80.0498 14.4207C80.0498 19.3848 82.6726 20.8327 85.447 20.9361C85.5478 20.9361 85.6487 20.9361 85.8001 20.9361C88.0194 20.9361 89.2805 20.2122 90.5415 18.9194L88.6751 17.0579C87.8681 17.8852 87.2123 18.2472 85.8504 18.2472C85.7496 18.2472 85.5982 18.2472 85.4973 18.2472C83.9842 18.0921 83.1266 16.9545 83.1266 15.4032H85.4973H90.8441ZM83.3285 11.8352C83.6815 11.0596 84.3373 10.4908 85.3965 10.4908C86.4558 10.4908 87.162 11.0596 87.4646 11.8352C87.6663 12.3006 87.7168 12.6625 87.7672 13.1796H85.3965H83.0257C83.0762 12.6625 83.1771 12.3006 83.3285 11.8352Z" fill="#007DC3"/>
<path fillRule="evenodd" clipRule="evenodd" d="M103.303 11.8358C104.16 11.4221 105.421 10.1811 105.421 8.21612C105.421 5.21697 103.504 3.30371 100.175 3.30371H99.5196H93.3657V20.7815H99.5196H100.478C103.504 20.7815 105.673 19.0234 105.673 15.7657C105.673 13.4388 104.362 12.3529 103.303 11.8358ZM96.6444 6.40629H99.4691H99.8727C101.285 6.40629 102.092 7.23365 102.092 8.42297C102.092 9.61229 101.285 10.4396 99.8727 10.4396H99.4691H96.6444V6.40629ZM100.125 17.7307H99.5196H96.6949V13.4388H99.5196H100.125C101.638 13.4388 102.344 14.3696 102.344 15.5589C102.344 16.7483 101.638 17.7307 100.125 17.7307Z" fill="#F78E1E"/>
<path fillRule="evenodd" clipRule="evenodd" d="M111.828 7.85352H111.727C109.659 7.85352 108.448 8.26719 107.238 9.61165L109.205 11.5766C109.861 10.801 110.416 10.5424 111.575 10.5424C111.626 10.5424 111.727 10.5424 111.778 10.5424C113.29 10.5941 113.896 11.2146 113.896 12.5591V13.1796H111.778H110.97C108.095 13.1796 106.733 14.8343 106.733 16.851C106.733 17.9886 107.087 19.0228 107.742 19.695C108.499 20.4707 109.508 20.8326 110.92 20.8326C111.222 20.8326 111.526 20.8326 111.828 20.7809C112.736 20.6258 113.341 20.2638 113.996 19.5916V20.7809H117.024V12.3523C117.024 9.40481 115.258 7.90523 111.828 7.85352ZM113.947 16.0753C113.947 16.851 113.846 17.368 113.493 17.6784C112.988 18.1438 112.534 18.2472 111.828 18.2989C111.727 18.2989 111.626 18.2989 111.526 18.2989C110.315 18.2989 109.76 17.7301 109.76 16.851C109.76 15.9202 110.365 15.4031 111.526 15.4031H111.879H113.996L113.947 16.0753Z" fill="#F78E1E"/>
<path fillRule="evenodd" clipRule="evenodd" d="M125.295 7.85352C124.135 7.85352 123.025 8.3189 122.168 9.19797V8.00865H119.142V20.7809H122.269V13.0762C122.269 11.3181 123.378 10.7493 124.337 10.7493C125.295 10.7493 126.405 11.3181 126.405 13.0762V20.7809H129.533V12.6108C129.533 11.2146 129.28 10.0253 128.271 8.99114C127.565 8.26719 126.556 7.85352 125.295 7.85352Z" fill="#F78E1E"/>
<path fillRule="evenodd" clipRule="evenodd" d="M138.208 13.1802L142.647 8.00934H138.915L134.779 13.232V3.35547H131.651V20.7816H134.779V16.9551L136.09 15.4555L139.116 20.7816H143L138.208 13.1802Z" fill="#F78E1E"/>
</g>
<defs>
<clipPath id="clip0_4509_9692">
<rect width="143" height="22" fill="white"/>
</clipPath>
</defs>
</svg>
